<svg xmlns="http://www.w3.org/2000/svg" height="400" width="1000" viewBox="-7.18908 -2.70475 62.30536 16.2285"><path d="M14.8144 2.9555h-.0148l-.936 2.3505h.9021zm-.5496-.961h1.5522l.1937 5.2775h-1.286l.0213-1.0054h-1.2637l-.3986 1.0054h-1.286zm3.1929.0001h3.0526l-.2134 1.005h-1.8112l-.2243 1.0573h1.6996l-.2134 1.005h-1.7l-.2561 1.2048h1.8923L19.47 7.2721h-3.1341zm4.3907 2.2248h.3842c.5027 0 .7162-.3768.7818-.6872.085-.3994-.0063-.6654-.5013-.6654h-.3771zm-.7687-2.225h2.0843c1.0569 0 1.2809.6505 1.127 1.3751-.1636.7687-.5541 1.1455-1.1602 1.2859l-.0035.0148c.7676.1108.7066.606.5704 1.3159-.1993 1.042-.1845 1.1454-.0229 1.2195l-.0138.0663h-1.338c-.0583-.1774-.0325-.473.0949-1.0717.1947-.9166.11-1.1088-.282-1.1088h-.473l-.4632 2.1805H19.958zm4.9305 4.5533c.5027 0 .6755-.4657.9835-1.9142.308-1.4489.333-1.9145-.1697-1.9145-.4879 0-.6607.4656-.9687 1.9145-.308 1.4485-.333 1.9142.1549 1.9142m-.1687.828c-1.6333 0-1.6287-1.0647-1.272-2.7422.3566-1.6782.8046-2.7425 2.4376-2.7425 1.7593 0 1.5836 1.2788 1.2725 2.7425-.3112 1.4633-.6788 2.7421-2.438 2.7421m3.8237-1.7149l-.0395.1848c-.0847.399-.0381.702.3905.702.436 0 .6307-.3252.6953-.6282.242-1.1381-2.1622-.5024-1.743-2.4762.1791-.8424.781-1.5519 2.0598-1.5519 1.2418 0 1.5515.6283 1.3787 1.4411l-.0265.1256h-1.1977c.0536-.2511.0632-.436.0145-.5542-.0473-.1256-.1528-.1848-.3376-.1848-.3105 0-.5345.1848-.6163.5693-.2343 1.101 2.153.5469 1.7568 2.4095-.2544 1.1973-1.0217 1.6778-2.16 1.6778-.9018 0-1.679-.2734-1.4447-1.3747l.0723-.3401zm4.4003-1.3674h.34c.4953 0 .6795-.3104.755-.6653.0864-.4064.019-.7169-.4833-.7169h-.3179zm-.7532-2.2987h1.922c1.308 0 1.3585.9462 1.2184 1.604-.201.9459-.7934 1.6112-2.0352 1.6112h-.5468l-.4385 2.0624h-1.2418zm5.1551.9609h-.0148l-.936 2.3505h.9021zm-.5496-.961H39.47l.1937 5.2776h-1.286l.0216-1.0055h-1.264l-.3986 1.0055h-1.2863zm4.8817 1.8332c.1637-.7687.147-1.1088-.2667-1.1088-.4953 0-.6403.473-.9342 1.8553-.333 1.567-.368 1.9734.1496 1.9734.4582 0 .6216-.5246.8033-1.3452h1.1976l-.0395.1849c-.242 1.138-.7404 1.9883-2.2778 1.9883-1.5893 0-1.4616-1.19-1.124-2.7792.2875-1.3526.6488-2.7055 2.408-2.7055 1.094 0 1.5922.4731 1.3283 1.7149l-.0473.2219zm2.075-1.8331h3.0526l-.2138 1.005h-1.8108l-.2248 1.0573h1.7l-.2137 1.005h-1.7l-.2562 1.2048h1.8923l-.2137 1.0054h-3.1338zM5.2074 10.2404C2.6508 10.2354.5828 8.168.5786 5.6116.5828 3.0554 2.6508.9874 5.2074.9828a4.6146 4.6146 0 011.9099.4153L1.2312 7.284h1.9883L4.644 5.8597 7.0937 3.41v2.4496H4.7399v1.4246h3.7755V2.3788c.8152.834 1.3186 1.9738 1.3211 3.2328-.0049 2.5563-2.073 4.6242-4.6291 4.6288M8.5154 1.59V0L7.553.9627A5.1812 5.1812 0 005.2074.404C2.3315.404 0 2.7354 0 5.6116c0 2.8755 2.3315 5.2074 5.2074 5.2074 2.8758 0 5.207-2.3319 5.207-5.2074 0-1.6196-.7395-3.0667-1.899-4.0216" fill="#250082"/></svg>