<svg xmlns="http://www.w3.org/2000/svg" height="800" width="1200" viewBox="-37.5015 -22.1575 325.013 132.945"><path fill="#FFF" d="M0 0h59.98v57.23H0z"/><path fill="#FED141" d="M.06 41.17l29.38 2.38L7.88 28.52l24.74 8.55L8.86 8.37l30.11 22.54-9.04-23.4 14.96 19.85L43.55 0l9.41 27.48L59.98 0H0v57.23h.06L29.14 51 .06 41.17"/><path fill="#00664F" d="M0 57.23h59.98V0h10.45v67.25H0V57.23"/><path d="M86.18 57.23V27.12h18.63v1.95h-12.7v11.61h11.97v1.95H92.11v12.64H105v1.95l-18.82.01m32.56-1.95v-26.2h4.03l1.34.06c6.47.76 9.39 6.3 9.77 12.28l.06 1.4-.06 1.1c-.18 6.15-3.19 10.83-9.77 11.24l-1.65.12h-3.72m-5.93 1.95h11.36c22.08.46 20.3-30.63-1.1-30.11h-10.26zm34.45 0h5.92V27.12h-5.92zm16.86-5.44l-2.2 1.59.43.61.49.55.43.55c2.87 2.98 8.74 3.6 12.46 2.32l.92-.37.86-.43c6.09-3.49 6.64-11.97.06-15.39l-1.34-.67-1.4-.61-2.69-1.1c-5.53-1.51-6.14-6.98-2.2-9.53l.49-.24.49-.18c2.99-.7 5.62.2 7.39 2.75l.31.43.49.86 2.02-1.22-.31-.61-.43-.61-.43-.55c-3.06-3.44-8.12-4.46-12.4-2.93l-.92.37-.79.43c-5.7 3.24-6.09 11.93.37 14.6l1.28.61 1.4.55 2.69 1.1c5.34 1.59 6.61 7.98 1.59 10.44l-.49.24-.49.12c-2.54.69-5.47-.23-7.09-2.32l-.37-.43-.31-.43-.31-.5m39.03 4.34l-1.34-.12-1.22-.24c-9.22-2.17-9.09-26.8 1.22-27.42l1.34-.06 1.34.06c10.42.75 10.5 25.2 1.22 27.42l-1.22.24-1.34.12m-1.65-29.74l-1.65.24c-17.29 3.82-16.08 29.38 1.65 31.33l1.65.06 1.65-.06c17.77-1.89 18.94-27.62 1.65-31.33l-1.65-.24-1.65-.06zm24.07 30.84h2.5v-24h.12l19.18 24H250V27.12h-2.57v20.71h-.06l-16.49-20.71h-5.31v30.11M86.86 18.2l-.73.49.18.24.12.18c3.32 3.39 9.69-1.49 4.4-4.58l-.43-.24-.49-.12c-4.32-1.31-.54-5.57 1.65-2.44l.12.18.06.12.67-.43-.24-.37c-2.96-3.84-9.59 1.27-4.21 4.09l.49.18 1.28.55c.93.38 1.14 1.15 1.1 2.08l-.06.18-.06.12c-.17.31-.39.6-.73.73l-.12.12-.18.06-.18.06h-.18l-.12.06h-.37l-.18-.06h-.18l-.12-.06h-.18l-.12-.06c-.21-.08-.58-.38-.73-.55l-.12-.12-.06-.12-.12-.12-.16-.17m12.33 1.41l-.86-.12c-3.02-.6-2.98-8.88.43-8.92l.43-.06.43.06c3.39.08 3.39 8.4.37 8.92l-.37.06-.43.06m-.55-9.72l-.55.06c-5.64 1.31-5.26 9.61.55 10.26h1.1c5.83-.68 6.14-9.02.49-10.26l-.49-.06h-1.1zm9.35.25h-1.89v7.45c.29 1.82 1.76 2.6 3.48 2.63h.79c1.47-.05 3.01-.92 3.12-2.5l.06-.24v-7.33h-.86v7.39c-.1 1.19-1.28 1.67-2.32 1.71h-.31c-.82-.02-2.1-.86-2.02-1.77l-.06-.31.01-7.03m9.28 9.83h1.89v-9.16h2.08v-.67h-6.05v.67h2.08v9.16m5.62 0h1.95v-4.76h4.21v4.76H131v-9.83h-1.95v4.34h-4.21v-4.34h-1.95v9.83m10.69 0h6.17v-.61h-4.21v-4.15h3.91v-.61h-3.91v-3.79h4.15v-.67h-6.11v9.83m8.19 0h1.95v-9.35h1.34c1.27.17 2.05.68 2.14 2.02v.43c-.09 1.26-1.38 1.85-2.5 1.83l-.31.06h-.12l2.81 5.01h2.14l-2.75-4.58.24-.06c3.85-.45 2.78-5.27-.49-5.19h-4.46v9.83m9.23 0h.86v-7.82l6.29 7.82h.86v-9.83h-.86v6.78l-5.44-6.78h-1.71v9.83m24.61-7.69l.55-.37-.18-.24-.18-.18c-2.85-3.22-8.67-1.35-8.98 3.12l-.06.54.06.55c.44 4.66 6.92 6.14 9.28 2.57l.24-.31.18-.31-.67-.31-.12.18-.18.24c-2.25 3.14-6.58 1.71-6.72-2.26v-.92c.04-3.99 4.25-5.51 6.47-2.63l.12.18.19.15m4.83.91l1.53 3.6h-3.05l1.52-3.6m.55-3.3h-.06l-4.21 10.08h.92l1.04-2.57h3.54l1.1 2.57h2.02zm5.74 10.08h6.11v-.79h-4.15v-9.04h-1.95v9.83m7.63 0h1.95v-9.83h-1.95zm4.76 0h1.89v-4.76h3.66v-.61h-3.66v-3.79h3.97v-.67h-5.86v9.83m11.85-.36l-.86-.12c-2.97-.65-2.93-8.85.43-8.92l.43-.06.43.06c3.4.13 3.47 8.2.43 8.92l-.86.12m-.55-9.72l-.55.06c-5.6 1.31-5.22 9.62.55 10.26h1.1c5.81-.67 6.2-8.93.55-10.26l-.55-.06h-1.1zm7.45 10.08h1.95v-9.35h1.34c1.26.16 2.05.69 2.14 2.02v.43c-.09 1.26-1.38 1.85-2.5 1.83l-.31.06h-.12l2.81 5.01h2.14l-2.75-4.58.24-.06c3.86-.45 2.77-5.29-.49-5.19h-4.46v9.83m9.24 0h.86v-7.82l6.29 7.82h.86v-9.83h-.86v6.78l-5.44-6.78h-1.71v9.83m10.68 0h1.95v-9.83h-1.95zm7.33-6.78l1.53 3.6h-2.99l1.46-3.6m.55-3.3h-.06l-4.15 10.08h.86l1.04-2.57h3.6l1.04 2.57h2.02zM4.09 79.04l1.4 3.54H2.57l1.52-3.54M0 85.88l.06-.06H2.2l.12.06v-.31h-.37l-.06-.06h-.18v-.06l-.06-.06h-.06v-.06l-.06-.06v-.31h.06v-.18h.06v-.12h.06l.67-1.65h3.3l.67 1.59v.06l.06.06v.12h.06v.12l.06.06v.37l-.06.06h-.06l-.06.06h-.18l-.06.06H5.8v.31l.12-.06h2.75l.12.06v-.31h-.18l-.06-.06h-.06l-.06-.06h-.12l-.06-.06-.06-.06v-.06l-.07-.06c-.13-.16-.26-.34-.31-.55l-.06-.12-3.12-7.45h-.05v-.12H4.4v.12L1.22 84.3l-.06.18-.12.12-.06.18-.06.12-.06.06-.06.12-.07.13-.06.06c-.26.23-.15.27-.43.24l-.12.06H0zm9.77-.31v.31l.06-.06h2.75l.06.06v-.31h-.24l-.06-.06h-.31v-.06h-.06l-.06-.06v-.06h-.06v-.12l-.06-.06v-4.09l.06-.06.24-.12.06-.06.12-.06.12-.06h.06l.12-.06.12-.06h.12l.06-.06.12-.06h.92c.39.22.52.34.73.73v.24l.06.18v3.36l-.06.12v.12l-.06.12-.06.06v.06h-.06l-.06.06h-.24l-.12.06h-.24v.31l.06-.06h2.75l.06.06v-.31h-.24l-.06-.06h-.31v-.06H16l-.06-.06v-.06h-.06v-.18l-.06-.06c0-1.43.09-2.7-.06-4.09l-.06-.18-.06-.18-.12-.18-.06-.18-.12-.12-.12-.18-.12-.06-.18-.12-.18-.06-.12-.06-.24-.06h-.18c-.53.01-.52-.06-1.04.18l-.18.12-.12.06-.18.06-.12.12-.18.12-.12.06-.12.12-.06.12-.12.06-.06.06-.06.12h-.06V79.6h-.43l-.24.12-.06.06-.3.11h-.12l-.12.06-.06.06c-.21-.01-.4.13-.61.12h-.13l-.12.06v.31h.31c.35.02.28-.07.55.12h.06v.06l.06.06v.12l.06.06v4.15l-.06.06v.18h-.06v.06l-.06.06h-.06v.06h-.31l-.06.06h-.25m14.17-6.39l-1.4 5.8v.06l-.06.12v.06l-.06.06v.06h-.06v.06l-.06.06h-.06l-.06.06H22l-.06.06h-.31v.31l.18-.06h6.23l.18.06v-.12l.06-.12v-.24l.06-.06v-.18l.12-.24v-.18c.29-.51-.05-.16.24-.67v-.18l.06-.06h-.31l-.12.24-.12.31c-.27.49-1.27 1.05-1.83.98l-.31.06h-.55l-.31.06h-1.16l-.06-.06h-.18v-.43l.06-.06v-.18l.06-.12v-.24l.06-.06v-.12l.61-2.57h2.26l.06.06h.06v.06h.12v.12l.08.04v.37l-.06.06v.37h.31l.06-.37.06-.24v-.19l.06-.18v-.06l.06-.12v-.12l.06-.06v-.12l.12-.37.06-.31.12-.31h-.37v.06c-.24.74-.51.93-1.34.92h-1.59l.79-3.36v-.07l.06-.06h.06v-.06h.06c1.15.2 3.22-.58 3.18 1.22v.24h.31v-.12c-.04-.52.07-.32.06-.61v-.24l.06-.12v-.18l.06-.12v-.25l.06-.12v-.12h-.18c-1.85.09-3.89.09-5.74 0h-.12v.31h.55l.06.06h.06v.06h.06v.12l.06.06-.06.06v.37l-.06.12v.12l-.06.12v.18l-.06.18v.13m8.68 4.4l1.34-5.68v-.07h.06v-.06l.06-.06h.06l.06-.06h1.34c.81.14.74.12 1.47.49l.24.18.18.18.18.24c.94 1.69.26 4.23-1.1 5.5l-.31.24-.43.31-.37.18-.49.18-.43.18c-.85.11-.81.11-1.53.06h-.31l-.06-.06h-.12l-.06-.06v-.04l-.06-.06v-.61l.06-.06v-.31l.06-.06v-.12l.06-.12v-.18l.1-.13m-1.65 1.4v.06l-.06.12v.12l-.06.06-.06.06-.06.06-.06.06h-.24l-.06.06h-.32v.31l.06-.06h.12c1.65-.03 3.33.15 4.95-.24l1.1-.37c2.62-1 4.08-4.48 2.57-6.78l-.24-.24-.24-.18-.24-.24-.31-.12c-.85-.48-2.81-.41-3.85-.31h-1.72l-.12-.06h-.31v.31h.55l.06.06h.06l.06.06v.06l.06.06v.24l-.06.06v.24l-.06.12v.18l-.06.12v.06l-.06.18v.12zm12.09-1.1l1.28-5.5v-.12l.06-.12v-.06l.06-.06v-.12l.06-.06v-.06h.06l.06-.06.06-.06h.06l.06-.06h.55v-.31h-.31c-.33-.02.1.09-.49.06h-1.84l-.06-.06h-.37v.31h.55l.06.06h.06l.06.06v.06l.06.06v.24l-.06.06v.24l-.06.12v.18l-.06.12v.06l-.06.18v.12l-1.4 5.8V85l-.06.12v.06l-.06.06v.06h-.06v.06l-.06.06h-.06l-.06.06h-.18l-.06.06h-.31v.31l.06-.06h2.87l.12.06v-.31h-.49l-.06-.06h-.12l-.06-.06-.06-.06v-.06l-.06-.06V85l.06-.06v-.31l.06-.06v-.16l.06-.12v-.06l.06-.12v-.18l.08-.07m6.54-6.72h-.49l-.24.06c-1.01.18-1.88 1.07-1.83 2.14l.06.37.12.37c.36 1.19 2.76 2.04 3.12 3.18l.12.31.06.37v.18l-.06.18-.06.12c-.13.37-.15.41-.43.67l-.12.06-.18.12-.12.06-.12.06h-.18l-.18.06h-.18l-.18.06-.24-.06c-1.06-.13-1.56-.93-1.77-1.89l-.06-.24v-.49h-.31v.18c-.17.83-.29 1.82-.55 2.63v.18l.12-.12h.12v-.06h.12l.06-.06h.55l.06.06h.24l.06.06h.12l.06.06h.18l.06.06h.18l.06.06h.18l.06.06h.24l.06.06h.61c1.06-.25 1.31-.18 2.08-1.04l.18-.18.12-.24.06-.24.12-.24v-.31c.47-2.76-4.42-3.26-3.18-5.62l.06-.12.12-.06.06-.12c.43-.21.86-.4 1.34-.37l.24.06.18.06c.63.25.78.53 1.04 1.16l.09.17.06.18v.43h.31v-.24l.06-.12v-.12l.06-.18v-.12l.06-.12v-.18l.12-.24v-.18l.06-.12v-.12l.06-.12v-.15l.06-.12h-.06l-.06.06h-.18l-.06.06h-.49l-.06-.06h-.18v-.06h-.18l-.06-.06h-.12l-.06-.06h-.12l-.12-.06h-.18l-.06-.06h-.69m7.69 8.36l-.24-.06h-.24c-3.53-1.21-1.44-7.38 1.53-7.94l.43-.06.24.06c3.64.57 2.09 7.07-.79 7.82l-.43.12-.5.06m1.16-8.37l-.55.12c-4.44.66-6.41 8.05-1.28 8.73h.43l.61-.06c4.35.17 7.24-7.65 2.14-8.73l-.37-.06h-.98zm12.1 6.66l-3.54-6.54h-.37v.06h-.98l-.06-.06h-.31v.31h.37v.06h.06l.06.06v.06h.06l.06.06.06.12v.06l.06.12-1.59 6.72v.12l-.06.06v.12l-.06.06v.06l-.06.06v.06h-.06l-.06.06-.06.06h-.18l-.12.06h-.12v.31l.06-.06h1.95l.12.06v-.31h-.49l-.06-.06h-.12l-.06-.06h-.06v-.06l-.06-.06v-.37l.06-.06v-.24h.06l1.34-5.99 3.73 6.96.12.12v.12h.06v.06h.06v.06h.12v-.12l1.83-7.57.06-.12v-.12l.06-.06v-.17l.06-.06.06-.06c.19-.2.09-.1.37-.12h.18v-.31h-.48v.06h-.73l-.12-.06h-.73v.31h.55l.06.06h.12v.06l.06.06v.06l.06.06-.06.06v.43h-.06v.12l-1.22 5.32m9.53.06l1.28-5.5v-.12l.06-.12v-.06l.06-.06v-.12l.06-.06.06-.06h.06v-.06c.26-.2.27-.1.61-.12h.12v-.31h-.37l-.12.06h-2.08l-.12-.06h-.37v.31h.61v.06H80c.19.17.1.13.12.43v.06h-.06v.24l-.06.12v.18l-.06.12v.06l-.06.18v.12l-1.4 5.8-.06.06v.18l-.06.06v.06h-.06v.06l-.06.06h-.06l-.06.06h-.18l-.06.06h-.31v.31l.06-.06h2.93l.06.06v-.31h-.49l-.06-.06h-.12v-.06h-.06l-.06-.06v-.67l.06-.06v-.18l.06-.06v-.18l.06-.12v-.18l.07-.06m9.71-.06l-3.54-6.54h-.37v.06h-.98l-.06-.06h-.31v.31h.37v.06h.06l.06.06v.06h.06l.06.06.06.12v.06l.06.12-1.59 6.72v.12l-.06.06v.12l-.06.06v.06l-.06.06v.06h-.06l-.06.06-.06.06h-.18l-.12.06h-.12v.31l.06-.06h1.95l.12.06v-.31h-.49l-.06-.06h-.12l-.06-.06h-.06v-.06l-.06-.06v-.37l.06-.06v-.24l1.4-5.99 3.79 6.96v.06l.06.06v.06l.06.06v.06h.06v.06h.12v-.12h.06l1.77-7.57.06-.12v-.12l.06-.06v-.17l.06-.06.06-.06.06-.06.06-.06h.49v-.31h-.55v.06h-.73l-.12-.06h-.73v.31h.55l.06.06H91v.06l.06.06v.06l.06.06-.06.06v.37l-.06.06v.12l-1.21 5.32m7.14-6.11l-1.77 7.27v.18l-.06.06v.06l-.06.06h-.06v.06l-.06.06h-.06l-.06.06h-.18l-.06.06h-.61v.31l.12-.06h3.18l.12.06v-.31h-.49l-.06-.06h-.18v-.06h-.06v-.06l-.06-.06v-.37l.06-.12v-.24l.06-.12v-.18l.06-.06v-.12l.05-.07v-.18l1.53-6.17h1.22l.12.06h.24l.12.06.12.06.06.06c.23.19.19.27.31.55v.12l.06.18-.06.06v.43l-.06.06v.18h.31v-.18c.12-.21.1-.5.18-.67l.06-.12v-.18l.12-.37.06-.12.06-.18v-.18l.12-.24h-.18c-2.2.1-4.7.1-6.9 0h-.18v.12c-.25.63-.39 1.32-.61 1.95l-.06.18h.31l.12-.24c.34-1.08 1.32-1.68 2.44-1.59h.67m6.36 1.47l-1.4 5.8v.18l-.06.06v.06l-.06.06-.06.06-.06.06-.06.06h-.18l-.12.06h-.31v.31l.24-.06h6.17l.24.06v-.36l.06-.12v-.06l.06-.18v-.12l.06-.12v-.18c.29-.51-.05-.16.24-.67l.06-.18v-.06h-.31l-.12.24c-.54 1.49-2.32 1.32-3.6 1.4h-.67v-.06h-.18l-.06-.06v-.18l.06-.12v-.24l.06-.06v-.18l.06-.06v-.24l.06-.06.61-2.57h2.2l.06.06h.06l.06.06h.06l.06.06v.24l.06.06h-.06v.49h-.06v.12h.31l.06-.37.06-.24.06-.2.06-.18v-.18l.06-.06v-.12l.06-.12v-.18l.06-.18.06-.31.12-.31h-.31l-.06.06v.18l-.06.06-.06.12v.06l-.06.12-.12.12-.12.06-.06.06-.12.06h-.12l-.12.06h-2.08l.86-3.36v-.12h.06v-.06h.06c1.1.15 3.29-.53 3.18 1.22l.06.24h.31v-.06c-.04-.59.1-1.14.18-1.71l.06-.12h-.24c-1.82.09-3.86.09-5.68 0h-.18v.31h.61v.06h.06l.06.06v.06l.06.06v.24l-.06.06v.31l-.06.06v.31l-.06.06v.18l-.07.13m9.22 2.2l.86-3.54v-.06l.06-.06h.06v-.06h.06c3.54-.5 3.01 4.01-.67 3.73h-.37m-2.2 3.59v.18l-.06.06v.06l-.06.06-.06.06-.06.06-.06.06h-.18l-.12.06h-.31v.31l.06-.06h2.93l.12.06v-.31h-.49l-.06-.06h-.12l-.06-.06h-.06v-.06l-.06-.06v-.49l.06-.12v-.12l.06-.12v-.18l.06-.06v-.18l.06-.12v-.06l.55-2.26h.55l.06.06h.12v.06h.12v.06l.06.06v.06h.06v.06l.06.06v.06l1.89 3.79.06-.06h1.89l.06.06v-.31h-.31l-.12-.06h-.12l-.06-.06h-.12l-.06-.06-.12-.06-.06-.06-.06-.06-.06-.06-.06-.06v-.12l-.06-.06-.06-.06-.06-.12v-.06l-1.28-2.63h-.06v-.13h-.06v-.12h-.06v-.06l-.12-.12v-.06h-.06v-.06h.24l.24-.06c2.96-.39 3.34-4.16.18-4.15h-.49c-.74-.05-1.15.09-1.83.06h-1.16l-.06-.06h-.37v.31h.61l.06.06h.06v.06l.06.06v.49l-.06.06v.18l-.06.06v.24l-.06.06v.18l-.06.12zm15.27-1.16l-3.54-6.54h-.37v.06h-.98l-.06-.06h-.31v.31h.37v.06h.06l.06.06v.06h.06l.06.06.06.12v.06l.06.12-1.59 6.72v.12l-.06.06v.12l-.06.06v.06l-.06.06v.06h-.06l-.06.06-.12.06h-.12l-.12.06h-.12v.31l.06-.06h1.95l.12.06v-.31h-.49l-.06-.06h-.12l-.06-.06h-.06v-.06l-.06-.06v-.37l.06-.06v-.24l1.4-5.99 3.79 6.96v.06l.06.06v.06l.06.06v.06h.06v.06h.12v-.12l1.83-7.57.06-.12v-.12l.06-.06v-.17l.06-.06.06-.06c.19-.2.09-.1.37-.12h.18v-.31h-.12c-.61-.03-.2.09-.73.06h-.43l-.06-.06h-.73v.31h.55l.06.06h.06l.06.06.06.06v.49l-.06.06v.18l-1.21 5.32m7.82-4.83l.43 3.6h-2.87l2.38-3.6h.06m.98-1.4v-.18h-.06v-.31l-.06-.06h-.12l-.12.12v.06h-.06v.06l-.12.12v.12l-.06.06-.06.12-4.95 7.33-.12.12-.06.06v.06h-.06l-.06.06v.06h-.06l-.06.06h-.06l-.06.06h-.12l-.06.06h-.18v.31l.06-.06h1.95l.12.06v-.31h-.49l-.06-.06h-.06l-.06-.06h-.06v-.31h.06v-.06l.06-.06v-.06l.06-.06.06-.12v-.06l.06-.06.06-.12.12-.12.06-.12.06-.06.92-1.34h3.05l.18 1.77v.06h.06v.61h-.06v.12h-.06l-.06.06h-.12l-.06.06h-.37v.31l.06-.06h2.75l.12.06v-.31h-.31l-.06-.06h-.24l-.06-.06-.06-.06-.06-.06-.06-.06v-.05l-.06-.06v-.12zm7.26.12l-1.77 7.27-.06.06v.18l-.06.07v.06h-.06l-.06.06v.06h-.06l-.06.06h-.18l-.06.06h-.61v.31l.12-.06h3.12l.12.06v-.31h-.49l-.06-.06h-.12l-.06-.06-.06-.06v-.06h-.06v-.24l.06-.06v-.24l.06-.12v-.18l.06-.06v-.18l.06-.12v-.18l.06-.06 1.47-6.17h1.22l.18.06h.24l.06.06.12.06.12.06.06.06.06.12.06.06.06.12v.18l.06.12v.43l-.06.06v.31h-.06v.12h.31v-.12l.06-.06v-.18l.06-.18v-.12l.06-.18.06-.12.06-.18v-.18l.06-.18.06-.12.06-.18.06-.18v-.12l.06-.12h-.12c-2.2.09-4.7.1-6.9 0h-.18l-.06.12v.12c-.29.51.05.16-.24.67v.18l-.12.24v.18l-.07.08-.06.12-.06.18v.12l-.06.18h.31l.06-.24c.41-1.06 1.35-1.69 2.5-1.59l.67.01m6.54 6.17l1.28-5.5v-.12l.06-.12v-.06l.06-.06v-.12l.06-.06v-.06h.06l.06-.06.06-.06h.06l.06-.06h.49v-.31h-.24c-.33-.02.1.09-.49.06h-1.84l-.06-.06h-.37v.31h.55l.06.06h.06l.06.06v.06l.06.06v.24l-.06.06v.24l-.06.12v.18l-.06.12v.06l-.06.18v.12l-1.4 5.8V85l-.06.12v.06l-.06.06v.06h-.06v.06l-.06.06h-.06v.06h-.24l-.06.06h-.37v.31l.12-.06h2.87l.12.06v-.31h-.49l-.06-.06h-.12l-.06-.06-.06-.06v-.06l-.06-.06V85l.06-.06v-.31l.06-.06v-.16l.06-.12v-.06l.06-.12v-.18l.07-.07m6.96 1.65l-.24-.06h-.24c-3.55-1.18-1.41-7.41 1.53-7.94l.43-.06.24.06c3.63.5 2.04 7.21-.79 7.82l-.43.12-.5.06m1.16-8.37l-.55.12c-4.5.66-6.39 8.09-1.28 8.73h.43l.61-.06c4.39.14 7.23-7.65 2.14-8.73l-.37-.06h-.98zm12.1 6.66l-3.54-6.54h-.37v.06h-.98l-.06-.06h-.31v.31h.37v.06h.06l.06.06v.06h.06l.06.06.06.12v.06l.06.12-1.59 6.72v.12l-.06.06v.06l-.06.06v.12l-.06.06-.06.06h-.06l-.06.06-.06.06h-.18l-.06.06h-.12v.31l.06-.06h1.95l.12.06v-.31h-.49l-.06-.06h-.12l-.06-.06-.06-.06-.06-.06v-.37l.06-.06v-.24h.06l1.34-5.99 3.73 6.96.06.06v.06l.06.06v.06h.06v.06h.06v.06h.06l.06-.06v-.06l1.83-7.57v-.12l.06-.12v-.06l.06-.06v-.11l.06-.06c.24-.22.08-.18.43-.18h.24v-.31h-.55l-.06.06h-.73l-.06-.06h-.73v.31h.55l.06.06h.06l.06.06.06.06v.49l-.06.06v.18l-1.21 5.32m7.82-4.83l.37 3.6h-2.81l2.38-3.6h.06m.97-1.4v-.18h-.06v-.31h-.06v-.06h-.18v.06l-.06.06v.06h-.06v.06l-.12.12v.12l-.06.06-.06.12-4.95 7.33-.12.12v.06l-.06.06h-.06v.06l-.06.06h-.06l-.06.06h-.06l-.06.06h-.12l-.06.06h-.18v.31l.06-.06h1.95l.12.06v-.31h-.49l-.06-.06h-.06l-.06-.06h-.06v-.31h.06v-.06l.06-.06v-.06l.06-.06.06-.12v-.06l.06-.06.06-.12.12-.12.06-.12.06-.06.86-1.34h3.12l.18 1.77v.06h.06v.61h-.06v.12h-.06l-.06.06h-.12l-.06.06h-.37v.31l.06-.06h2.75l.12.06v-.31h-.31l-.06-.06h-.24l-.06-.06-.12-.06v-.06l-.06-.06-.06-.06v-.18zm5.5 6.6l1.4-5.8v-.12l.06-.12v-.06l.06-.06v-.12l.06-.06v-.06h.06l.06-.06.06-.06h.06l.06-.06h.67v-.31h-.37c-.31-.02-.04.09-.55.06h-1.84l-.12-.06h-.37v.31h.61l.06.06h.09v.06h.06v.12l.06.06h-.06v.43l-.06.04v.18l-.06.12v.12l-.06.06v.31l-1.4 5.8-.06.06v.18l-.06.06v.06h-.06l-.06.06v.06h-.06l-.06.06h-.18l-.06.06h-.61v.31l.18-.06h6.05l.12.06.12-.18.06-.12c.08-.25.23-.54.31-.79l.06-.12.12-.12c.08-.25.21-.49.31-.73l.06-.12.12-.18h-.31l-.18.31c-1.09 1.57-1.86 1.52-3.54 1.65h-.79v-.06h-.18v-.06h-.06v-.13l.06-.06v-.24l.06-.12v-.18l.06-.06v-.24l.06-.06v-.08m16.72-3.97h.31v-.19l-.06-.12c.02-.55-.1-.85-.06-1.47v-.98h-.06l-.06.06h-.79l-.06-.06h-.18l-.06-.06h-.18l-.06-.06h-.18l-.12-.06h-.18l-.06-.06h-.18l-.06-.06h-1.16l-.43.06-.43.12-.37.12c-6.06 3.45-.31 12.22 4.83 6.96l.18-.24.12-.18-.31-.12-.12.12-.06.12c-2.33 2.43-5.54.81-5.8-2.38v-.98c.04-3.44 4.38-4.55 5.5-1.1l.06.24.03.32m5.43 5.19h-.31l-.31-.06c-2.13-.71-2.64-5.18.06-5.37h.37l.24.06c1.15.37 1.55 1.65 1.59 2.75l.06.31-.06.37c.1.68-.48 1.9-1.28 1.89l-.18.06-.18-.01m-3.48-2.14l.06.37c.7 3.4 5.92 3.08 6.17-.49l.06-.37-.06-.43v-.37c-.31-1.43-1.42-2.27-2.81-2.38h-.61c-1.21.1-2.47.97-2.69 2.2l-.12.31v.37l-.06.37zm7.57 2.32v.31l.06-.06h2.75l.06.06v-.31h-.24l-.06-.06h-.31v-.06h-.06l-.06-.06v-.06h-.06v-.12l-.06-.06v-4.09l.18-.18.06-.06.06-.06.12-.06c.37-.3.51-.26.86-.43h.43l.18.06h.12l.18.06.06.12.12.06.06.06.12.12v.12l.06.12v.06l.06.12v3.97l-.06.06v.12h-.06v.06l-.06.06h-.06v.06h-.31l-.06.06h-.24v.31l.06-.06h2.69l.12.06v-.31h-.24l-.12-.06h-.24l-.06-.06h-.06v-.06l-.06-.06-.06-.12v-4.21l.12-.12.12-.06.06-.06c.44-.33.55-.3.98-.49h.43l.18.06h.12l.12.06.12.12.12.06.06.06.12.24v.12l.06.06v.43l.06.06v3.24l-.06.12v.31l-.06.12-.06.06v.06h-.06l-.06.06h-.24l-.12.06h-.18v.31l.06-.06h2.69l.06.06v-.31h-.24l-.06-.06h-.24l-.06-.06h-.06l-.06-.06v-.06h-.06v-.11l-.06-.06v-.06c-.01-1.41.16-2.86-.06-4.21l-.06-.12v-.18c-.15-.27-.31-.6-.61-.73l-.18-.06-.18-.12-.18-.06h-.18c-.4.04-.6-.09-.92.12l-.18.06-.12.06c-.42.18-.47.28-.79.49l-.24.24-.18.12v-.12l-.06-.12-.06-.12c-.1-.18-.27-.29-.43-.43l-.24-.12-.18-.06-.24-.12h-.73c-.42.13-.2-.01-.67.24l-.12.06-.18.06-.12.12-.12.06-.24.24-.12.06-.24.24v-1.1h-.31c-.37.21-1.3.57-1.71.55l-.12.06v.31h.67l.12.06h.06v.06l.06.06.06.06v.06l.06.06v4.28l-.13.06v.12l-.06.06-.06.06-.06.06h-.31l-.06.06h-.25m13.87-1.1v-3.3l.12-.06.06-.12.06-.06.12-.06.06-.06.06-.06.12-.06.06-.06.12-.06h.06l.24-.12h.67c.8 0 1.4.82 1.59 1.53v.24l.06.24v.31l.06.24-.06.18v.24l-.06.18v.24l-.12.18-.12.37-.12.18-.43.43-.18.12-.18.06-.18.06-.24.06h-.43l-.12-.06h-.24l-.06-.06-.12-.06-.06-.06-.12-.06-.06-.06h-.12l-.06-.12-.38-.36m-2.14 4.16h.79l.06-.06H223l.12.06h.79v-.31h-.61l-.12-.06-.06-.06h-.06l-.12-.12v-.12l-.06-.06v-.19l-.06-.06v-2.5h.06l.06.06c1.77 1.68 4.35-.13 4.34-2.57l.06-.37-.06-.24c-.07-2.37-2.92-3.35-4.28-1.47l-.12.12-.06.12v-1.22h-.31c-.39.21-1.29.54-1.71.55l-.12.06v.31h.49c.17-.03.32.06.43.18v.06l.06.06v.06l.06.06v6.78l-.06.12v.06l-.06.06v.12l-.12.12h-.06l-.06.06-.12.06h-.55v.33zm11.91-6.36v2.32h-.06l-.12.06-.06.06-.12.06-.06.06-.12.06h-.06l-.12.06-.06.06h-.12l-.12.06h-.06l-.12.06c-.28-.01-.58.04-.79-.12l-.12-.06h-.06l-.06-.12-.06-.06c-.28-.31-.21-.85-.06-1.22l.12-.12.12-.18c.54-.42 1.12-.67 1.77-.86l.18-.06.16-.06m0-.24l-.49.06c-5.69.66-3 6.17.37 2.87l.12-.12v.55l.06.06v.18l.12.12c-.02.17.21.18.31.24h.43l.12-.06.06-.06h.12l.06-.06.12-.06.12-.12.12-.06.12-.12.06-.06.06-.06.12-.06-.18-.18h-.06v.06h-.06v.06h-.06l-.06.06h-.12v.06h-.24v-.06h-.06v-.12h-.06V81l-.06-.18-.06-.18-.06-.18-.12-.18-.06-.12c-.61-.44-.62-.44-1.34-.55h-.73c-1.02 0-2.11.61-2.02 1.77v.12h.06v.06l.12.12h.18l.06.06h.37l.06-.06h.12l.12-.12v-.18l.06-.06v-.61l.06-.12v-.12l.06-.06.06-.12h.06l.06-.06c.47-.31.56-.24 1.1-.24l.06.06h.12c.59.21.42.26.61.79v1.19zm3.12 3.54v.31l.06-.06h2.75l.06.06v-.31h-.24l-.06-.06h-.31v-.06h-.06l-.06-.06v-.06h-.06v-.12l-.06-.06v-4.09l.06-.06.24-.12.06-.06.12-.06.12-.06h.06l.12-.06.12-.06h.12l.06-.06.12-.06h.92c.49.24.45.29.73.73v.24l.06.18v3.36l-.06.12v.12l-.06.12-.06.06v.06h-.06l-.06.06h-.24l-.06.06h-.24v.31l.06-.06h2.69l.06.06v-.31h-.24l-.06-.06h-.24l-.06-.06h-.06l-.06-.06v-.06h-.06v-.18l-.08-.07c0-1.43.09-2.7-.06-4.09l-.06-.18-.06-.18-.12-.18-.06-.18-.12-.12-.12-.18-.12-.06-.18-.12-.18-.06-.12-.06-.18-.06h-.24c-.71 0-.4-.06-1.04.18l-.18.12-.12.06-.18.06-.24.24-.18.06-.12.12-.06.12-.12.06-.12.06-.06.12v-1.22h-.43c-.2.1-.39.28-.61.31l-.24.12c-.21-.01-.4.13-.61.12h-.12l-.12.06v.31h.67l.12.06h.06v.06h.06l.06.06v.06l.06.12v4.28l-.06.06v.12l-.06.06-.06.06-.06.06h-.31l-.06.06h-.29m8.79-4.46l2.08 4.58-.49 1.22c-.03.12-.4.81-.49.92v.06l-.12.06v.06l-.06.06h-.12v.06h-.18l-.06-.06H245v-.06h-.06v-.06l-.06-.06v-.55h-.06v-.06l-.07-.06v-.06h-.06l-.06-.06h-.12l-.06-.06h-.24l-.06.06h-.12l-.18.18v.06l-.06.06v.61l.06.06v.12l.06.06.06.06.06.06.06.06.06.06.06.06h.12l.06.06h.24c.57.04.37-.07.73-.06l.12-.06.24-.24.18-.12.12-.12.12-.18.37-.73.12-.37.18-.31.12-.37 1.83-5.25.06-.12.06-.12v-.06l.06-.12.06-.06v-.06l.18-.18h.12v-.07h.24v-.3h-.06l-.06.06h-.67l-.06.06-.06-.06h-.86l-.06-.06h-.06v.31h.31l.06.06h.12l.06.06h.06l.06.06v.43h-.06v.18l-.06.06v.12l-1.1 3.3h-.06l-1.22-2.93-.06-.18-.06-.06V81l-.06-.06-.06-.12v-.12l-.06-.06v-.12h-.06v-.31h.06v-.06h.06l.06-.06h.18l.06-.06h.31v-.32h-.06l-.12.06h-1.04l-.12.06-.06-.06h-1.1l-.12-.06h-.06v.31h.24l.06.06h.06l.06.06h.06l.06.06v.06c.12.14.22.31.31.49l.14.36" fill="#707372"/></svg>