<svg xmlns="http://www.w3.org/2000/svg" height="400" width="1000" viewBox="-26.36229 -7.6166 228.47318 45.6996"><path fill="#006BAE" clip-rule="evenodd" fill-rule="evenodd" d="M7.019.291l.072-.073H3.835L0 8.424h3.256l1.953-4.212 2.822 4.212h2.967L14.833.218h-3.256L9.695 4.284z"/><path fill="#006BAE" clip-rule="evenodd" fill-rule="evenodd" d="M7.019.145l2.676 4.139L11.649.145h3.184l-3.835 8.279H8.031L5.209 4.212 3.256 8.424H0L3.835.145zm158.599 0l2.75 4.139 1.881-4.139h3.256l-3.835 8.279h-3.038l-2.75-4.212-2.026 4.212h-3.183l3.834-8.279zM99.993 8.133c-.651.145-1.013.218-1.736.291-.796.073-1.302.073-1.953.073s-1.158-.073-1.664-.146c-.507-.146-.94-.291-1.303-.508-.651-.436-1.013-.944-1.158-1.525-.217-.654-.072-1.307.218-2.106.289-.581.65-1.162 1.157-1.67.435-.508 1.086-.944 1.736-1.38.724-.363 1.52-.654 2.243-.871C98.329.072 99.125 0 99.993 0c.651 0 1.23.072 1.809.145.507.146 1.086.291 1.593.508l-.869 1.961c-.434-.218-.868-.363-1.302-.509-.435-.072-.868-.145-1.375-.145-.868 0-1.664.218-2.388.581-.724.436-1.23 1.017-1.52 1.67-.29.653-.289 1.234 0 1.598.362.436.868.653 1.592.653.145 0 .29 0 .435-.073.145 0 .145 0 .289-.072l.507-.944h-1.303l.94-1.67h3.69zM81.109 1.67h.724c.506 0 .868.073 1.085.291.145.145.145.436-.072.799-.145.436-.434.726-.796.872-.289.218-.795.291-1.375.291h-.651zm-3.111 6.754l1.375-2.978h1.085c1.447 0 2.604-.218 3.545-.654.941-.508 1.665-1.162 2.026-2.033.435-.871.362-1.525-.145-1.961-.579-.436-1.52-.653-2.966-.653h-4.486l-3.835 8.279zM49.49.145l-1.447 3.05h3.618l1.447-3.05h3.545l-3.979 8.279h-3.546l1.448-3.05H47.03l-1.519 3.05h-3.473L46.017.145zM35.236 2.251L36.25.145h9.333l-1.085 2.106h-2.967l-3.038 6.173h-3.257l2.967-6.173zm-17.075.653c.506-.29 1.085-.508 1.664-.508s.94.218 1.23.508c.217.363.217.799 0 1.38-.217.508-.651.944-1.158 1.307-.506.364-1.085.509-1.664.509s-.94-.146-1.23-.509c-.217-.363-.217-.799 0-1.307.217-.58.652-1.016 1.158-1.38zm-4.848 3.051c0 .508.217.944.579 1.38.362.436.796.726 1.375.944.506.146 1.158.291 1.953.291.724 0 1.52-.145 2.243-.291.723-.218 1.447-.508 2.098-.944.724-.436 1.303-.872 1.736-1.38.507-.508.869-1.089 1.158-1.67.217-.653.362-1.234.29-1.743 0-.508-.217-.944-.579-1.38-.29-.363-.796-.654-1.302-.871C22.285.072 21.634 0 20.838 0c-.724 0-1.52.072-2.243.291-.724.217-1.447.508-2.098.871-.724.436-1.303.872-1.809 1.38-.434.508-.796 1.089-1.085 1.743-.217.581-.362 1.161-.29 1.67zM69.75 2.904c.506-.29 1.085-.508 1.664-.508s.94.218 1.158.508c.29.363.29.799.072 1.38-.29.508-.651.944-1.158 1.307-.507.364-1.086.509-1.664.509-.579 0-1.013-.146-1.23-.509-.217-.363-.217-.799 0-1.307.217-.58.578-1.016 1.158-1.38zm-4.849 3.051c0 .508.217.944.579 1.38.29.436.796.726 1.302.944.579.146 1.23.291 2.026.291.723 0 1.447-.145 2.243-.291.724-.218 1.447-.508 2.098-.944.724-.436 1.302-.872 1.737-1.38.506-.508.868-1.089 1.158-1.67.217-.653.362-1.234.289-1.743 0-.508-.217-.944-.579-1.38-.362-.363-.796-.654-1.375-.871C73.874.072 73.15 0 72.426 0c-.795 0-1.519.072-2.243.291-.724.217-1.447.508-2.099.871-.723.436-1.302.872-1.809 1.38-.434.508-.796 1.089-1.085 1.743-.289.581-.361 1.161-.289 1.67zm49.781-5.81h3.4l-2.025 4.43c-.29.581-.362 1.017-.146 1.307.146.291.507.436 1.158.436.578 0 1.085-.146 1.519-.436.435-.291.797-.726 1.014-1.307l2.025-4.43h3.4l-2.025 4.502c-.579 1.307-1.52 2.251-2.677 2.905-1.158.653-2.605 1.017-4.342 1.017-1.664 0-2.821-.363-3.4-1.017-.579-.654-.579-1.598 0-2.905zm40.663 2.179l-.072 3.123h-2.822zm-5.645 6.1l1.303-1.453h4.27v1.453h3.256l-.435-8.279h-3.473l-8.249 8.279zM34.73.726C34.151.29 33.138.145 31.619.145h-4.63l-3.835 8.279h3.4l1.665-3.486h.94c.868.073 1.158 1.089 1.158 2.76v.726h3.256l-.145-2.614c0-.291-.072-.727-.217-.944-.072-.146-.29-.291-.434-.363.579-.218.868-.436 1.302-.799.362-.291.651-.726.869-1.162.361-.799.288-1.38-.218-1.816zm-2.966 1.961c-.073.291-.434.581-.796.726-.29.145-1.013.291-1.664.291h-.651l1.085-2.251h.651c.579 0 1.013.146 1.23.291.145.144.289.507.145.943z"/><path d="M65.336.726C64.757.29 63.744.145 62.225.145h-4.558L53.76 8.424h3.4l1.664-3.486h.941c.868.073 1.23 1.089 1.23 2.76 0 .145-.072.436-.072.726h3.256l-.073-2.614c-.073-.291-.145-.727-.29-.944-.072-.146-.217-.291-.434-.363.579-.218.94-.436 1.302-.799.362-.291.651-.726.868-1.162.363-.799.29-1.38-.216-1.816zm-2.967 1.961c-.072.291-.434.581-.796.726-.289.145-1.013.291-1.592.291h-.723l1.085-2.251h.651c.579 0 1.085.146 1.23.291.218.144.29.507.145.943zM112.511.726c-.507-.436-1.52-.581-3.111-.581h-4.559l-3.907 8.279h3.474l1.664-3.486h.94c.868.073 1.157 1.089 1.157 2.76v.726h3.257l-.146-2.614c0-.291-.145-.727-.217-.944-.072-.146-.289-.291-.434-.363.578-.218.868-.436 1.229-.799.435-.291.724-.726.868-1.162.436-.799.364-1.38-.215-1.816zm-2.895 1.961c-.072.291-.506.581-.796.726-.289.145-1.013.291-1.664.291h-.65l1.085-2.251h.651c.578 0 1.013.146 1.229.291.145.144.291.507.145.943zM129.08.145l1.085 3.268 3.98-3.268h3.183l-3.835 8.279h-3.256l2.171-4.72-4.052 3.34-1.013-3.195-2.098 4.575h-3.183l3.834-8.279zm12.444 0l1.014 3.268 3.979-3.268h3.256l-3.835 8.279h-3.328l2.244-4.72-4.053 3.34-1.013-3.195-2.171 4.575h-3.183l3.907-8.279z" fill="#006BAE" clip-rule="evenodd" fill-rule="evenodd"/><path d="M17.654 30.355c31.619-22.367 126.837-19.1 158.094-19.245" stroke-miterlimit="2.6131" stroke-width=".273" stroke="#006BAE" fill="none"/></svg>