<svg xmlns="http://www.w3.org/2000/svg" height="800" width="1200" viewBox="-44.26425 -57.1955 383.6235 343.173"><defs><clipPath clipPathUnits="userSpaceOnUse" id="a"><path d="M507.84 62.923h85.385v66.198H507.84z"/></clipPath></defs><g transform="matrix(3.45606 0 0 -3.45606 -1755.127 446.248)" clip-path="url(#a)"><path d="M578.954 62.922h-56.842c-7.85 0-14.272 6.422-14.272 14.271v37.656c0 7.85 6.422 14.271 14.272 14.271h56.842c7.85 0 14.27-6.422 14.27-14.27V77.192c0-7.849-6.42-14.27-14.27-14.27" fill="#0272a6"/><path d="M550.558 92.684c-3.743 0-6.154 1.751-6.154 1.751v20.183c0 1.683 1.992 2.84 3.695 3.052 1.825.227 10.233 1.495 10.233-11.734 0-11.922-5.667-13.252-7.774-13.252m-27.513 1.247c-2.48 0-3.505 1.078-3.505 1.078v12.167c0 1.037.748 1.75 1.876 1.88 1.209.14 6.704 1.017 6.704-7.13 0-7.628-3.355-7.995-5.075-7.995m56.518 13.624c3.412 1.01 6.882-.035 9.636-2.32v7.334c-8.901 1.411-13.565.451-17.125-1.758-2.887-1.845-4.113-4.362-4.113-4.362s-.064-.134-.17-.374c-.467 18.563-11.825 16.946-25.38 16.942h-7.634v-15.996c-2.252 6.621-9.208 5.91-16.652 5.91l-6.26-.002V79.09h10.253c-1.71.593-2.578 2.077-2.578 4.231v9.297l2.958-2.957c1.304-.319 2.445-.284 2.445-.284 2.83.156 7.919 1.253 9.834 6.99v-27.38h12.198c-1.705.593-2.571 2.048-2.571 4.196v18.385l4.624-4.607c1.493-.536 2.592-.625 3.852-.568 3.559.223 9.65 1.726 12.84 8.16.263-6.048 2.244-12.115 8.379-14.499 2.7-1.104 5.77-1.41 8.963-1.166 2.086.062 4.11.247 6.137.613v16.577l-9.343-.002c1.71-.595 2.578-2.002 2.578-4.156v-7.55c-2.13-.666-5.01-.009-6.616 2.068-2.028 2.623-2.395 10.006-1.534 15.042.49 2.516 2.645 5.298 5.279 6.076" fill="#fff"/></g></svg>