<svg width="109" height="134" viewBox="0 0 109 134" fill="none" xmlns="http://www.w3.org/2000/svg">
<path d="M106.941 41.6904V39.6904H104.941H4.94141H2.94141V41.6904V116.69C2.94141 124.67 9.46184 131.19 17.4414 131.19H92.4414C100.421 131.19 106.941 124.67 106.941 116.69V41.6904Z" fill="#FF38C7" stroke="black" stroke-width="4"/>
<path d="M2.94141 44.8154V46.8154H4.94141H104.941H106.941V44.8154V16.6904C106.941 8.71086 100.421 2.19043 92.4414 2.19043H17.4414C9.46184 2.19043 2.94141 8.71086 2.94141 16.6904V44.8154Z" fill="#0A234E" stroke="black" stroke-width="4"/>
<path d="M92.4414 34.4404H17.4414C16.7312 34.4404 16.217 34.208 15.8829 33.8739C15.5488 33.5399 15.3164 33.0257 15.3164 32.3154V16.6904C15.3164 15.9802 15.5488 15.466 15.8829 15.1319C16.217 14.7978 16.7312 14.5654 17.4414 14.5654H92.4414C93.1517 14.5654 93.6658 14.7978 93.9999 15.1319C94.334 15.466 94.5664 15.9802 94.5664 16.6904V32.3154C94.5664 33.0257 94.334 33.5399 93.9999 33.8739C93.6658 34.208 93.1517 34.4404 92.4414 34.4404Z" fill="#FFE9B1" stroke="black" stroke-width="2"/>
<path d="M83.0664 21.9404H82.0664V22.9404V29.1904V30.1904H83.0664H89.3164H90.3164V29.1904V22.9404V21.9404H89.3164H83.0664ZM70.5664 21.9404H69.5664V22.9404V29.1904V30.1904H70.5664H76.8164H77.8164V29.1904V22.9404V21.9404H76.8164H70.5664Z" fill="#33691E" stroke="black" stroke-width="2"/>
<path d="M92.4414 65.5654H83.0664C82.3562 65.5654 81.842 65.333 81.5079 64.9989C81.1738 64.6649 80.9414 64.1507 80.9414 63.4404V57.1904C80.9414 56.4802 81.1738 55.966 81.5079 55.6319C81.842 55.2978 82.3562 55.0654 83.0664 55.0654H92.4414C93.1517 55.0654 93.6658 55.2978 93.9999 55.6319C94.334 55.966 94.5664 56.4802 94.5664 57.1904V63.4404C94.5664 64.1507 94.334 64.6649 93.9999 64.9989C93.6658 65.333 93.1517 65.5654 92.4414 65.5654Z" fill="#92DEFF" stroke="black" stroke-width="2"/>
<path d="M26.8164 65.5654H17.4414C16.7312 65.5654 16.217 65.333 15.8829 64.9989C15.5488 64.6649 15.3164 64.1507 15.3164 63.4404V57.1904C15.3164 56.4802 15.5488 55.966 15.8829 55.6319C16.217 55.2978 16.7312 55.0654 17.4414 55.0654H26.8164C27.5267 55.0654 28.0408 55.2978 28.3749 55.6319C28.709 55.966 28.9414 56.4802 28.9414 57.1904V63.4404C28.9414 64.1507 28.709 64.6649 28.3749 64.9989C28.0408 65.333 27.5267 65.5654 26.8164 65.5654ZM48.6914 65.5654H39.3164C38.6062 65.5654 38.092 65.333 37.7579 64.9989C37.4238 64.6649 37.1914 64.1507 37.1914 63.4404V57.1904C37.1914 56.4802 37.4238 55.966 37.7579 55.6319C38.092 55.2978 38.6062 55.0654 39.3164 55.0654H48.6914C49.4017 55.0654 49.9158 55.2978 50.2499 55.6319C50.584 55.966 50.8164 56.4802 50.8164 57.1904V63.4404C50.8164 64.1507 50.584 64.6649 50.2499 64.9989C49.9158 65.333 49.4017 65.5654 48.6914 65.5654ZM70.5664 65.5654H61.1914C60.4812 65.5654 59.967 65.333 59.6329 64.9989C59.2988 64.6649 59.0664 64.1507 59.0664 63.4404V57.1904C59.0664 56.4802 59.2988 55.966 59.6329 55.6319C59.967 55.2978 60.4812 55.0654 61.1914 55.0654H70.5664C71.2767 55.0654 71.7908 55.2978 72.1249 55.6319C72.459 55.966 72.6914 56.4802 72.6914 57.1904V63.4404C72.6914 64.1507 72.459 64.6649 72.1249 64.9989C71.7908 65.333 71.2767 65.5654 70.5664 65.5654ZM26.8164 84.3154H17.4414C16.7312 84.3154 16.217 84.083 15.8829 83.7489C15.5488 83.4149 15.3164 82.9007 15.3164 82.1904V75.9404C15.3164 75.2302 15.5488 74.716 15.8829 74.3819C16.217 74.0478 16.7312 73.8154 17.4414 73.8154H26.8164C27.5267 73.8154 28.0408 74.0478 28.3749 74.3819C28.709 74.716 28.9414 75.2302 28.9414 75.9404V82.1904C28.9414 82.9007 28.709 83.4149 28.3749 83.7489C28.0408 84.083 27.5267 84.3154 26.8164 84.3154ZM48.6914 84.3154H39.3164C38.6062 84.3154 38.092 84.083 37.7579 83.7489C37.4238 83.4149 37.1914 82.9007 37.1914 82.1904V75.9404C37.1914 75.2302 37.4238 74.716 37.7579 74.3819C38.092 74.0478 38.6062 73.8154 39.3164 73.8154H48.6914C49.4017 73.8154 49.9158 74.0478 50.2499 74.3819C50.584 74.716 50.8164 75.2302 50.8164 75.9404V82.1904C50.8164 82.9007 50.584 83.4149 50.2499 83.7489C49.9158 84.083 49.4017 84.3154 48.6914 84.3154ZM70.5664 84.3154H61.1914C60.4812 84.3154 59.967 84.083 59.6329 83.7489C59.2988 83.4149 59.0664 82.9007 59.0664 82.1904V75.9404C59.0664 75.2302 59.2988 74.716 59.6329 74.3819C59.967 74.0478 60.4812 73.8154 61.1914 73.8154H70.5664C71.2767 73.8154 71.7908 74.0478 72.1249 74.3819C72.459 74.716 72.6914 75.2302 72.6914 75.9404V82.1904C72.6914 82.9007 72.459 83.4149 72.1249 83.7489C71.7908 84.083 71.2767 84.3154 70.5664 84.3154ZM26.8164 103.065H17.4414C16.7312 103.065 16.217 102.833 15.8829 102.499C15.5488 102.165 15.3164 101.651 15.3164 100.94V94.6904C15.3164 93.9802 15.5488 93.466 15.8829 93.1319C16.217 92.7978 16.7312 92.5654 17.4414 92.5654H26.8164C27.5267 92.5654 28.0408 92.7978 28.3749 93.1319C28.709 93.466 28.9414 93.9802 28.9414 94.6904V100.94C28.9414 101.651 28.709 102.165 28.3749 102.499C28.0408 102.833 27.5267 103.065 26.8164 103.065ZM48.6914 103.065H39.3164C38.6062 103.065 38.092 102.833 37.7579 102.499C37.4238 102.165 37.1914 101.651 37.1914 100.94V94.6904C37.1914 93.9802 37.4238 93.466 37.7579 93.1319C38.092 92.7978 38.6062 92.5654 39.3164 92.5654H48.6914C49.4017 92.5654 49.9158 92.7978 50.2499 93.1319C50.584 93.466 50.8164 93.9802 50.8164 94.6904V100.94C50.8164 101.651 50.584 102.165 50.2499 102.499C49.9158 102.833 49.4017 103.065 48.6914 103.065ZM70.5664 103.065H61.1914C60.4812 103.065 59.967 102.833 59.6329 102.499C59.2988 102.165 59.0664 101.651 59.0664 100.94V94.6904C59.0664 93.9802 59.2988 93.466 59.6329 93.1319C59.967 92.7978 60.4812 92.5654 61.1914 92.5654H70.5664C71.2767 92.5654 71.7908 92.7978 72.1249 93.1319C72.459 93.466 72.6914 93.9802 72.6914 94.6904V100.94C72.6914 101.651 72.459 102.165 72.1249 102.499C71.7908 102.833 71.2767 103.065 70.5664 103.065ZM26.8164 121.815H17.4414C16.7312 121.815 16.217 121.583 15.8829 121.249C15.5488 120.915 15.3164 120.401 15.3164 119.69V113.44C15.3164 112.73 15.5488 112.216 15.8829 111.882C16.217 111.548 16.7312 111.315 17.4414 111.315H26.8164C27.5267 111.315 28.0408 111.548 28.3749 111.882C28.709 112.216 28.9414 112.73 28.9414 113.44V119.69C28.9414 120.401 28.709 120.915 28.3749 121.249C28.0408 121.583 27.5267 121.815 26.8164 121.815ZM48.6914 121.815H39.3164C38.6062 121.815 38.092 121.583 37.7579 121.249C37.4238 120.915 37.1914 120.401 37.1914 119.69V113.44C37.1914 112.73 37.4238 112.216 37.7579 111.882C38.092 111.548 38.6062 111.315 39.3164 111.315H48.6914C49.4017 111.315 49.9158 111.548 50.2499 111.882C50.584 112.216 50.8164 112.73 50.8164 113.44V119.69C50.8164 120.401 50.584 120.915 50.2499 121.249C49.9158 121.583 49.4017 121.815 48.6914 121.815ZM70.5664 121.815H61.1914C60.4812 121.815 59.967 121.583 59.6329 121.249C59.2988 120.915 59.0664 120.401 59.0664 119.69V113.44C59.0664 112.73 59.2988 112.216 59.6329 111.882C59.967 111.548 60.4812 111.315 61.1914 111.315H70.5664C71.2767 111.315 71.7908 111.548 72.1249 111.882C72.459 112.216 72.6914 112.73 72.6914 113.44V119.69C72.6914 120.401 72.459 120.915 72.1249 121.249C71.7908 121.583 71.2767 121.815 70.5664 121.815Z" fill="#E0E0E0" stroke="black" stroke-width="2"/>
<path d="M92.4414 84.3154H83.0664C82.3562 84.3154 81.842 84.083 81.5079 83.7489C81.1738 83.4149 80.9414 82.9007 80.9414 82.1904V75.9404C80.9414 75.2302 81.1738 74.716 81.5079 74.3819C81.842 74.0478 82.3562 73.8154 83.0664 73.8154H92.4414C93.1517 73.8154 93.6658 74.0478 93.9999 74.3819C94.334 74.716 94.5664 75.2302 94.5664 75.9404V82.1904C94.5664 82.9007 94.334 83.4149 93.9999 83.7489C93.6658 84.083 93.1517 84.3154 92.4414 84.3154ZM92.4414 103.065H83.0664C82.3562 103.065 81.842 102.833 81.5079 102.499C81.1738 102.165 80.9414 101.651 80.9414 100.94V94.6904C80.9414 93.9802 81.1738 93.466 81.5079 93.1319C81.842 92.7978 82.3562 92.5654 83.0664 92.5654H92.4414C93.1517 92.5654 93.6658 92.7978 93.9999 93.1319C94.334 93.466 94.5664 93.9802 94.5664 94.6904V100.94C94.5664 101.651 94.334 102.165 93.9999 102.499C93.6658 102.833 93.1517 103.065 92.4414 103.065ZM92.4414 121.815H83.0664C82.3562 121.815 81.842 121.583 81.5079 121.249C81.1738 120.915 80.9414 120.401 80.9414 119.69V113.44C80.9414 112.73 81.1738 112.216 81.5079 111.882C81.842 111.548 82.3562 111.315 83.0664 111.315H92.4414C93.1517 111.315 93.6658 111.548 93.9999 111.882C94.334 112.216 94.5664 112.73 94.5664 113.44V119.69C94.5664 120.401 94.334 120.915 93.9999 121.249C93.6658 121.583 93.1517 121.815 92.4414 121.815Z" fill="#DAC3FF" stroke="black" stroke-width="2"/>
</svg>
