<svg width="32" height="34" viewBox="0 0 32 34" fill="none" xmlns="http://www.w3.org/2000/svg">
<path d="M30.3968 12.0629V11.1511H29.4851V10.2394H28.5733H27.6615V11.1511H26.7498H25.838V12.0629H24.9262V12.9747H24.0145V13.8864H24.9262V14.7982V16.6217V19.357V20.2688H24.0145V22.0923H23.1027V23.0041H22.1909V23.9158H21.2792V24.8276H20.3674V25.7394H18.5439H16.7204V26.6511H14.8968V25.7394H12.1615V24.8276H11.2498H10.338V23.9158H9.42624V23.0041H8.51448V21.1805H7.60271V18.4453H6.69095V14.7982H7.60271V12.9747V12.0629H8.51448V11.1511H9.42624V10.2394H10.338V9.32761H12.1615H13.0733V8.41584H15.8086V11.1511H16.7204H17.6321V10.2394H19.4557V9.32761H21.2792V8.41584H22.1909V7.50408H24.0145V6.59231H24.9262V5.68055V4.76878H24.0145V3.85702H22.1909V2.94525H20.3674V2.03349H19.4557V1.12173H17.6321V0.209961H16.7204H15.8086V2.03349H13.0733H12.1615V2.94525H9.42624V3.85702H7.60271V4.76878H6.69095V5.68055H5.77918V6.59231H4.86742V7.50408H3.95565V8.41584H3.04389V9.32761H2.13212V10.2394V11.1511H1.22036V13.8864H0.308594V18.4453H1.22036V22.0923H2.13212V24.8276H3.04389V25.7394H3.95565V27.5629H4.86742V28.4747H5.77918V29.3864H6.69095V30.2982H7.60271V31.21H9.42624V32.1217H11.2498H13.9851V33.0335H15.8086H16.7204V32.1217H21.2792V31.21H23.1027V30.2982H24.9262V29.3864H25.838V28.4747H26.7498V27.5629H27.6615V26.6511H28.5733V24.8276H29.4851V23.0041H30.3968V20.2688H31.3086V12.9747H30.3968V12.0629Z" fill="#200B3A"/>
</svg>
