<svg width="183" height="57" viewBox="0 0 183 57" fill="none" xmlns="http://www.w3.org/2000/svg">
<path d="M79.1974 23.3984C79.8854 23.8464 80.2694 24.2944 80.3494 24.7424C80.4294 25.1744 80.2214 25.7424 79.7254 26.4464C79.3734 26.9424 79.0534 27.2784 78.7654 27.4544C78.4774 27.6304 78.1654 27.6704 77.8294 27.5744C77.5094 27.4784 77.1254 27.2864 76.6774 26.9984L75.3334 26.1344C74.6774 26.6144 73.9574 26.9904 73.1734 27.2624C72.3894 27.5344 71.5654 27.6704 70.7014 27.6704C69.5334 27.6704 68.4374 27.4544 67.4134 27.0224C66.4054 26.5744 65.5174 25.9584 64.7494 25.1744C63.9814 24.3904 63.3734 23.4864 62.9254 22.4624C62.4934 21.4224 62.2774 20.3184 62.2774 19.1504C62.2774 17.9344 62.4854 16.7984 62.9014 15.7424C63.3334 14.6864 63.9254 13.7584 64.6774 12.9584C65.4294 12.1584 66.3014 11.5344 67.2934 11.0864C68.3014 10.6384 69.3734 10.4144 70.5094 10.4144C71.6774 10.4144 72.7654 10.6384 73.7734 11.0864C74.7974 11.5184 75.6934 12.1264 76.4614 12.9104C77.2294 13.6944 77.8294 14.6144 78.2614 15.6704C78.6934 16.7104 78.9094 17.8384 78.9094 19.0544C78.9094 19.6944 78.8374 20.3184 78.6934 20.9264C78.5654 21.5344 78.3734 22.1184 78.1174 22.6784L79.1974 23.3984ZM70.5814 23.2784C71.1254 23.2784 71.6374 23.1744 72.1174 22.9664C72.5974 22.7424 73.0134 22.4464 73.3654 22.0784C73.7334 21.6944 74.0134 21.2464 74.2054 20.7344C74.4134 20.2064 74.5174 19.6464 74.5174 19.0544C74.5174 18.4624 74.4134 17.9104 74.2054 17.3984C73.9974 16.8864 73.7094 16.4384 73.3414 16.0544C72.9894 15.6544 72.5734 15.3504 72.0934 15.1424C71.6294 14.9184 71.1334 14.8064 70.6054 14.8064C70.0614 14.8064 69.5494 14.9184 69.0694 15.1424C68.5894 15.3504 68.1654 15.6544 67.7974 16.0544C67.4454 16.4384 67.1654 16.8864 66.9574 17.3984C66.7654 17.9104 66.6694 18.4624 66.6694 19.0544C66.6694 19.6464 66.7734 20.1984 66.9814 20.7104C67.1894 21.2224 67.4694 21.6704 67.8214 22.0544C68.1894 22.4384 68.6054 22.7424 69.0694 22.9664C69.5494 23.1744 70.0534 23.2784 70.5814 23.2784ZM85.4248 27.3824C84.9128 27.3824 84.5128 27.2784 84.2248 27.0704C83.9368 26.8624 83.7288 26.6384 83.6008 26.3984C83.4728 26.1424 83.3928 25.9744 83.3608 25.8944L79.0408 13.5104C78.8008 12.7104 78.7608 12.1184 78.9208 11.7344C79.0968 11.3344 79.6008 10.9984 80.4328 10.7264C80.9768 10.5504 81.4168 10.4704 81.7528 10.4864C82.0888 10.5024 82.3688 10.6384 82.5928 10.8944C82.8168 11.1504 83.0168 11.5504 83.1928 12.0944L85.6888 19.3904L87.6568 12.2144C87.7048 12.0544 87.7848 11.8464 87.8968 11.5904C88.0248 11.3344 88.2328 11.1104 88.5208 10.9184C88.8088 10.7104 89.2248 10.6064 89.7688 10.6064C90.3768 10.6064 90.8248 10.7184 91.1128 10.9424C91.4168 11.1664 91.6248 11.4064 91.7368 11.6624C91.8488 11.9184 91.9288 12.1104 91.9768 12.2384L93.9448 19.4384L96.4408 12.0944C96.6168 11.5664 96.8088 11.1744 97.0168 10.9184C97.2408 10.6464 97.5288 10.4944 97.8808 10.4624C98.2328 10.4304 98.6808 10.5104 99.2248 10.7024C99.8008 10.9104 100.209 11.1344 100.449 11.3744C100.689 11.5984 100.809 11.8784 100.809 12.2144C100.825 12.5504 100.753 12.9824 100.593 13.5104L96.2968 25.8944C96.2648 25.9904 96.1848 26.1584 96.0568 26.3984C95.9448 26.6384 95.7448 26.8624 95.4568 27.0704C95.1688 27.2784 94.7528 27.3824 94.2088 27.3824C93.6648 27.3824 93.2408 27.2624 92.9368 27.0224C92.6328 26.7664 92.4168 26.5104 92.2888 26.2544C92.1608 25.9824 92.0888 25.8224 92.0728 25.7744L89.8168 18.3824L87.5608 25.7504C87.5448 25.8304 87.4728 26.0064 87.3448 26.2784C87.2168 26.5344 87.0008 26.7824 86.6968 27.0224C86.4088 27.2624 85.9848 27.3824 85.4248 27.3824ZM104.295 27.4064C103.575 27.4064 103.063 27.3024 102.759 27.0944C102.455 26.8704 102.271 26.5904 102.207 26.2544C102.143 25.9024 102.111 25.5504 102.111 25.1984V12.7904C102.111 11.9584 102.271 11.3904 102.591 11.0864C102.927 10.7664 103.519 10.6064 104.367 10.6064H113.151C113.519 10.6064 113.863 10.6384 114.183 10.7024C114.519 10.7664 114.791 10.9504 114.999 11.2544C115.223 11.5584 115.335 12.0784 115.335 12.8144C115.335 13.5344 115.223 14.0464 114.999 14.3504C114.791 14.6544 114.519 14.8384 114.183 14.9024C113.847 14.9664 113.495 14.9984 113.127 14.9984H106.503V17.1344H110.943C111.311 17.1344 111.639 17.1664 111.927 17.2304C112.215 17.2784 112.447 17.4304 112.623 17.6864C112.799 17.9424 112.887 18.3904 112.887 19.0304C112.887 19.6384 112.799 20.0784 112.623 20.3504C112.447 20.6064 112.207 20.7584 111.903 20.8064C111.599 20.8544 111.263 20.8784 110.895 20.8784H106.503V23.0144H113.151C113.519 23.0144 113.863 23.0464 114.183 23.1104C114.519 23.1744 114.791 23.3584 114.999 23.6624C115.223 23.9664 115.335 24.4864 115.335 25.2224C115.335 25.9424 115.223 26.4544 114.999 26.7584C114.791 27.0624 114.519 27.2464 114.183 27.3104C113.847 27.3744 113.495 27.4064 113.127 27.4064H104.295ZM118.684 27.3824C117.964 27.3824 117.452 27.2784 117.148 27.0704C116.844 26.8464 116.66 26.5664 116.596 26.2304C116.532 25.8784 116.5 25.5264 116.5 25.1744V12.7904C116.5 12.4384 116.532 12.0944 116.596 11.7584C116.66 11.4224 116.844 11.1504 117.148 10.9424C117.452 10.7184 117.972 10.6064 118.708 10.6064H123.532C124.14 10.6064 124.796 10.7344 125.5 10.9904C126.204 11.2304 126.868 11.6064 127.492 12.1184C128.116 12.6304 128.628 13.2704 129.028 14.0384C129.428 14.8064 129.628 15.7184 129.628 16.7744C129.628 17.5104 129.516 18.1984 129.292 18.8384C129.084 19.4784 128.764 20.0624 128.332 20.5904C127.916 21.1024 127.404 21.5584 126.796 21.9584C126.204 22.3424 125.524 22.6464 124.756 22.8704H120.892V25.1984C120.892 25.5504 120.86 25.8944 120.796 26.2304C120.732 26.5664 120.548 26.8464 120.244 27.0704C119.94 27.2784 119.42 27.3824 118.684 27.3824ZM128.74 26.8064C128.02 27.3504 127.452 27.5664 127.036 27.4544C126.62 27.3584 126.172 26.9904 125.692 26.3504L121.276 20.3504L126.268 19.7264L129.244 23.7344C129.564 24.1984 129.764 24.5904 129.844 24.9104C129.94 25.2304 129.9 25.5344 129.724 25.8224C129.548 26.1104 129.22 26.4384 128.74 26.8064ZM120.892 18.5024H123.532C123.676 18.5024 123.844 18.4784 124.036 18.4304C124.244 18.3664 124.436 18.2704 124.612 18.1424C124.788 17.9984 124.932 17.8144 125.044 17.5904C125.172 17.3664 125.236 17.0864 125.236 16.7504C125.236 16.4144 125.156 16.1184 124.996 15.8624C124.836 15.5904 124.62 15.3824 124.348 15.2384C124.092 15.0784 123.804 14.9984 123.484 14.9984H120.892V18.5024ZM74.6614 49.3824C73.9414 49.3824 73.4294 49.2784 73.1254 49.0704C72.8214 48.8464 72.6374 48.5664 72.5734 48.2304C72.5094 47.8784 72.4774 47.5264 72.4774 47.1744V34.7904C72.4774 34.4384 72.5094 34.0944 72.5734 33.7584C72.6374 33.4224 72.8214 33.1504 73.1254 32.9424C73.4294 32.7184 73.9494 32.6064 74.6854 32.6064C75.4214 32.6064 75.9334 32.7184 76.2214 32.9424C76.5254 33.1504 76.7094 33.4224 76.7734 33.7584C76.8374 34.0944 76.8694 34.4464 76.8694 34.8144V47.1984C76.8694 47.5504 76.8374 47.8944 76.7734 48.2304C76.7094 48.5664 76.5254 48.8464 76.2214 49.0704C75.9174 49.2784 75.3974 49.3824 74.6614 49.3824ZM64.7974 49.3824C64.0774 49.3824 63.5654 49.2784 63.2614 49.0704C62.9574 48.8464 62.7734 48.5664 62.7094 48.2304C62.6454 47.8784 62.6134 47.5264 62.6134 47.1744V34.7904C62.6134 34.4384 62.6454 34.0944 62.7094 33.7584C62.7734 33.4224 62.9574 33.1504 63.2614 32.9424C63.5654 32.7184 64.0854 32.6064 64.8214 32.6064C65.5574 32.6064 66.0694 32.7184 66.3574 32.9424C66.6614 33.1504 66.8454 33.4224 66.9094 33.7584C66.9734 34.0944 67.0054 34.4464 67.0054 34.8144V47.1984C67.0054 47.5504 66.9734 47.8944 66.9094 48.2304C66.8454 48.5664 66.6614 48.8464 66.3574 49.0704C66.0534 49.2784 65.5334 49.3824 64.7974 49.3824ZM66.6214 42.8784V39.1344H72.8614V42.8784H66.6214ZM88.0148 49.3584C87.2948 49.3584 86.7588 49.2384 86.4068 48.9984C86.0708 48.7584 85.9108 48.4864 85.9268 48.1824H86.2628C86.1828 48.2944 86.0228 48.4464 85.7828 48.6384C85.5588 48.8144 85.2548 48.9824 84.8708 49.1424C84.4868 49.2864 84.0148 49.3584 83.4548 49.3584C82.7348 49.3584 82.0388 49.1984 81.3668 48.8784C80.7108 48.5424 80.1188 48.0864 79.5908 47.5104C79.0788 46.9344 78.6708 46.2864 78.3668 45.5664C78.0628 44.8304 77.9108 44.0624 77.9108 43.2624C77.9108 42.4784 78.0628 41.7264 78.3668 41.0064C78.6708 40.2864 79.0868 39.6464 79.6148 39.0864C80.1428 38.5104 80.7348 38.0624 81.3908 37.7424C82.0468 37.4064 82.7348 37.2384 83.4548 37.2384C83.9988 37.2384 84.4548 37.3184 84.8228 37.4784C85.2068 37.6384 85.5108 37.8144 85.7348 38.0064C85.9748 38.1984 86.1348 38.3584 86.2148 38.4864H85.9508C85.9348 38.0864 86.0948 37.7744 86.4308 37.5504C86.7828 37.3264 87.3188 37.2144 88.0388 37.2144C88.7588 37.2144 89.2628 37.3264 89.5508 37.5504C89.8548 37.7584 90.0388 38.0304 90.1028 38.3664C90.1668 38.7024 90.1988 39.0464 90.1988 39.3984V47.1984C90.1988 47.5504 90.1668 47.8944 90.1028 48.2304C90.0388 48.5664 89.8548 48.8384 89.5508 49.0464C89.2628 49.2544 88.7508 49.3584 88.0148 49.3584ZM84.0548 45.0144C84.3588 45.0144 84.6308 44.9344 84.8708 44.7744C85.1268 44.6144 85.3268 44.4064 85.4708 44.1504C85.6308 43.8784 85.7108 43.5904 85.7108 43.2864C85.7108 42.9664 85.6308 42.6784 85.4708 42.4224C85.3268 42.1664 85.1268 41.9584 84.8708 41.7984C84.6148 41.6384 84.3268 41.5584 84.0068 41.5584C83.6868 41.5584 83.3908 41.6384 83.1188 41.7984C82.8628 41.9584 82.6548 42.1744 82.4948 42.4464C82.3348 42.7024 82.2548 42.9904 82.2548 43.3104C82.2548 43.6144 82.3348 43.8944 82.4948 44.1504C82.6708 44.4064 82.8948 44.6144 83.1668 44.7744C83.4388 44.9344 83.7348 45.0144 84.0548 45.0144ZM97.7982 49.5264C97.1422 49.5264 96.4462 49.3984 95.7102 49.1424C94.9902 48.8704 94.3102 48.4784 93.6702 47.9664C93.0302 47.4384 92.5102 46.7824 92.1102 45.9984C91.7102 45.2144 91.5102 44.3024 91.5102 43.2624C91.5102 42.2384 91.7102 41.3424 92.1102 40.5744C92.5102 39.7904 93.0222 39.1424 93.6462 38.6304C94.2862 38.1184 94.9662 37.7344 95.6862 37.4784C96.4222 37.2064 97.1102 37.0704 97.7502 37.0704C98.3582 37.0704 98.8862 37.1344 99.3342 37.2624C99.7822 37.3904 100.15 37.5344 100.438 37.6944C100.726 37.8384 100.934 37.9504 101.062 38.0304C101.382 38.2224 101.678 38.4464 101.95 38.7024C102.238 38.9424 102.382 39.2704 102.382 39.6864C102.382 39.8944 102.342 40.1104 102.262 40.3344C102.182 40.5424 102.054 40.7824 101.878 41.0544C101.302 41.9344 100.726 42.3744 100.15 42.3744C99.8942 42.3744 99.6702 42.3344 99.4782 42.2544C99.2862 42.1584 99.1102 42.0544 98.9502 41.9424C98.7902 41.8304 98.6142 41.7344 98.4222 41.6544C98.2462 41.5584 98.0222 41.5104 97.7502 41.5104C97.4302 41.5104 97.1342 41.5904 96.8622 41.7504C96.5902 41.9104 96.3742 42.1264 96.2142 42.3984C96.0542 42.6544 95.9742 42.9504 95.9742 43.2864C95.9742 43.6224 96.0542 43.9264 96.2142 44.1984C96.3742 44.4704 96.5822 44.6864 96.8382 44.8464C97.1102 45.0064 97.3982 45.0864 97.7022 45.0864C97.9262 45.0864 98.1102 45.0624 98.2542 45.0144C98.4142 44.9664 98.5342 44.9184 98.6142 44.8704C98.6942 44.8064 98.7422 44.7744 98.7582 44.7744C98.9822 44.6464 99.1902 44.5264 99.3822 44.4144C99.5902 44.3024 99.7982 44.2464 100.006 44.2464C100.278 44.2464 100.558 44.3504 100.846 44.5584C101.134 44.7504 101.454 45.0704 101.806 45.5184C102.142 45.9344 102.326 46.3264 102.358 46.6944C102.406 47.0464 102.318 47.3824 102.094 47.7024C101.87 48.0064 101.526 48.3024 101.062 48.5904C101.014 48.6224 100.846 48.7184 100.558 48.8784C100.286 49.0224 99.9182 49.1664 99.4542 49.3104C98.9902 49.4544 98.4382 49.5264 97.7982 49.5264ZM114.092 45.4464C114.684 45.9744 114.996 46.4784 115.028 46.9584C115.076 47.4224 114.812 47.9584 114.236 48.5664C113.804 49.0144 113.428 49.3024 113.108 49.4304C112.804 49.5744 112.5 49.5744 112.196 49.4304C111.892 49.3024 111.532 49.0544 111.116 48.6864L108.164 45.9264V47.2464C108.164 47.5984 108.132 47.9424 108.068 48.2784C108.004 48.6144 107.82 48.8864 107.516 49.0944C107.228 49.3024 106.716 49.4064 105.98 49.4064C105.26 49.4064 104.748 49.3024 104.444 49.0944C104.14 48.8704 103.956 48.5904 103.892 48.2544C103.844 47.9184 103.82 47.5744 103.82 47.2224V33.8544C103.82 33.4864 103.852 33.1424 103.916 32.8224C103.98 32.4864 104.164 32.2144 104.468 32.0064C104.772 31.7824 105.284 31.6704 106.004 31.6704C106.724 31.6704 107.228 31.7824 107.516 32.0064C107.82 32.2144 108.004 32.4864 108.068 32.8224C108.132 33.1584 108.164 33.5104 108.164 33.8784V40.5024L110.204 38.5104C110.588 38.1424 110.948 37.8944 111.284 37.7664C111.62 37.6224 111.948 37.6144 112.268 37.7424C112.604 37.8544 112.956 38.1104 113.324 38.5104C113.948 39.1824 114.244 39.7264 114.212 40.1424C114.196 40.5584 113.9 41.0544 113.324 41.6304L111.38 43.3344L114.092 45.4464ZM120.518 49.6224C120.07 49.6224 119.566 49.5664 119.006 49.4544C118.462 49.3584 117.926 49.2144 117.398 49.0224C116.886 48.8144 116.462 48.5744 116.126 48.3024C115.79 48.0304 115.622 47.7184 115.622 47.3664C115.622 47.2064 115.654 47.0304 115.718 46.8384C115.798 46.6304 115.902 46.4064 116.03 46.1664C116.158 45.9264 116.318 45.6704 116.51 45.3984C116.622 45.2384 116.75 45.1184 116.894 45.0384C117.054 44.9584 117.238 44.9184 117.446 44.9184C117.734 44.9184 118.014 44.9824 118.286 45.1104C118.558 45.2224 118.83 45.3584 119.102 45.5184C119.374 45.6624 119.654 45.7984 119.942 45.9264C120.246 46.0384 120.566 46.0944 120.902 46.0944C121.206 46.0944 121.43 46.0624 121.574 45.9984C121.734 45.9344 121.814 45.8384 121.814 45.7104C121.814 45.5824 121.758 45.4784 121.646 45.3984C121.55 45.3184 121.406 45.2544 121.214 45.2064C121.038 45.1424 120.83 45.0864 120.59 45.0384C120.35 44.9904 120.094 44.9344 119.822 44.8704C119.55 44.8064 119.27 44.7264 118.982 44.6304C118.614 44.5184 118.254 44.3744 117.902 44.1984C117.55 44.0064 117.23 43.7584 116.942 43.4544C116.67 43.1504 116.446 42.7824 116.27 42.3504C116.11 41.9184 116.03 41.3904 116.03 40.7664C116.03 39.9344 116.222 39.2384 116.606 38.6784C116.99 38.1184 117.558 37.6944 118.31 37.4064C119.062 37.1184 119.99 36.9744 121.094 36.9744C121.366 36.9744 121.638 36.9904 121.91 37.0224C122.182 37.0544 122.454 37.1024 122.726 37.1664C123.014 37.2304 123.294 37.3184 123.566 37.4304C123.854 37.5264 124.142 37.6384 124.43 37.7664C125.022 38.0224 125.326 38.3824 125.342 38.8464C125.358 39.2944 125.19 39.7664 124.838 40.2624C124.646 40.5664 124.446 40.7984 124.238 40.9584C124.046 41.1024 123.846 41.1744 123.638 41.1744C123.382 41.1744 123.102 41.1024 122.798 40.9584C122.494 40.8144 122.174 40.6704 121.838 40.5264C121.502 40.3824 121.166 40.3104 120.83 40.3104C120.638 40.3104 120.47 40.3344 120.326 40.3824C120.198 40.4144 120.102 40.4704 120.038 40.5504C119.974 40.6144 119.942 40.6944 119.942 40.7904C119.942 40.9664 119.998 41.1104 120.11 41.2224C120.238 41.3184 120.398 41.3984 120.59 41.4624C120.798 41.5264 121.03 41.5824 121.286 41.6304C121.558 41.6784 121.846 41.7264 122.15 41.7744C122.566 41.8384 122.99 41.9424 123.422 42.0864C123.87 42.2144 124.278 42.4064 124.646 42.6624C125.014 42.9184 125.31 43.2704 125.534 43.7184C125.758 44.1664 125.87 44.7504 125.87 45.4704C125.87 46.8304 125.414 47.8624 124.502 48.5664C123.606 49.2704 122.278 49.6224 120.518 49.6224ZM138.839 49.3824C138.327 49.3824 137.927 49.2784 137.639 49.0704C137.351 48.8624 137.143 48.6384 137.015 48.3984C136.887 48.1424 136.807 47.9744 136.775 47.8944L132.455 35.5104C132.215 34.7104 132.175 34.1184 132.335 33.7344C132.511 33.3344 133.015 32.9984 133.847 32.7264C134.391 32.5504 134.831 32.4704 135.167 32.4864C135.503 32.5024 135.783 32.6384 136.007 32.8944C136.231 33.1504 136.431 33.5504 136.607 34.0944L139.103 41.3904L141.071 34.2144C141.119 34.0544 141.199 33.8464 141.311 33.5904C141.439 33.3344 141.647 33.1104 141.935 32.9184C142.223 32.7104 142.639 32.6064 143.183 32.6064C143.791 32.6064 144.239 32.7184 144.527 32.9424C144.831 33.1664 145.039 33.4064 145.151 33.6624C145.263 33.9184 145.343 34.1104 145.391 34.2384L147.359 41.4384L149.855 34.0944C150.031 33.5664 150.223 33.1744 150.431 32.9184C150.655 32.6464 150.943 32.4944 151.295 32.4624C151.647 32.4304 152.095 32.5104 152.639 32.7024C153.215 32.9104 153.623 33.1344 153.863 33.3744C154.103 33.5984 154.223 33.8784 154.223 34.2144C154.239 34.5504 154.167 34.9824 154.007 35.5104L149.711 47.8944C149.679 47.9904 149.599 48.1584 149.471 48.3984C149.359 48.6384 149.159 48.8624 148.871 49.0704C148.583 49.2784 148.167 49.3824 147.623 49.3824C147.079 49.3824 146.655 49.2624 146.351 49.0224C146.047 48.7664 145.831 48.5104 145.703 48.2544C145.575 47.9824 145.503 47.8224 145.487 47.7744L143.231 40.3824L140.975 47.7504C140.959 47.8304 140.887 48.0064 140.759 48.2784C140.631 48.5344 140.415 48.7824 140.111 49.0224C139.823 49.2624 139.399 49.3824 138.839 49.3824ZM156.887 49.4064C156.167 49.4064 155.655 49.3024 155.351 49.0944C155.047 48.8704 154.863 48.5904 154.799 48.2544C154.751 47.9184 154.727 47.5744 154.727 47.2224V39.3984C154.727 39.0464 154.759 38.7104 154.823 38.3904C154.887 38.0544 155.071 37.7824 155.375 37.5744C155.679 37.3504 156.191 37.2384 156.911 37.2384C157.631 37.2384 158.135 37.3504 158.423 37.5744C158.727 37.7824 158.911 38.0544 158.975 38.3904C159.039 38.7264 159.071 39.0784 159.071 39.4464V47.2464C159.071 47.5984 159.039 47.9424 158.975 48.2784C158.911 48.6144 158.727 48.8864 158.423 49.0944C158.135 49.3024 157.623 49.4064 156.887 49.4064ZM156.887 36.0624C156.167 36.0624 155.655 35.9584 155.351 35.7504C155.047 35.5264 154.863 35.2464 154.799 34.9104C154.751 34.5744 154.727 34.2304 154.727 33.8784C154.727 33.5104 154.759 33.1664 154.823 32.8464C154.887 32.5104 155.071 32.2384 155.375 32.0304C155.679 31.8224 156.191 31.7184 156.911 31.7184C157.631 31.7184 158.135 31.8304 158.423 32.0544C158.727 32.2624 158.911 32.5344 158.975 32.8704C159.039 33.2064 159.071 33.5504 159.071 33.9024C159.071 34.2544 159.039 34.5984 158.975 34.9344C158.911 35.2704 158.727 35.5424 158.423 35.7504C158.135 35.9584 157.623 36.0624 156.887 36.0624ZM171.022 45.4464C171.614 45.9744 171.926 46.4784 171.958 46.9584C172.006 47.4224 171.742 47.9584 171.166 48.5664C170.734 49.0144 170.358 49.3024 170.038 49.4304C169.734 49.5744 169.43 49.5744 169.126 49.4304C168.822 49.3024 168.462 49.0544 168.046 48.6864L165.094 45.9264V47.2464C165.094 47.5984 165.062 47.9424 164.998 48.2784C164.934 48.6144 164.75 48.8864 164.446 49.0944C164.158 49.3024 163.646 49.4064 162.91 49.4064C162.19 49.4064 161.678 49.3024 161.374 49.0944C161.07 48.8704 160.886 48.5904 160.822 48.2544C160.774 47.9184 160.75 47.5744 160.75 47.2224V33.8544C160.75 33.4864 160.782 33.1424 160.846 32.8224C160.91 32.4864 161.094 32.2144 161.398 32.0064C161.702 31.7824 162.214 31.6704 162.934 31.6704C163.654 31.6704 164.158 31.7824 164.446 32.0064C164.75 32.2144 164.934 32.4864 164.998 32.8224C165.062 33.1584 165.094 33.5104 165.094 33.8784V40.5024L167.134 38.5104C167.518 38.1424 167.878 37.8944 168.214 37.7664C168.55 37.6224 168.878 37.6144 169.198 37.7424C169.534 37.8544 169.886 38.1104 170.254 38.5104C170.878 39.1824 171.174 39.7264 171.142 40.1424C171.126 40.5584 170.83 41.0544 170.254 41.6304L168.31 43.3344L171.022 45.4464ZM175.191 49.4064C174.471 49.4064 173.959 49.3024 173.655 49.0944C173.351 48.8704 173.167 48.5904 173.103 48.2544C173.055 47.9184 173.031 47.5744 173.031 47.2224V39.3984C173.031 39.0464 173.063 38.7104 173.127 38.3904C173.191 38.0544 173.375 37.7824 173.679 37.5744C173.983 37.3504 174.495 37.2384 175.215 37.2384C175.935 37.2384 176.439 37.3504 176.727 37.5744C177.031 37.7824 177.215 38.0544 177.279 38.3904C177.343 38.7264 177.375 39.0784 177.375 39.4464V47.2464C177.375 47.5984 177.343 47.9424 177.279 48.2784C177.215 48.6144 177.031 48.8864 176.727 49.0944C176.439 49.3024 175.927 49.4064 175.191 49.4064ZM175.191 36.0624C174.471 36.0624 173.959 35.9584 173.655 35.7504C173.351 35.5264 173.167 35.2464 173.103 34.9104C173.055 34.5744 173.031 34.2304 173.031 33.8784C173.031 33.5104 173.063 33.1664 173.127 32.8464C173.191 32.5104 173.375 32.2384 173.679 32.0304C173.983 31.8224 174.495 31.7184 175.215 31.7184C175.935 31.7184 176.439 31.8304 176.727 32.0544C177.031 32.2624 177.215 32.5344 177.279 32.8704C177.343 33.2064 177.375 33.5504 177.375 33.9024C177.375 34.2544 177.343 34.5984 177.279 34.9344C177.215 35.2704 177.031 35.5424 176.727 35.7504C176.439 35.9584 175.927 36.0624 175.191 36.0624Z" fill="#7F57A7"/>
<path d="M33.0418 19.3404C33.0418 20.6804 32.5218 21.9304 31.5718 22.8604C30.6518 23.8004 29.4018 24.3204 28.0518 24.3204H26.8418V30.2904H34.6918C35.2518 30.2904 35.6918 30.7404 35.6918 31.2904V33.5004C35.6918 34.3004 36.0018 35.0504 36.5718 35.6104C37.1318 36.1804 37.8818 36.4804 38.6818 36.4804C40.3218 36.4804 41.6618 35.1504 41.6618 33.5004V31.2904C41.6618 30.7404 42.1118 30.2904 42.6618 30.2904H48.7418H50.7418V7.39043C50.7418 6.83043 50.3018 6.39043 49.7418 6.39043H43.6618V5.17043C43.6618 3.83043 43.1418 2.58043 42.2018 1.66043C41.2718 0.71043 40.0218 0.19043 38.6818 0.19043C35.9318 0.19043 33.6918 2.43043 33.6918 5.17043V6.39043H26.8418V8.39043V14.3504H28.0518C30.8018 14.3504 33.0418 16.5904 33.0418 19.3404Z" fill="url(#paint0_linear_1838_318)"/>
<path d="M8.02141 30.2904V29.0704C8.02141 26.3304 10.2614 24.0904 13.0114 24.0904C14.3514 24.0904 15.6014 24.6104 16.5314 25.5604C17.4714 26.4804 17.9914 27.7304 17.9914 29.0704V30.2904H24.8414V23.3204C24.8414 22.7704 25.2914 22.3204 25.8414 22.3204H28.0514C28.8614 22.3204 29.6014 22.0104 30.1614 21.4504C30.7314 20.8904 31.0414 20.1404 31.0414 19.3404C31.0414 17.6904 29.7014 16.3504 28.0514 16.3504H25.8414C25.2914 16.3504 24.8414 15.9104 24.8414 15.3504V8.39038V6.39038H16.9914C16.4414 6.39038 15.9914 6.83038 15.9914 7.39038V9.60038C15.9914 11.2504 14.6514 12.5804 13.0114 12.5804C12.2014 12.5804 11.4614 12.2703 10.8914 11.7004C10.3314 11.1504 10.0214 10.4004 10.0214 9.60038V7.39038C10.0214 6.83038 9.57141 6.39038 9.02141 6.39038H1.94141C1.39141 6.39038 0.941406 6.83038 0.941406 7.39038V30.2904H2.94141H8.02141Z" fill="url(#paint1_linear_1838_318)"/>
<path d="M18.6514 43.2403C18.6514 43.0703 18.6613 42.9103 18.6714 42.7403C18.7114 42.4103 18.7714 42.0903 18.8614 41.7803C18.9614 41.4703 19.0814 41.1703 19.2314 40.8903C19.2814 40.8003 19.3314 40.7102 19.3914 40.6303C19.4414 40.5403 19.5014 40.4503 19.5614 40.3703C19.6214 40.2903 19.6814 40.2103 19.7414 40.1303C19.8114 40.0503 19.8814 39.9703 19.9514 39.8903C19.9914 39.8303 20.0514 39.7803 20.1114 39.7203C20.2314 39.6003 20.3514 39.4903 20.4714 39.3803C20.9714 38.9703 21.5514 38.6603 22.1714 38.4703C22.4814 38.3803 22.8014 38.3203 23.1314 38.2803C23.3014 38.2703 23.4614 38.2603 23.6314 38.2603H24.8414V32.2903H16.9914C16.4414 32.2903 15.9914 31.8403 15.9914 31.2903V29.0703C15.9914 28.2703 15.6814 27.5303 15.1214 26.9703C14.5514 26.4003 13.8114 26.0903 13.0114 26.0903C11.3614 26.0903 10.0214 27.4303 10.0214 29.0703V31.2903C10.0214 31.8403 9.57141 32.2903 9.02141 32.2903H2.94141H0.941406V55.1903C0.941406 55.7403 1.39141 56.1903 1.94141 56.1903H9.02141C9.57141 56.1903 10.0214 55.7403 10.0214 55.1903V52.9803C10.0214 51.3303 11.3614 49.9903 13.0114 49.9903C13.8114 49.9903 14.5514 50.3003 15.1214 50.8703C15.6814 51.4303 15.9914 52.1803 15.9914 52.9803V55.1903C15.9914 55.7403 16.4414 56.1903 16.9914 56.1903H24.8414V54.1903V48.2203H23.6314C20.8814 48.2203 18.6514 45.9903 18.6514 43.2403Z" fill="url(#paint2_linear_1838_318)"/>
<path d="M51.9605 38.2605H50.7405V32.2905H48.7405H43.6605V33.5005C43.6605 36.2505 41.4305 38.4805 38.6805 38.4805C37.3405 38.4805 36.0905 37.9605 35.1505 37.0205C34.2105 36.0905 33.6905 34.8405 33.6905 33.5005V32.2905H26.8405V39.2605C26.8405 39.8105 26.3905 40.2605 25.8405 40.2605H23.6305C22.8305 40.2605 22.0805 40.5705 21.5305 41.1305C21.5205 41.1405 21.5205 41.1405 21.5105 41.1505C21.4105 41.2505 21.3105 41.3605 21.2305 41.4705C21.1905 41.5205 21.1605 41.5705 21.1305 41.6205C21.0705 41.7005 21.0205 41.7905 20.9705 41.8905C20.9305 41.9805 20.8805 42.0705 20.8504 42.1705C20.7805 42.3305 20.7404 42.4905 20.7104 42.6505C20.6704 42.8405 20.6504 43.0405 20.6504 43.2405C20.6504 44.8805 21.9804 46.2205 23.6304 46.2205H25.8404C26.3904 46.2205 26.8404 46.6705 26.8404 47.2205V54.1905V56.1905H49.7404C50.3004 56.1905 50.7404 55.7405 50.7404 55.1905V48.2205H51.9604C53.3004 48.2205 54.5504 47.7005 55.4704 46.7705C56.4205 45.8305 56.9405 44.5805 56.9405 43.2405C56.9405 40.4905 54.7005 38.2605 51.9605 38.2605Z" fill="url(#paint3_linear_1838_318)"/>
<defs>
<linearGradient id="paint0_linear_1838_318" x1="29.4414" y1="0.19043" x2="49.4414" y2="33.1904" gradientUnits="userSpaceOnUse">
<stop stop-color="#F88ABF"/>
<stop offset="1" stop-color="#C48EFA"/>
</linearGradient>
<linearGradient id="paint1_linear_1838_318" x1="15.9914" y1="6.39038" x2="15.9914" y2="30.2904" gradientUnits="userSpaceOnUse">
<stop stop-color="#F05E71"/>
<stop offset="1" stop-color="#FFC888"/>
</linearGradient>
<linearGradient id="paint2_linear_1838_318" x1="5.94141" y1="25.1904" x2="23.4414" y2="55.1904" gradientUnits="userSpaceOnUse">
<stop stop-color="#FFCD4D"/>
<stop offset="1" stop-color="#A3FFB8"/>
</linearGradient>
<linearGradient id="paint3_linear_1838_318" x1="38.9414" y1="27.1904" x2="38.7954" y2="56.1905" gradientUnits="userSpaceOnUse">
<stop stop-color="#808BF0"/>
<stop offset="1" stop-color="#AEE4EC"/>
</linearGradient>
</defs>
</svg>
