<svg width="843" height="303" viewBox="0 0 843 303" fill="none" xmlns="http://www.w3.org/2000/svg">
  <path
    d="M271.013 189.381C270.912 187.108 270.841 184.829 270.841 182.532C270.841 99.4573 338.425 31.8674 421.506 31.8674C504.586 31.8674 572.17 99.4514 572.17 182.532C572.17 184.829 572.099 187.108 571.998 189.381H599.395C599.466 187.102 599.555 184.829 599.555 182.532C599.555 84.192 519.84 4.47656 421.5 4.47656C323.16 4.47656 243.444 84.192 243.444 182.532C243.444 184.829 243.533 187.102 243.616 189.381H271.013Z"
    fill="url(#paint0_linear_1374_2351)" stroke="#200B3A" stroke-width="7" />
  <path
    d="M298.576 189.382C298.451 187.102 298.232 184.847 298.232 182.532C298.232 114.563 353.53 59.2645 421.5 59.2645C489.469 59.2645 544.767 114.569 544.767 182.532C544.767 184.841 544.548 187.102 544.423 189.382H571.992C572.093 187.108 572.164 184.829 572.164 182.532C572.164 99.4575 504.58 31.8677 421.5 31.8677C338.419 31.8677 270.835 99.4575 270.835 182.532C270.835 184.829 270.906 187.108 271.007 189.382H298.576Z"
    fill="url(#paint1_linear_1374_2351)" stroke="#200B3A" stroke-width="7" />
  <path
    d="M325.973 189.381C325.813 187.108 325.629 184.847 325.629 182.532C325.629 129.667 368.636 86.655 421.506 86.655C474.377 86.655 517.383 129.661 517.383 182.532C517.383 184.841 517.199 187.108 517.039 189.381H544.43C544.554 187.102 544.774 184.847 544.774 182.532C544.774 114.562 489.476 59.2642 421.506 59.2642C353.536 59.2642 298.232 114.562 298.232 182.532C298.232 184.841 298.452 187.102 298.577 189.381H325.973Z"
    fill="url(#paint2_linear_1374_2351)" stroke="#200B3A" stroke-width="7" />
  <path
    d="M353.364 189.381C353.139 187.126 353.02 184.846 353.02 182.532C353.02 144.772 383.74 114.052 421.5 114.052C459.26 114.052 489.98 144.778 489.98 182.532C489.98 184.841 489.856 187.126 489.636 189.381H517.027C517.187 187.108 517.371 184.846 517.371 182.532C517.371 129.667 474.365 86.6548 421.494 86.6548C368.624 86.6548 325.617 129.661 325.617 182.532C325.617 184.841 325.801 187.108 325.961 189.381H353.364Z"
    fill="url(#paint3_linear_1374_2351)" stroke="#200B3A" stroke-width="7" />
  <path
    d="M381.028 189.381C380.648 187.149 380.41 184.87 380.41 182.532C380.41 159.871 398.839 141.443 421.5 141.443C444.16 141.443 462.589 159.871 462.589 182.532C462.589 184.87 462.346 187.149 461.972 189.381H489.636C489.861 187.126 489.98 184.847 489.98 182.532C489.98 144.772 459.259 114.052 421.5 114.052C383.74 114.052 353.02 144.778 353.02 182.532C353.02 184.841 353.144 187.126 353.364 189.381H381.028Z"
    fill="url(#paint4_linear_1374_2351)" stroke="#200B3A" stroke-width="7" />
  <mask id="path-6-outside-1_1374_2351" maskUnits="userSpaceOnUse" x="75.127" y="142.91" width="712"
    height="129" fill="black">
    <rect fill="white" x="75.127" y="142.91" width="712" height="129" />
    <path
      d="M130.644 174.239L113.652 240.157L120.976 240.377L137.309 174.239H130.644ZM94.3161 262.057C90.2634 262.203 87.4557 260.836 85.8932 257.955C84.3307 254.928 83.989 251.778 84.8679 248.507L104.057 168.673C105.229 164.083 107.011 160.299 109.404 157.32C111.797 154.146 114.751 152.486 118.266 152.34H155.18C160.063 152.779 163.359 154.659 165.068 157.979C166.875 161.104 167.094 165.328 165.727 170.65L149.907 233.053C149.467 234.762 149.321 236.397 149.467 237.96C149.76 239.571 150.932 240.377 152.983 240.377H160.088L154.301 262.057H143.901C142.778 262.203 141.753 261.983 140.825 261.397C139.897 260.812 139.604 259.444 139.946 257.296C139.311 259.005 138.359 260.299 137.09 261.178C135.82 261.91 134.209 262.203 132.256 262.057H94.3161ZM251.347 152.413L229.887 240.011H239.116L261.015 152.413H287.016L260.063 261.91H182.793C176.689 261.91 172.368 260.47 169.829 257.589C167.29 254.61 166.924 248.824 168.73 240.23L190.263 152.413H215.971L195.024 240.011H204.253L224.614 152.413H251.347ZM269.072 262.057L297.05 152.193H350.151L343.925 174.166H318.73L313.383 196.065H338.286L332.866 218.185H307.671L301.811 240.157H327.373L322.026 262.057H269.072ZM379.887 174.459L373.882 196.212H381.352L386.626 174.459H379.887ZM330.742 262.057L358.061 152.34H399.37C404.741 152.438 408.696 153.585 411.235 155.782C414.116 158.077 415.752 162.008 416.142 167.574L406.108 204.635C405.522 206.979 404.497 209.029 403.032 210.787C401.762 212.203 400.346 213.424 398.784 214.449C397.221 215.426 395.732 216.28 394.316 217.013C392.851 217.452 391.631 217.892 390.654 218.331L397.978 262.057H371.318L366.264 227.486L357.988 262.057H330.742ZM404.204 262.057L432.256 152.56H459.135L448.076 196.358H455.547L466.313 152.56H493.193L465.874 262.057H439.214L449.76 218.331H443.242L431.816 262.057H404.204ZM520.293 196.139H526.958L532.378 174.239H525.053L520.293 196.139ZM475.688 261.91L500.078 167.135C501.543 162.398 503.3 158.712 505.351 156.075C507.402 153.536 511.552 152.267 517.802 152.267H547.026C550.786 152.267 553.691 152.535 555.742 153.072C558.037 153.658 559.697 154.659 560.722 156.075C561.699 157.784 562.114 160.177 561.967 163.253C561.674 165.987 560.869 169.649 559.55 174.239L537.651 262.13H509.966L521.465 218.331H513.921L503.081 262.13L475.688 261.91ZM551.421 248.653L572.075 165.45C572.807 163.058 573.564 161.056 574.345 159.444C574.883 157.735 575.737 156.393 576.909 155.416C578.032 154.244 579.668 153.512 581.816 153.219C583.769 152.779 586.479 152.486 589.946 152.34H617.998C624.883 152.34 629.594 153.854 632.133 156.881C634.477 159.762 634.843 164.425 633.232 170.87L627.007 196.212H599.98L605.034 174.312H597.783L580.937 240.45H588.188L594.121 218.331H621.294L613.237 248.873C612.016 253.854 610.405 257.345 608.403 259.347C606.255 261.251 602.715 262.13 597.783 261.983H565.703C562.041 262.13 559.233 262.13 557.28 261.983C554.79 261.69 553.056 261.104 552.08 260.226C551.054 259.249 550.542 257.882 550.542 256.124C550.444 254.269 550.737 251.778 551.421 248.653ZM619.902 261.91L646.635 152.706H673.882L666.264 181.637L683.037 152.706H709.843L678.349 207.271L682.744 261.91H655.571L654.472 230.855L646.855 261.91H619.902ZM714.531 168.746C715.654 163.473 717.461 159.347 719.951 156.368C722.148 153.683 726.25 152.389 732.256 152.486H763.969C767.876 152.389 770.903 152.755 773.051 153.585C774.907 154.562 776.176 155.855 776.86 157.467C777.446 158.883 777.641 160.445 777.446 162.154C777.055 164.156 776.665 165.938 776.274 167.501L772.173 185.152H745.805L748.442 174.166H739.067L733.94 196.139H769.463L757.378 246.896C756.108 252.169 754.399 256.026 752.251 258.468C749.712 260.763 745.586 261.91 739.873 261.91H708.672C704.033 261.91 700.444 260.323 697.905 257.149C695.61 254.317 694.853 250.533 695.634 245.797L699.956 229.098H726.03L723.247 240.011H732.841L737.968 218.185H702.446L714.531 168.746Z" />
  </mask>
  <path
    d="M130.644 174.239L113.652 240.157L120.976 240.377L137.309 174.239H130.644ZM94.3161 262.057C90.2634 262.203 87.4557 260.836 85.8932 257.955C84.3307 254.928 83.989 251.778 84.8679 248.507L104.057 168.673C105.229 164.083 107.011 160.299 109.404 157.32C111.797 154.146 114.751 152.486 118.266 152.34H155.18C160.063 152.779 163.359 154.659 165.068 157.979C166.875 161.104 167.094 165.328 165.727 170.65L149.907 233.053C149.467 234.762 149.321 236.397 149.467 237.96C149.76 239.571 150.932 240.377 152.983 240.377H160.088L154.301 262.057H143.901C142.778 262.203 141.753 261.983 140.825 261.397C139.897 260.812 139.604 259.444 139.946 257.296C139.311 259.005 138.359 260.299 137.09 261.178C135.82 261.91 134.209 262.203 132.256 262.057H94.3161ZM251.347 152.413L229.887 240.011H239.116L261.015 152.413H287.016L260.063 261.91H182.793C176.689 261.91 172.368 260.47 169.829 257.589C167.29 254.61 166.924 248.824 168.73 240.23L190.263 152.413H215.971L195.024 240.011H204.253L224.614 152.413H251.347ZM269.072 262.057L297.05 152.193H350.151L343.925 174.166H318.73L313.383 196.065H338.286L332.866 218.185H307.671L301.811 240.157H327.373L322.026 262.057H269.072ZM379.887 174.459L373.882 196.212H381.352L386.626 174.459H379.887ZM330.742 262.057L358.061 152.34H399.37C404.741 152.438 408.696 153.585 411.235 155.782C414.116 158.077 415.752 162.008 416.142 167.574L406.108 204.635C405.522 206.979 404.497 209.029 403.032 210.787C401.762 212.203 400.346 213.424 398.784 214.449C397.221 215.426 395.732 216.28 394.316 217.013C392.851 217.452 391.631 217.892 390.654 218.331L397.978 262.057H371.318L366.264 227.486L357.988 262.057H330.742ZM404.204 262.057L432.256 152.56H459.135L448.076 196.358H455.547L466.313 152.56H493.193L465.874 262.057H439.214L449.76 218.331H443.242L431.816 262.057H404.204ZM520.293 196.139H526.958L532.378 174.239H525.053L520.293 196.139ZM475.688 261.91L500.078 167.135C501.543 162.398 503.3 158.712 505.351 156.075C507.402 153.536 511.552 152.267 517.802 152.267H547.026C550.786 152.267 553.691 152.535 555.742 153.072C558.037 153.658 559.697 154.659 560.722 156.075C561.699 157.784 562.114 160.177 561.967 163.253C561.674 165.987 560.869 169.649 559.55 174.239L537.651 262.13H509.966L521.465 218.331H513.921L503.081 262.13L475.688 261.91ZM551.421 248.653L572.075 165.45C572.807 163.058 573.564 161.056 574.345 159.444C574.883 157.735 575.737 156.393 576.909 155.416C578.032 154.244 579.668 153.512 581.816 153.219C583.769 152.779 586.479 152.486 589.946 152.34H617.998C624.883 152.34 629.594 153.854 632.133 156.881C634.477 159.762 634.843 164.425 633.232 170.87L627.007 196.212H599.98L605.034 174.312H597.783L580.937 240.45H588.188L594.121 218.331H621.294L613.237 248.873C612.016 253.854 610.405 257.345 608.403 259.347C606.255 261.251 602.715 262.13 597.783 261.983H565.703C562.041 262.13 559.233 262.13 557.28 261.983C554.79 261.69 553.056 261.104 552.08 260.226C551.054 259.249 550.542 257.882 550.542 256.124C550.444 254.269 550.737 251.778 551.421 248.653ZM619.902 261.91L646.635 152.706H673.882L666.264 181.637L683.037 152.706H709.843L678.349 207.271L682.744 261.91H655.571L654.472 230.855L646.855 261.91H619.902ZM714.531 168.746C715.654 163.473 717.461 159.347 719.951 156.368C722.148 153.683 726.25 152.389 732.256 152.486H763.969C767.876 152.389 770.903 152.755 773.051 153.585C774.907 154.562 776.176 155.855 776.86 157.467C777.446 158.883 777.641 160.445 777.446 162.154C777.055 164.156 776.665 165.938 776.274 167.501L772.173 185.152H745.805L748.442 174.166H739.067L733.94 196.139H769.463L757.378 246.896C756.108 252.169 754.399 256.026 752.251 258.468C749.712 260.763 745.586 261.91 739.873 261.91H708.672C704.033 261.91 700.444 260.323 697.905 257.149C695.61 254.317 694.853 250.533 695.634 245.797L699.956 229.098H726.03L723.247 240.011H732.841L737.968 218.185H702.446L714.531 168.746Z"
    fill="#05034A" />
  <path
    d="M130.644 174.239V165.239H123.67L121.929 171.993L130.644 174.239ZM113.652 240.157L104.937 237.911L102.126 248.815L113.382 249.153L113.652 240.157ZM120.976 240.377L120.706 249.373L127.971 249.591L129.714 242.535L120.976 240.377ZM137.309 174.239L146.047 176.397L148.802 165.239H137.309V174.239ZM94.3161 262.057V253.057H94.1535L93.991 253.063L94.3161 262.057ZM85.8932 257.955L77.8957 262.083L77.938 262.165L77.982 262.246L85.8932 257.955ZM84.8679 248.507L93.5597 250.842L93.5907 250.726L93.6186 250.61L84.8679 248.507ZM104.057 168.673L95.3371 166.446L95.3214 166.508L95.3066 166.569L104.057 168.673ZM109.404 157.32L116.421 162.957L116.507 162.849L116.591 162.738L109.404 157.32ZM118.266 152.34V143.34H118.079L117.892 143.348L118.266 152.34ZM155.18 152.34L155.987 143.376L155.585 143.34H155.18V152.34ZM165.068 157.979L157.066 162.098L157.166 162.294L157.276 162.484L165.068 157.979ZM165.727 170.65L157.01 168.411L157.007 168.425L157.003 168.439L165.727 170.65ZM149.907 233.053L158.623 235.294L158.627 235.279L158.631 235.264L149.907 233.053ZM149.467 237.96L140.507 238.8L140.543 239.187L140.613 239.57L149.467 237.96ZM160.088 240.377L168.783 242.698L171.805 231.377H160.088V240.377ZM154.301 262.057V271.057H161.214L162.997 264.377L154.301 262.057ZM143.901 262.057V253.057H143.317L142.737 253.132L143.901 262.057ZM139.946 257.296L148.834 258.71L131.509 254.162L139.946 257.296ZM137.09 261.178L141.587 268.973L141.908 268.788L142.212 268.577L137.09 261.178ZM132.256 262.057L132.929 253.082L132.593 253.057H132.256V262.057ZM121.929 171.993L104.937 237.911L122.367 242.404L139.359 176.486L121.929 171.993ZM113.382 249.153L120.706 249.373L121.246 231.381L113.922 231.161L113.382 249.153ZM129.714 242.535L146.047 176.397L128.572 172.081L112.239 238.219L129.714 242.535ZM137.309 165.239H130.644V183.239H137.309V165.239ZM93.991 253.063C93.0122 253.098 92.8515 252.923 93.1111 253.049C93.2473 253.116 93.4154 253.226 93.5718 253.378C93.7251 253.527 93.7942 253.645 93.8045 253.664L77.982 262.246C81.5925 268.903 88.1479 271.285 94.6412 271.051L93.991 253.063ZM93.8908 253.827C93.3503 252.78 93.2662 251.934 93.5597 250.842L76.1761 246.172C74.7117 251.622 75.3112 257.076 77.8957 262.083L93.8908 253.827ZM93.6186 250.61L112.808 170.776L95.3066 166.569L76.1171 246.403L93.6186 250.61ZM112.778 170.899C113.706 167.264 115.002 164.723 116.421 162.957L102.387 151.684C99.0211 155.875 96.7526 160.902 95.3371 166.446L112.778 170.899ZM116.591 162.738C117.599 161.401 118.186 161.351 118.641 161.332L117.892 143.348C111.315 143.622 105.995 146.892 102.217 151.903L116.591 162.738ZM118.266 161.34H155.18V143.34H118.266V161.34ZM154.374 161.304C155.89 161.44 156.605 161.755 156.855 161.897C157.015 161.988 157.023 162.015 157.066 162.098L173.07 153.861C169.517 146.957 162.86 143.995 155.987 143.376L154.374 161.304ZM157.276 162.484C157.413 162.721 158.091 164.204 157.01 168.411L174.444 172.89C176.098 166.453 176.336 159.488 172.86 153.475L157.276 162.484ZM157.003 168.439L141.183 230.841L158.631 235.264L174.451 172.862L157.003 168.439ZM141.19 230.811C140.524 233.402 140.252 236.084 140.507 238.8L158.428 237.12C158.39 236.711 158.411 236.122 158.623 235.294L141.19 230.811ZM140.613 239.57C141.117 242.346 142.603 245.22 145.467 247.189C148.082 248.987 150.906 249.377 152.983 249.377V231.377C153.009 231.377 154.222 231.364 155.665 232.356C157.357 233.52 158.111 235.185 158.322 236.35L140.613 239.57ZM152.983 249.377H160.088V231.377H152.983V249.377ZM151.392 238.056L145.606 259.736L162.997 264.377L168.783 242.698L151.392 238.056ZM154.301 253.057H143.901V271.057H154.301V253.057ZM142.737 253.132C143.11 253.084 143.609 253.08 144.175 253.201C144.746 253.324 145.241 253.542 145.631 253.788L136.019 269.007C138.783 270.753 141.932 271.39 145.065 270.981L142.737 253.132ZM145.631 253.788C147.738 255.119 148.495 257.047 148.71 258.047C148.888 258.88 148.751 259.23 148.834 258.71L131.058 255.882C130.799 257.51 130.638 259.618 131.109 261.818C131.616 264.186 132.984 267.09 136.019 269.007L145.631 253.788ZM131.509 254.162C131.445 254.335 131.425 254.325 131.507 254.214C131.596 254.092 131.751 253.928 131.967 253.778L142.212 268.577C145.256 266.471 147.225 263.546 148.383 260.43L131.509 254.162ZM132.592 253.382C132.951 253.175 133.227 253.109 133.319 253.092C133.396 253.078 133.286 253.109 132.929 253.082L131.582 271.031C134.743 271.268 138.304 270.868 141.587 268.973L132.592 253.382ZM132.256 253.057H94.3161V271.057H132.256V253.057ZM251.347 152.413L260.089 154.555L262.818 143.413H251.347V152.413ZM229.887 240.011L221.146 237.869L218.416 249.011H229.887V240.011ZM239.116 240.011V249.011H246.143L247.847 242.194L239.116 240.011ZM261.015 152.413V143.413H253.988L252.284 150.23L261.015 152.413ZM287.016 152.413L295.755 154.564L298.5 143.413H287.016V152.413ZM260.063 261.91V270.91H267.116L268.802 264.061L260.063 261.91ZM169.829 257.589L162.98 263.427L163.028 263.484L163.077 263.54L169.829 257.589ZM168.73 240.23L159.989 238.087L159.953 238.232L159.923 238.379L168.73 240.23ZM190.263 152.413V143.413H183.204L181.522 150.27L190.263 152.413ZM215.971 152.413L224.725 154.506L227.377 143.413H215.971V152.413ZM195.024 240.011L186.271 237.918L183.618 249.011H195.024V240.011ZM204.253 240.011V249.011H211.401L213.019 242.048L204.253 240.011ZM224.614 152.413V143.413H217.466L215.848 150.375L224.614 152.413ZM242.606 150.272L221.146 237.869L238.629 242.152L260.089 154.555L242.606 150.272ZM229.887 249.011H239.116V231.011H229.887V249.011ZM247.847 242.194L269.747 154.596L252.284 150.23L230.385 237.828L247.847 242.194ZM261.015 161.413H287.016V143.413H261.015V161.413ZM278.277 150.262L251.324 259.759L268.802 264.061L295.755 154.564L278.277 150.262ZM260.063 252.91H182.793V270.91H260.063V252.91ZM182.793 252.91C177.774 252.91 176.622 251.685 176.581 251.638L163.077 263.54C168.114 269.255 175.604 270.91 182.793 270.91V252.91ZM176.678 251.75C177.148 252.301 176.749 252.291 176.632 250.447C176.519 248.667 176.725 245.947 177.538 242.082L159.923 238.379C158.929 243.107 158.414 247.578 158.668 251.584C158.917 255.526 159.971 259.898 162.98 263.427L176.678 251.75ZM177.471 242.374L199.004 154.556L181.522 150.27L159.989 238.087L177.471 242.374ZM190.263 161.413H215.971V143.413H190.263V161.413ZM207.218 150.32L186.271 237.918L203.777 242.104L224.725 154.506L207.218 150.32ZM195.024 249.011H204.253V231.011H195.024V249.011ZM213.019 242.048L233.38 154.451L215.848 150.375L195.486 237.973L213.019 242.048ZM224.614 161.413H251.347V143.413H224.614V161.413ZM269.072 262.057L260.35 259.836L257.493 271.057H269.072V262.057ZM297.05 152.193V143.193H290.055L288.329 149.972L297.05 152.193ZM350.151 152.193L358.81 154.647L362.055 143.193H350.151V152.193ZM343.925 174.166V183.166H350.73L352.585 176.619L343.925 174.166ZM318.73 174.166V165.166H311.663L309.987 172.031L318.73 174.166ZM313.383 196.065L304.64 193.931L301.922 205.065H313.383V196.065ZM338.286 196.065L347.027 198.207L349.757 187.065H338.286V196.065ZM332.866 218.185V227.185H339.927L341.607 220.327L332.866 218.185ZM307.671 218.185V209.185H300.756L298.974 215.866L307.671 218.185ZM301.811 240.157L293.115 237.838L290.097 249.157H301.811V240.157ZM327.373 240.157L336.116 242.292L338.834 231.157H327.373V240.157ZM322.026 262.057V271.057H329.093L330.769 264.191L322.026 262.057ZM277.794 264.278L305.772 154.414L288.329 149.972L260.35 259.836L277.794 264.278ZM297.05 161.193H350.151V143.193H297.05V161.193ZM341.492 149.74L335.266 171.713L352.585 176.619L358.81 154.647L341.492 149.74ZM343.925 165.166H318.73V183.166H343.925V165.166ZM309.987 172.031L304.64 193.931L322.127 198.2L327.473 176.301L309.987 172.031ZM313.383 205.065H338.286V187.065H313.383V205.065ZM329.544 193.924L324.124 216.043L341.607 220.327L347.027 198.207L329.544 193.924ZM332.866 209.185H307.671V227.185H332.866V209.185ZM298.974 215.866L293.115 237.838L310.507 242.476L316.367 220.504L298.974 215.866ZM301.811 249.157H327.373V231.157H301.811V249.157ZM318.63 238.023L313.283 259.922L330.769 264.191L336.116 242.292L318.63 238.023ZM322.026 253.057H269.072V271.057H322.026V253.057ZM379.887 174.459V165.459H373.036L371.212 172.064L379.887 174.459ZM373.882 196.212L365.206 193.817L362.06 205.212H373.882V196.212ZM381.352 196.212V205.212H388.431L390.099 198.332L381.352 196.212ZM386.626 174.459L395.372 176.579L398.068 165.459H386.626V174.459ZM330.742 262.057L322.009 259.882L319.226 271.057H330.742V262.057ZM358.061 152.34V143.34H351.027L349.328 150.165L358.061 152.34ZM399.37 152.34L399.533 143.341L399.452 143.34H399.37V152.34ZM411.235 155.782L405.346 162.588L405.484 162.708L405.627 162.822L411.235 155.782ZM416.142 167.574L424.829 169.926L425.227 168.46L425.12 166.944L416.142 167.574ZM406.108 204.635L397.421 202.283L397.398 202.367L397.377 202.452L406.108 204.635ZM403.032 210.787L409.733 216.795L409.842 216.674L409.946 216.549L403.032 210.787ZM398.784 214.449L403.554 222.081L403.638 222.028L403.722 221.974L398.784 214.449ZM394.316 217.013L396.902 225.633L397.706 225.392L398.451 225.007L394.316 217.013ZM390.654 218.331L386.961 210.124L380.631 212.972L381.778 219.818L390.654 218.331ZM397.978 262.057V271.057H408.611L406.855 260.57L397.978 262.057ZM371.318 262.057L362.413 263.358L363.538 271.057H371.318V262.057ZM366.264 227.486L375.17 226.184L357.512 225.391L366.264 227.486ZM357.988 262.057V271.057H365.088L366.741 264.152L357.988 262.057ZM371.212 172.064L365.206 193.817L382.557 198.607L388.563 176.854L371.212 172.064ZM373.882 205.212H381.352V187.212H373.882V205.212ZM390.099 198.332L395.372 176.579L377.879 172.339L372.606 194.092L390.099 198.332ZM386.626 165.459H379.887V183.459H386.626V165.459ZM339.475 264.231L366.795 154.514L349.328 150.165L322.009 259.882L339.475 264.231ZM358.061 161.34H399.37V143.34H358.061V161.34ZM399.206 161.338C403.656 161.419 405.111 162.385 405.346 162.588L417.124 148.977C412.281 144.785 405.826 143.456 399.533 143.341L399.206 161.338ZM405.627 162.822C405.712 162.889 406.86 163.86 407.164 168.204L425.12 166.944C424.644 160.155 422.52 153.265 416.843 148.743L405.627 162.822ZM407.455 165.222L397.421 202.283L414.795 206.987L424.829 169.926L407.455 165.222ZM397.377 202.452C397.101 203.556 396.667 204.367 396.118 205.025L409.946 216.549C412.326 213.692 413.944 210.401 414.839 206.818L397.377 202.452ZM396.331 204.779C395.572 205.626 394.746 206.334 393.846 206.925L403.722 221.974C405.947 220.514 407.953 218.78 409.733 216.795L396.331 204.779ZM394.014 206.817C392.627 207.684 391.351 208.414 390.181 209.019L398.451 225.007C400.114 224.147 401.816 223.168 403.554 222.081L394.014 206.817ZM391.73 208.392C390.033 208.901 388.413 209.47 386.961 210.124L394.347 226.538C394.848 226.313 395.67 226.003 396.902 225.633L391.73 208.392ZM381.778 219.818L389.102 263.543L406.855 260.57L399.53 216.844L381.778 219.818ZM397.978 253.057H371.318V271.057H397.978V253.057ZM380.223 260.755L375.17 226.184L357.359 228.788L362.413 263.358L380.223 260.755ZM357.512 225.391L349.235 259.961L366.741 264.152L375.017 229.582L357.512 225.391ZM357.988 253.057H330.742V271.057H357.988V253.057ZM404.204 262.057L395.485 259.823L392.607 271.057H404.204V262.057ZM432.256 152.56V143.56H425.271L423.537 150.326L432.256 152.56ZM459.135 152.56L467.862 154.763L470.69 143.56H459.135V152.56ZM448.076 196.358L439.35 194.155L436.521 205.358H448.076V196.358ZM455.547 196.358V205.358H462.602L464.286 198.507L455.547 196.358ZM466.313 152.56V143.56H459.258L457.573 150.411L466.313 152.56ZM493.193 152.56L501.925 154.738L504.714 143.56H493.193V152.56ZM465.874 262.057V271.057H472.904L474.606 264.235L465.874 262.057ZM439.214 262.057L430.464 259.946L427.785 271.057H439.214V262.057ZM449.76 218.331L458.51 220.441L461.189 209.331H449.76V218.331ZM443.242 218.331V209.331H436.291L434.534 216.056L443.242 218.331ZM431.816 262.057V271.057H438.767L440.524 264.332L431.816 262.057ZM412.922 264.29L440.974 154.793L423.537 150.326L395.485 259.823L412.922 264.29ZM432.256 161.56H459.135V143.56H432.256V161.56ZM450.409 150.356L439.35 194.155L456.802 198.562L467.862 154.763L450.409 150.356ZM448.076 205.358H455.547V187.358H448.076V205.358ZM464.286 198.507L475.053 154.708L457.573 150.411L446.807 194.21L464.286 198.507ZM466.313 161.56H493.193V143.56H466.313V161.56ZM484.461 150.381L457.141 259.878L474.606 264.235L501.925 154.738L484.461 150.381ZM465.874 253.057H439.214V271.057H465.874V253.057ZM447.963 264.167L458.51 220.441L441.011 216.221L430.464 259.946L447.963 264.167ZM449.76 209.331H443.242V227.331H449.76V209.331ZM434.534 216.056L423.108 259.781L440.524 264.332L451.949 220.606L434.534 216.056ZM431.816 253.057H404.204V271.057H431.816V253.057ZM520.293 196.139L511.498 194.227L509.126 205.139H520.293V196.139ZM526.958 196.139V205.139H534.002L535.694 198.301L526.958 196.139ZM532.378 174.239L541.114 176.401L543.877 165.239H532.378V174.239ZM525.053 174.239V165.239H517.8L516.259 172.327L525.053 174.239ZM475.688 261.91L466.972 259.667L464.103 270.818L475.616 270.91L475.688 261.91ZM500.078 167.135L491.48 164.476L491.416 164.682L491.362 164.892L500.078 167.135ZM505.351 156.075L498.35 150.42L498.298 150.484L498.247 150.55L505.351 156.075ZM555.742 153.072L553.462 161.779L553.489 161.786L553.515 161.793L555.742 153.072ZM560.722 156.075L568.537 151.61L568.296 151.189L568.012 150.797L560.722 156.075ZM561.967 163.253L570.916 164.212L570.945 163.947L570.957 163.681L561.967 163.253ZM559.55 174.239L550.9 171.755L550.856 171.908L550.817 172.063L559.55 174.239ZM537.651 262.13V271.13H544.684L546.384 264.306L537.651 262.13ZM509.966 262.13L501.261 259.844L498.298 271.13H509.966V262.13ZM521.465 218.331L530.17 220.616L533.132 209.331H521.465V218.331ZM513.921 218.331V209.331H506.876L505.184 216.169L513.921 218.331ZM503.081 262.13L503.009 271.13L510.111 271.187L511.817 264.292L503.081 262.13ZM520.293 205.139H526.958V187.139H520.293V205.139ZM535.694 198.301L541.114 176.401L523.641 172.077L518.221 193.976L535.694 198.301ZM532.378 165.239H525.053V183.239H532.378V165.239ZM516.259 172.327L511.498 194.227L529.087 198.051L533.848 176.151L516.259 172.327ZM484.404 264.153L508.794 169.378L491.362 164.892L466.972 259.667L484.404 264.153ZM508.676 169.794C509.961 165.641 511.312 163.071 512.455 161.601L498.247 150.55C495.289 154.353 493.125 159.156 491.48 164.476L508.676 169.794ZM512.353 161.73C511.932 162.252 511.721 162.105 512.635 161.825C513.572 161.538 515.213 161.267 517.802 161.267V143.267C511.113 143.267 503.155 144.471 498.35 150.42L512.353 161.73ZM517.802 161.267H547.026V143.267H517.802V161.267ZM547.026 161.267C550.511 161.267 552.517 161.531 553.462 161.779L558.022 144.366C554.865 143.539 551.061 143.267 547.026 143.267V161.267ZM553.515 161.793C553.992 161.914 554.129 162.011 554.061 161.97C554.022 161.947 553.932 161.887 553.814 161.781C553.694 161.673 553.561 161.53 553.433 161.354L568.012 150.797C565.376 147.157 561.578 145.274 557.968 144.352L553.515 161.793ZM552.908 160.54C552.773 160.304 552.829 160.291 552.898 160.69C552.968 161.091 553.027 161.778 552.978 162.825L570.957 163.681C571.143 159.782 570.715 155.423 568.537 151.61L552.908 160.54ZM553.019 162.294C552.807 164.27 552.163 167.357 550.9 171.755L568.201 176.724C569.574 171.941 570.542 167.704 570.916 164.212L553.019 162.294ZM550.817 172.063L528.918 259.954L546.384 264.306L568.283 176.415L550.817 172.063ZM537.651 253.13H509.966V271.13H537.651V253.13ZM518.671 264.415L530.17 220.616L512.76 216.046L501.261 259.844L518.671 264.415ZM521.465 209.331H513.921V227.331H521.465V209.331ZM505.184 216.169L494.344 259.968L511.817 264.292L522.657 220.493L505.184 216.169ZM503.153 253.13L475.76 252.91L475.616 270.91L503.009 271.13L503.153 253.13ZM551.421 248.653L542.686 246.485L542.655 246.607L542.628 246.73L551.421 248.653ZM572.075 165.45L563.469 162.816L563.398 163.047L563.34 163.282L572.075 165.45ZM574.345 159.444L582.444 163.371L582.733 162.775L582.931 162.143L574.345 159.444ZM576.909 155.416L582.671 162.33L583.058 162.007L583.407 161.643L576.909 155.416ZM581.816 153.219L583.032 162.136L583.415 162.084L583.792 161.999L581.816 153.219ZM589.946 152.34V143.34H589.756L589.566 143.348L589.946 152.34ZM632.133 156.881L639.115 151.201L639.072 151.149L639.029 151.097L632.133 156.881ZM633.232 170.87L624.501 168.687L624.496 168.705L624.492 168.723L633.232 170.87ZM627.007 196.212V205.212H634.063L635.747 198.359L627.007 196.212ZM599.98 196.212L591.211 194.188L588.667 205.212H599.98V196.212ZM605.034 174.312L613.803 176.336L616.347 165.312H605.034V174.312ZM597.783 174.312V165.312H590.788L589.061 172.091L597.783 174.312ZM580.937 240.45L572.216 238.229L569.357 249.45H580.937V240.45ZM588.188 240.45V249.45H595.092L596.881 242.782L588.188 240.45ZM594.121 218.331V209.331H587.217L585.428 216L594.121 218.331ZM621.294 218.331L629.996 220.627L632.976 209.331H621.294V218.331ZM613.237 248.873L604.535 246.577L604.515 246.654L604.496 246.731L613.237 248.873ZM608.403 259.347L614.373 266.082L614.575 265.902L614.767 265.711L608.403 259.347ZM597.783 261.983L598.05 252.987L597.917 252.983H597.783V261.983ZM565.703 261.983V252.983H565.523L565.343 252.991L565.703 261.983ZM557.28 261.983L556.228 270.922L556.417 270.944L556.607 270.958L557.28 261.983ZM552.08 260.226L545.873 266.743L545.965 266.83L546.059 266.915L552.08 260.226ZM550.542 256.124H559.542V255.887L559.529 255.651L550.542 256.124ZM560.155 250.822L580.81 167.619L563.34 163.282L542.686 246.485L560.155 250.822ZM580.681 168.085C581.326 165.975 581.926 164.438 582.444 163.371L566.247 155.518C565.202 157.673 564.288 160.14 563.469 162.816L580.681 168.085ZM582.931 162.143C582.993 161.947 583.027 161.917 582.982 161.987C582.96 162.022 582.923 162.075 582.867 162.139C582.811 162.202 582.745 162.268 582.671 162.33L571.147 148.502C568.432 150.765 566.722 153.682 565.759 156.746L582.931 162.143ZM583.407 161.643C583.085 161.978 582.787 162.143 582.656 162.202C582.547 162.251 582.636 162.19 583.032 162.136L580.6 144.301C577.114 144.777 573.349 146.123 570.411 149.189L583.407 161.643ZM583.792 161.999C584.975 161.733 587.068 161.469 590.326 161.332L589.566 143.348C585.891 143.503 582.563 143.826 579.84 144.438L583.792 161.999ZM589.946 161.34H617.998V143.34H589.946V161.34ZM617.998 161.34C620.842 161.34 622.748 161.66 623.943 162.044C625.089 162.412 625.304 162.743 625.238 162.664L639.029 151.097C633.858 144.931 625.661 143.34 617.998 143.34V161.34ZM625.152 162.561C624.903 162.254 625.116 162.26 625.194 163.243C625.276 164.292 625.161 166.045 624.501 168.687L641.963 173.053C643.742 165.939 644.267 157.534 639.115 151.201L625.152 162.561ZM624.492 168.723L618.266 194.065L635.747 198.359L641.972 173.017L624.492 168.723ZM627.007 187.212H599.98V205.212H627.007V187.212ZM608.75 198.236L613.803 176.336L596.264 172.289L591.211 194.188L608.75 198.236ZM605.034 165.312H597.783V183.312H605.034V165.312ZM589.061 172.091L572.216 238.229L589.659 242.672L606.504 176.534L589.061 172.091ZM580.937 249.45H588.188V231.45H580.937V249.45ZM596.881 242.782L602.814 220.663L585.428 216L579.495 238.119L596.881 242.782ZM594.121 227.331H621.294V209.331H594.121V227.331ZM612.591 216.035L604.535 246.577L621.939 251.169L629.996 220.627L612.591 216.035ZM604.496 246.731C603.394 251.226 602.271 252.75 602.039 252.983L614.767 265.711C618.539 261.939 620.639 256.481 621.978 251.016L604.496 246.731ZM602.433 252.612C602.701 252.375 602.7 252.518 601.968 252.699C601.218 252.885 599.964 253.044 598.05 252.987L597.516 270.979C603.216 271.149 609.635 270.281 614.373 266.082L602.433 252.612ZM597.783 252.983H565.703V270.983H597.783V252.983ZM565.343 252.991C561.784 253.133 559.385 253.116 557.953 253.009L556.607 270.958C559.081 271.144 562.297 271.127 566.063 270.976L565.343 252.991ZM558.332 253.045C557.93 252.998 557.62 252.946 557.388 252.897C557.154 252.849 557.03 252.81 556.994 252.798C556.956 252.785 557.051 252.814 557.234 252.912C557.417 253.012 557.733 253.206 558.1 253.536L546.059 266.915C549.2 269.742 553.318 270.579 556.228 270.922L558.332 253.045ZM558.287 253.708C558.789 254.187 559.148 254.76 559.353 255.308C559.544 255.817 559.542 256.138 559.542 256.124H541.542C541.542 259.711 542.651 263.675 545.873 266.743L558.287 253.708ZM559.529 255.651C559.494 254.974 559.596 253.394 560.213 250.577L542.628 246.73C541.878 250.163 541.394 253.563 541.554 256.597L559.529 255.651ZM619.902 261.91L611.16 259.77L608.433 270.91H619.902V261.91ZM646.635 152.706V143.706H639.573L637.894 150.566L646.635 152.706ZM673.882 152.706L682.585 154.998L685.558 143.706H673.882V152.706ZM666.264 181.637L657.561 179.345L674.05 186.151L666.264 181.637ZM683.037 152.706V143.706H677.851L675.251 148.192L683.037 152.706ZM709.843 152.706L717.638 157.205L725.43 143.706H709.843V152.706ZM678.349 207.271L670.555 202.772L669.154 205.2L669.378 207.993L678.349 207.271ZM682.744 261.91V270.91H692.497L691.715 261.189L682.744 261.91ZM655.571 261.91L646.577 262.228L646.884 270.91H655.571V261.91ZM654.472 230.855L663.467 230.537L645.731 228.711L654.472 230.855ZM646.855 261.91V270.91H653.914L655.596 264.054L646.855 261.91ZM628.644 264.05L655.377 154.846L637.894 150.566L611.16 259.77L628.644 264.05ZM646.635 161.706H673.882V143.706H646.635V161.706ZM665.178 150.415L657.561 179.345L674.968 183.928L682.585 154.998L665.178 150.415ZM674.05 186.151L690.823 157.22L675.251 148.192L658.478 177.123L674.05 186.151ZM683.037 161.706H709.843V143.706H683.037V161.706ZM702.049 148.207L670.555 202.772L686.144 211.77L717.638 157.205L702.049 148.207ZM669.378 207.993L673.773 262.632L691.715 261.189L687.32 206.55L669.378 207.993ZM682.744 252.91H655.571V270.91H682.744V252.91ZM664.565 261.592L663.467 230.537L645.478 231.174L646.577 262.228L664.565 261.592ZM645.731 228.711L638.114 259.766L655.596 264.054L663.213 232.999L645.731 228.711ZM646.855 252.91H619.902V270.91H646.855V252.91ZM714.531 168.746L723.274 170.883L723.305 170.752L723.334 170.621L714.531 168.746ZM719.951 156.368L726.856 162.141L726.886 162.104L726.917 162.067L719.951 156.368ZM732.256 152.486L732.109 161.485L732.182 161.486H732.256V152.486ZM763.969 152.486V161.486H764.082L764.194 161.484L763.969 152.486ZM773.051 153.585L777.243 145.621L776.782 145.378L776.295 145.19L773.051 153.585ZM776.86 157.467L785.176 154.026L785.161 153.989L785.145 153.952L776.86 157.467ZM777.446 162.154L786.279 163.878L786.347 163.529L786.388 163.176L777.446 162.154ZM776.274 167.501L767.543 165.318L767.525 165.391L767.508 165.464L776.274 167.501ZM772.173 185.152V194.152H779.321L780.939 187.189L772.173 185.152ZM745.805 185.152L737.054 183.052L734.39 194.152H745.805V185.152ZM748.442 174.166L757.194 176.266L759.858 165.166H748.442V174.166ZM739.067 174.166V165.166H731.925L730.302 172.121L739.067 174.166ZM733.94 196.139L725.176 194.094L722.598 205.139H733.94V196.139ZM769.463 196.139L778.218 198.223L780.857 187.139H769.463V196.139ZM757.378 246.896L766.128 249.002L766.13 248.991L766.133 248.98L757.378 246.896ZM752.251 258.468L758.286 265.145L758.667 264.8L759.007 264.413L752.251 258.468ZM697.905 257.149L704.933 251.527L704.915 251.505L704.897 251.483L697.905 257.149ZM695.634 245.797L686.921 243.542L686.82 243.933L686.754 244.332L695.634 245.797ZM699.956 229.098V220.098H692.988L691.243 226.843L699.956 229.098ZM726.03 229.098L734.751 231.322L737.613 220.098H726.03V229.098ZM723.247 240.011L714.526 237.787L711.663 249.011H723.247V240.011ZM732.841 240.011V249.011H739.972L741.603 242.069L732.841 240.011ZM737.968 218.185L746.73 220.243L749.328 209.185H737.968V218.185ZM702.446 218.185L693.703 216.047L690.981 227.185H702.446V218.185ZM723.334 170.621C724.263 166.254 725.6 163.642 726.856 162.141L713.046 150.595C709.321 155.051 707.045 160.691 705.728 166.871L723.334 170.621ZM726.917 162.067C726.667 162.372 726.601 162.213 727.383 161.967C728.225 161.701 729.72 161.446 732.109 161.485L732.402 143.488C725.586 143.377 717.864 144.706 712.985 150.669L726.917 162.067ZM732.256 161.486H763.969V143.486H732.256V161.486ZM764.194 161.484C767.627 161.398 769.276 161.775 769.808 161.98L776.295 145.19C772.53 143.735 768.125 143.38 763.745 143.489L764.194 161.484ZM768.86 161.549C769.088 161.67 769.083 161.705 768.971 161.591C768.915 161.534 768.843 161.45 768.768 161.339C768.693 161.227 768.627 161.106 768.575 160.982L785.145 153.952C783.499 150.07 780.557 147.365 777.243 145.621L768.86 161.549ZM768.544 160.908C768.534 160.884 768.526 160.86 768.521 160.84C768.516 160.82 768.515 160.811 768.516 160.817C768.517 160.827 768.528 160.924 768.504 161.132L786.388 163.176C786.735 160.14 786.414 157.018 785.176 154.026L768.544 160.908ZM768.613 160.431C768.245 162.317 767.887 163.942 767.543 165.318L785.005 169.684C785.443 167.935 785.866 165.995 786.279 163.878L768.613 160.431ZM767.508 165.464L763.406 183.115L780.939 187.189L785.041 169.538L767.508 165.464ZM772.173 176.152H745.805V194.152H772.173V176.152ZM754.557 187.253L757.194 176.266L739.691 172.066L737.054 183.052L754.557 187.253ZM748.442 165.166H739.067V183.166H748.442V165.166ZM730.302 172.121L725.176 194.094L742.705 198.184L747.832 176.211L730.302 172.121ZM733.94 205.139H769.463V187.139H733.94V205.139ZM760.707 194.054L748.622 244.811L766.133 248.98L778.218 198.223L760.707 194.054ZM748.628 244.789C747.499 249.476 746.234 251.682 745.494 252.522L759.007 264.413C762.564 260.371 764.717 254.862 766.128 249.002L748.628 244.789ZM746.216 251.791C746.133 251.866 744.745 252.91 739.873 252.91V270.91C746.426 270.91 753.29 269.66 758.286 265.145L746.216 251.791ZM739.873 252.91H708.672V270.91H739.873V252.91ZM708.672 252.91C706.331 252.91 705.509 252.247 704.933 251.527L690.877 262.772C695.379 268.399 701.735 270.91 708.672 270.91V252.91ZM704.897 251.483C704.695 251.233 704.011 250.311 704.514 247.262L686.754 244.332C685.695 250.755 686.525 257.401 690.913 262.816L704.897 251.483ZM704.347 248.052L708.669 231.352L691.243 226.843L686.921 243.542L704.347 248.052ZM699.956 238.098H726.03V220.098H699.956V238.098ZM717.309 226.874L714.526 237.787L731.968 242.235L734.751 231.322L717.309 226.874ZM723.247 249.011H732.841V231.011H723.247V249.011ZM741.603 242.069L746.73 220.243L729.207 216.126L724.08 237.953L741.603 242.069ZM737.968 209.185H702.446V227.185H737.968V209.185ZM711.189 220.322L723.274 170.883L705.788 166.609L693.703 216.047L711.189 220.322Z"
    fill="#05034A" mask="url(#path-6-outside-1_1374_2351)" />
  <mask id="path-8-outside-2_1374_2351" maskUnits="userSpaceOnUse" x="65.041" y="136.777"
    width="712" height="129" fill="black">
    <rect fill="white" x="65.041" y="136.777" width="712" height="129" />
    <path
      d="M120.558 168.106L103.566 234.024L110.89 234.244L127.223 168.106H120.558ZM84.2302 255.923C80.1774 256.07 77.3698 254.703 75.8073 251.822C74.2448 248.794 73.903 245.645 74.7819 242.374L93.9714 162.54C95.1432 157.95 96.9255 154.166 99.3181 151.187C101.711 148.013 104.665 146.353 108.18 146.207H145.094C149.977 146.646 153.273 148.526 154.982 151.846C156.789 154.971 157.008 159.195 155.641 164.517L139.821 226.919C139.382 228.628 139.235 230.264 139.382 231.827C139.674 233.438 140.846 234.244 142.897 234.244H150.002L144.216 255.923H133.815C132.692 256.07 131.667 255.85 130.739 255.264C129.811 254.678 129.518 253.311 129.86 251.163C129.225 252.872 128.273 254.166 127.004 255.044C125.734 255.777 124.123 256.07 122.17 255.923H84.2302ZM241.261 146.28L219.801 233.877H229.03L250.929 146.28H276.93L249.977 255.777H172.707C166.603 255.777 162.282 254.336 159.743 251.456C157.204 248.477 156.838 242.691 158.644 234.097L180.177 146.28H205.885L184.938 233.877H194.167L214.528 146.28H241.261ZM258.986 255.923L286.965 146.06H340.065L333.84 168.033H308.644L303.298 189.932H328.2L322.78 212.051H297.585L291.725 234.024H317.287L311.94 255.923H258.986ZM369.801 168.326L363.796 190.079H371.266L376.54 168.326H369.801ZM320.656 255.923L347.975 146.207H389.284C394.655 146.304 398.61 147.452 401.149 149.649C404.03 151.944 405.666 155.875 406.056 161.441L396.022 198.501C395.436 200.845 394.411 202.896 392.946 204.654C391.676 206.07 390.26 207.291 388.698 208.316C387.135 209.292 385.646 210.147 384.23 210.879C382.765 211.319 381.545 211.758 380.568 212.198L387.892 255.923H361.232L356.178 221.353L347.902 255.923H320.656ZM394.118 255.923L422.17 146.426H449.049L437.99 190.225H445.461L456.227 146.426H483.107L455.788 255.923H429.128L439.674 212.198H433.156L421.73 255.923H394.118ZM510.207 190.005H516.872L522.292 168.106H514.967L510.207 190.005ZM465.602 255.777L489.992 161.001C491.457 156.265 493.215 152.579 495.265 149.942C497.316 147.403 501.466 146.133 507.716 146.133H536.94C540.7 146.133 543.605 146.402 545.656 146.939C547.951 147.525 549.611 148.526 550.636 149.942C551.613 151.651 552.028 154.043 551.882 157.12C551.589 159.854 550.783 163.516 549.465 168.106L527.565 255.997H499.88L511.379 212.198H503.835L492.995 255.997L465.602 255.777ZM541.335 242.52L561.989 159.317C562.721 156.924 563.478 154.922 564.259 153.311C564.797 151.602 565.651 150.259 566.823 149.283C567.946 148.111 569.582 147.378 571.73 147.085C573.683 146.646 576.393 146.353 579.86 146.207H607.912C614.797 146.207 619.508 147.72 622.048 150.748C624.391 153.628 624.758 158.292 623.146 164.737L616.921 190.079H589.894L594.948 168.179H587.697L570.851 234.317H578.102L584.035 212.198H611.208L603.151 242.74C601.93 247.72 600.319 251.211 598.317 253.213C596.169 255.118 592.629 255.997 587.697 255.85H555.617C551.955 255.997 549.147 255.997 547.194 255.85C544.704 255.557 542.97 254.971 541.994 254.092C540.968 253.116 540.456 251.749 540.456 249.991C540.358 248.135 540.651 245.645 541.335 242.52ZM609.816 255.777L636.549 146.573H663.796L656.178 175.503L672.951 146.573H699.758L668.263 201.138L672.658 255.777H645.485L644.386 224.722L636.769 255.777H609.816ZM704.445 162.613C705.568 157.339 707.375 153.213 709.865 150.235C712.062 147.549 716.164 146.255 722.17 146.353H753.883C757.79 146.255 760.817 146.622 762.966 147.452C764.821 148.428 766.091 149.722 766.774 151.333C767.36 152.75 767.555 154.312 767.36 156.021C766.969 158.023 766.579 159.805 766.188 161.368L762.087 179.019H735.719L738.356 168.033H728.981L723.854 190.005H759.377L747.292 240.762C746.022 246.036 744.313 249.893 742.165 252.334C739.626 254.629 735.5 255.777 729.787 255.777H698.586C693.947 255.777 690.358 254.19 687.819 251.016C685.524 248.184 684.767 244.4 685.549 239.664L689.87 222.964H715.944L713.161 233.877H722.756L727.883 212.051H692.36L704.445 162.613Z" />
  </mask>
  <path
    d="M120.558 168.106L103.566 234.024L110.89 234.244L127.223 168.106H120.558ZM84.2302 255.923C80.1774 256.07 77.3698 254.703 75.8073 251.822C74.2448 248.794 73.903 245.645 74.7819 242.374L93.9714 162.54C95.1432 157.95 96.9255 154.166 99.3181 151.187C101.711 148.013 104.665 146.353 108.18 146.207H145.094C149.977 146.646 153.273 148.526 154.982 151.846C156.789 154.971 157.008 159.195 155.641 164.517L139.821 226.919C139.382 228.628 139.235 230.264 139.382 231.827C139.674 233.438 140.846 234.244 142.897 234.244H150.002L144.216 255.923H133.815C132.692 256.07 131.667 255.85 130.739 255.264C129.811 254.678 129.518 253.311 129.86 251.163C129.225 252.872 128.273 254.166 127.004 255.044C125.734 255.777 124.123 256.07 122.17 255.923H84.2302ZM241.261 146.28L219.801 233.877H229.03L250.929 146.28H276.93L249.977 255.777H172.707C166.603 255.777 162.282 254.336 159.743 251.456C157.204 248.477 156.838 242.691 158.644 234.097L180.177 146.28H205.885L184.938 233.877H194.167L214.528 146.28H241.261ZM258.986 255.923L286.965 146.06H340.065L333.84 168.033H308.644L303.298 189.932H328.2L322.78 212.051H297.585L291.725 234.024H317.287L311.94 255.923H258.986ZM369.801 168.326L363.796 190.079H371.266L376.54 168.326H369.801ZM320.656 255.923L347.975 146.207H389.284C394.655 146.304 398.61 147.452 401.149 149.649C404.03 151.944 405.666 155.875 406.056 161.441L396.022 198.501C395.436 200.845 394.411 202.896 392.946 204.654C391.676 206.07 390.26 207.291 388.698 208.316C387.135 209.292 385.646 210.147 384.23 210.879C382.765 211.319 381.545 211.758 380.568 212.198L387.892 255.923H361.232L356.178 221.353L347.902 255.923H320.656ZM394.118 255.923L422.17 146.426H449.049L437.99 190.225H445.461L456.227 146.426H483.107L455.788 255.923H429.128L439.674 212.198H433.156L421.73 255.923H394.118ZM510.207 190.005H516.872L522.292 168.106H514.967L510.207 190.005ZM465.602 255.777L489.992 161.001C491.457 156.265 493.215 152.579 495.265 149.942C497.316 147.403 501.466 146.133 507.716 146.133H536.94C540.7 146.133 543.605 146.402 545.656 146.939C547.951 147.525 549.611 148.526 550.636 149.942C551.613 151.651 552.028 154.043 551.882 157.12C551.589 159.854 550.783 163.516 549.465 168.106L527.565 255.997H499.88L511.379 212.198H503.835L492.995 255.997L465.602 255.777ZM541.335 242.52L561.989 159.317C562.721 156.924 563.478 154.922 564.259 153.311C564.797 151.602 565.651 150.259 566.823 149.283C567.946 148.111 569.582 147.378 571.73 147.085C573.683 146.646 576.393 146.353 579.86 146.207H607.912C614.797 146.207 619.508 147.72 622.048 150.748C624.391 153.628 624.758 158.292 623.146 164.737L616.921 190.079H589.894L594.948 168.179H587.697L570.851 234.317H578.102L584.035 212.198H611.208L603.151 242.74C601.93 247.72 600.319 251.211 598.317 253.213C596.169 255.118 592.629 255.997 587.697 255.85H555.617C551.955 255.997 549.147 255.997 547.194 255.85C544.704 255.557 542.97 254.971 541.994 254.092C540.968 253.116 540.456 251.749 540.456 249.991C540.358 248.135 540.651 245.645 541.335 242.52ZM609.816 255.777L636.549 146.573H663.796L656.178 175.503L672.951 146.573H699.758L668.263 201.138L672.658 255.777H645.485L644.386 224.722L636.769 255.777H609.816ZM704.445 162.613C705.568 157.339 707.375 153.213 709.865 150.235C712.062 147.549 716.164 146.255 722.17 146.353H753.883C757.79 146.255 760.817 146.622 762.966 147.452C764.821 148.428 766.091 149.722 766.774 151.333C767.36 152.75 767.555 154.312 767.36 156.021C766.969 158.023 766.579 159.805 766.188 161.368L762.087 179.019H735.719L738.356 168.033H728.981L723.854 190.005H759.377L747.292 240.762C746.022 246.036 744.313 249.893 742.165 252.334C739.626 254.629 735.5 255.777 729.787 255.777H698.586C693.947 255.777 690.358 254.19 687.819 251.016C685.524 248.184 684.767 244.4 685.549 239.664L689.87 222.964H715.944L713.161 233.877H722.756L727.883 212.051H692.36L704.445 162.613Z"
    fill="white" />
  <path
    d="M120.558 168.106V159.106H113.584L111.843 165.859L120.558 168.106ZM103.566 234.024L94.851 231.777L92.04 242.682L103.296 243.02L103.566 234.024ZM110.89 234.244L110.62 243.24L117.885 243.458L119.628 236.401L110.89 234.244ZM127.223 168.106L135.961 170.264L138.716 159.106H127.223V168.106ZM84.2302 255.923V246.923H84.0676L83.9051 246.929L84.2302 255.923ZM75.8073 251.822L67.8097 255.95L67.852 256.032L67.896 256.113L75.8073 251.822ZM74.7819 242.374L83.4737 244.709L83.5047 244.593L83.5327 244.477L74.7819 242.374ZM93.9714 162.54L85.2511 160.313L85.2354 160.375L85.2206 160.436L93.9714 162.54ZM99.3181 151.187L106.335 156.823L106.421 156.715L106.505 156.605L99.3181 151.187ZM108.18 146.207V137.207H107.993L107.806 137.214L108.18 146.207ZM145.094 146.207L145.901 137.243L145.499 137.207H145.094V146.207ZM154.982 151.846L146.98 155.965L147.08 156.16L147.191 156.351L154.982 151.846ZM155.641 164.517L146.924 162.278L146.921 162.292L146.917 162.305L155.641 164.517ZM139.821 226.919L148.537 229.161L148.541 229.146L148.545 229.131L139.821 226.919ZM139.382 231.827L130.421 232.667L130.457 233.054L130.527 233.437L139.382 231.827ZM150.002 234.244L158.697 236.564L161.719 225.244H150.002V234.244ZM144.216 255.923V264.923H151.129L152.911 258.244L144.216 255.923ZM133.815 255.923V246.923H133.231L132.651 246.999L133.815 255.923ZM129.86 251.163L138.748 252.577L121.423 248.029L129.86 251.163ZM127.004 255.044L131.501 262.84L131.822 262.655L132.126 262.444L127.004 255.044ZM122.17 255.923L122.843 246.949L122.507 246.923H122.17V255.923ZM111.843 165.859L94.851 231.777L112.281 236.27L129.273 170.353L111.843 165.859ZM103.296 243.02L110.62 243.24L111.16 225.248L103.836 225.028L103.296 243.02ZM119.628 236.401L135.961 170.264L118.486 165.948L102.153 232.086L119.628 236.401ZM127.223 159.106H120.558V177.106H127.223V159.106ZM83.9051 246.929C82.9263 246.965 82.7656 246.79 83.0252 246.916C83.1614 246.983 83.3294 247.093 83.4858 247.245C83.6391 247.394 83.7083 247.512 83.7186 247.531L67.896 256.113C71.5066 262.77 78.062 265.152 84.5553 264.917L83.9051 246.929ZM83.8049 247.694C83.2643 246.647 83.1803 245.801 83.4737 244.709L66.0901 240.038C64.6258 245.489 65.2253 250.942 67.8097 255.95L83.8049 247.694ZM83.5327 244.477L102.722 164.643L85.2206 160.436L66.0312 240.27L83.5327 244.477ZM102.692 164.766C103.62 161.131 104.916 158.59 106.335 156.823L92.3015 145.551C88.9352 149.741 86.6667 154.769 85.2511 160.313L102.692 164.766ZM106.505 156.605C107.513 155.268 108.1 155.218 108.555 155.199L107.806 137.214C101.229 137.488 95.9086 140.759 92.1313 145.769L106.505 156.605ZM108.18 155.207H145.094V137.207H108.18V155.207ZM144.288 155.17C145.804 155.307 146.52 155.621 146.769 155.764C146.929 155.855 146.937 155.881 146.98 155.965L162.984 147.727C159.431 140.824 152.774 137.861 145.901 137.243L144.288 155.17ZM147.191 156.351C147.327 156.587 148.005 158.07 146.924 162.278L164.358 166.756C166.012 160.319 166.25 153.355 162.774 147.342L147.191 156.351ZM146.917 162.305L131.097 224.708L148.545 229.131L164.365 166.729L146.917 162.305ZM131.105 224.678C130.438 227.268 130.166 229.951 130.421 232.667L148.342 230.987C148.304 230.578 148.325 229.988 148.537 229.161L131.105 224.678ZM130.527 233.437C131.031 236.213 132.517 239.087 135.381 241.056C137.996 242.854 140.82 243.244 142.897 243.244V225.244C142.923 225.244 144.136 225.231 145.579 226.223C147.271 227.386 148.025 229.052 148.236 230.217L130.527 233.437ZM142.897 243.244H150.002V225.244H142.897V243.244ZM141.306 231.923L135.52 253.603L152.911 258.244L158.697 236.564L141.306 231.923ZM144.216 246.923H133.815V264.923H144.216V246.923ZM132.651 246.999C133.024 246.95 133.523 246.947 134.09 247.068C134.66 247.19 135.155 247.409 135.545 247.655L125.933 262.874C128.698 264.62 131.847 265.256 134.979 264.848L132.651 246.999ZM135.545 247.655C137.652 248.986 138.409 250.913 138.624 251.914C138.802 252.746 138.666 253.097 138.748 252.577L120.972 249.749C120.713 251.377 120.552 253.485 121.023 255.685C121.53 258.052 122.898 260.957 125.933 262.874L135.545 247.655ZM121.423 248.029C121.359 248.202 121.339 248.192 121.421 248.081C121.51 247.959 121.665 247.794 121.881 247.645L132.126 262.444C135.17 260.337 137.139 257.413 138.297 254.296L121.423 248.029ZM122.506 247.249C122.865 247.042 123.141 246.975 123.233 246.959C123.31 246.945 123.2 246.975 122.843 246.949L121.497 264.898C124.657 265.135 128.218 264.734 131.501 262.84L122.506 247.249ZM122.17 246.923H84.2302V264.923H122.17V246.923ZM241.261 146.28L250.003 148.421L252.732 137.28H241.261V146.28ZM219.801 233.877L211.06 231.736L208.33 242.877H219.801V233.877ZM229.03 233.877V242.877H236.057L237.761 236.06L229.03 233.877ZM250.929 146.28V137.28H243.902L242.198 144.097L250.929 146.28ZM276.93 146.28L285.669 148.431L288.414 137.28H276.93V146.28ZM249.977 255.777V264.777H257.031L258.716 257.928L249.977 255.777ZM159.743 251.456L152.894 257.294L152.942 257.351L152.991 257.406L159.743 251.456ZM158.644 234.097L149.903 231.954L149.868 232.099L149.837 232.246L158.644 234.097ZM180.177 146.28V137.28H173.118L171.436 144.136L180.177 146.28ZM205.885 146.28L214.639 148.373L217.291 137.28H205.885V146.28ZM184.938 233.877L176.185 231.784L173.532 242.877H184.938V233.877ZM194.167 233.877V242.877H201.315L202.933 235.915L194.167 233.877ZM214.528 146.28V137.28H207.38L205.762 144.242L214.528 146.28ZM232.52 144.138L211.06 231.736L228.543 236.019L250.003 148.421L232.52 144.138ZM219.801 242.877H229.03V224.877H219.801V242.877ZM237.761 236.06L259.661 148.463L242.198 144.097L220.299 231.695L237.761 236.06ZM250.929 155.28H276.93V137.28H250.929V155.28ZM268.191 144.129L241.238 253.626L258.716 257.928L285.669 148.431L268.191 144.129ZM249.977 246.777H172.707V264.777H249.977V246.777ZM172.707 246.777C167.688 246.777 166.536 245.552 166.495 245.505L152.991 257.406C158.028 263.121 165.519 264.777 172.707 264.777V246.777ZM166.592 245.617C167.062 246.168 166.663 246.158 166.546 244.314C166.433 242.533 166.639 239.814 167.452 235.949L149.837 232.246C148.843 236.974 148.328 241.445 148.582 245.451C148.831 249.392 149.885 253.765 152.894 257.294L166.592 245.617ZM167.385 236.241L188.918 148.423L171.436 144.136L149.903 231.954L167.385 236.241ZM180.177 155.28H205.885V137.28H180.177V155.28ZM197.132 144.187L176.185 231.784L193.691 235.971L214.639 148.373L197.132 144.187ZM184.938 242.877H194.167V224.877H184.938V242.877ZM202.933 235.915L223.294 148.317L205.762 144.242L185.4 231.84L202.933 235.915ZM214.528 155.28H241.261V137.28H214.528V155.28ZM258.986 255.923L250.264 253.702L247.407 264.923H258.986V255.923ZM286.965 146.06V137.06H279.969L278.243 143.839L286.965 146.06ZM340.065 146.06L348.724 148.513L351.969 137.06H340.065V146.06ZM333.84 168.033V177.033H340.644L342.499 170.486L333.84 168.033ZM308.644 168.033V159.033H301.577L299.901 165.898L308.644 168.033ZM303.298 189.932L294.554 187.798L291.836 198.932H303.298V189.932ZM328.2 189.932L336.941 192.074L339.671 180.932H328.2V189.932ZM322.78 212.051V221.051H329.841L331.521 214.193L322.78 212.051ZM297.585 212.051V203.051H290.67L288.889 209.732L297.585 212.051ZM291.725 234.024L283.029 231.705L280.011 243.024H291.725V234.024ZM317.287 234.024L326.03 236.159L328.748 225.024H317.287V234.024ZM311.94 255.923V264.923H319.007L320.683 258.058L311.94 255.923ZM267.708 258.144L295.686 148.281L278.243 143.839L250.264 253.702L267.708 258.144ZM286.965 155.06H340.065V137.06H286.965V155.06ZM331.406 143.607L325.18 165.579L342.499 170.486L348.724 148.513L331.406 143.607ZM333.84 159.033H308.644V177.033H333.84V159.033ZM299.901 165.898L294.554 187.798L312.041 192.067L317.387 170.167L299.901 165.898ZM303.298 198.932H328.2V180.932H303.298V198.932ZM319.458 187.79L314.039 209.909L331.521 214.193L336.941 192.074L319.458 187.79ZM322.78 203.051H297.585V221.051H322.78V203.051ZM288.889 209.732L283.029 231.705L300.421 236.343L306.281 214.37L288.889 209.732ZM291.725 243.024H317.287V225.024H291.725V243.024ZM308.544 231.889L303.197 253.789L320.683 258.058L326.03 236.159L308.544 231.889ZM311.94 246.923H258.986V264.923H311.94V246.923ZM369.801 168.326V159.326H362.95L361.126 165.93L369.801 168.326ZM363.796 190.079L355.12 187.683L351.974 199.079H363.796V190.079ZM371.266 190.079V199.079H378.345L380.013 192.199L371.266 190.079ZM376.54 168.326L385.286 170.446L387.982 159.326H376.54V168.326ZM320.656 255.923L311.923 253.749L309.14 264.923H320.656V255.923ZM347.975 146.207V137.207H340.941L339.242 144.032L347.975 146.207ZM389.284 146.207L389.447 137.208L389.366 137.207H389.284V146.207ZM401.149 149.649L395.26 156.454L395.398 156.574L395.541 156.688L401.149 149.649ZM406.056 161.441L414.744 163.793L415.141 162.326L415.034 160.811L406.056 161.441ZM396.022 198.501L387.335 196.149L387.312 196.234L387.291 196.319L396.022 198.501ZM392.946 204.654L399.647 210.662L399.756 210.541L399.86 210.415L392.946 204.654ZM388.698 208.316L393.468 215.948L393.552 215.895L393.636 215.84L388.698 208.316ZM384.23 210.879L386.816 219.5L387.62 219.259L388.365 218.873L384.23 210.879ZM380.568 212.198L376.875 203.99L370.545 206.839L371.692 213.685L380.568 212.198ZM387.892 255.923V264.923H398.525L396.769 254.437L387.892 255.923ZM361.232 255.923L352.327 257.225L353.452 264.923H361.232V255.923ZM356.178 221.353L365.084 220.051L347.426 219.258L356.178 221.353ZM347.902 255.923V264.923H355.002L356.655 258.019L347.902 255.923ZM361.126 165.93L355.12 187.683L372.471 192.474L378.477 170.721L361.126 165.93ZM363.796 199.079H371.266V181.079H363.796V199.079ZM380.013 192.199L385.286 170.446L367.793 166.205L362.52 187.958L380.013 192.199ZM376.54 159.326H369.801V177.326H376.54V159.326ZM329.389 258.098L356.709 148.381L339.242 144.032L311.923 253.749L329.389 258.098ZM347.975 155.207H389.284V137.207H347.975V155.207ZM389.12 155.205C393.57 155.286 395.025 156.251 395.26 156.454L407.039 142.843C402.195 138.652 395.74 137.322 389.447 137.208L389.12 155.205ZM395.541 156.688C395.626 156.756 396.774 157.727 397.078 162.071L415.034 160.811C414.558 154.022 412.434 147.132 406.757 142.609L395.541 156.688ZM397.369 159.089L387.335 196.149L404.709 200.854L414.744 163.793L397.369 159.089ZM387.291 196.319C387.015 197.423 386.581 198.233 386.032 198.892L399.86 210.415C402.241 207.559 403.858 204.267 404.753 200.684L387.291 196.319ZM386.245 198.646C385.486 199.493 384.66 200.201 383.76 200.791L393.636 215.84C395.861 214.38 397.867 212.647 399.647 210.662L386.245 198.646ZM383.928 200.684C382.541 201.551 381.265 202.281 380.095 202.885L388.365 218.873C390.028 218.013 391.73 217.034 393.468 215.948L383.928 200.684ZM381.644 202.259C379.947 202.768 378.327 203.337 376.875 203.99L384.261 220.405C384.762 220.18 385.584 219.87 386.816 219.5L381.644 202.259ZM371.692 213.685L379.016 257.41L396.769 254.437L389.444 210.711L371.692 213.685ZM387.892 246.923H361.232V264.923H387.892V246.923ZM370.137 254.622L365.084 220.051L347.273 222.655L352.327 257.225L370.137 254.622ZM347.426 219.258L339.149 253.828L356.655 258.019L364.931 223.448L347.426 219.258ZM347.902 246.923H320.656V264.923H347.902V246.923ZM394.118 255.923L385.399 253.69L382.522 264.923H394.118V255.923ZM422.17 146.426V137.426H415.185L413.451 144.193L422.17 146.426ZM449.049 146.426L457.776 148.63L460.605 137.426H449.049V146.426ZM437.99 190.225L429.264 188.022L426.435 199.225H437.99V190.225ZM445.461 190.225V199.225H452.516L454.2 192.374L445.461 190.225ZM456.227 146.426V137.426H449.172L447.487 144.278L456.227 146.426ZM483.107 146.426L491.839 148.605L494.629 137.426H483.107V146.426ZM455.788 255.923V264.923H462.818L464.52 258.102L455.788 255.923ZM429.128 255.923L420.379 253.813L417.699 264.923H429.128V255.923ZM439.674 212.198L448.424 214.308L451.103 203.198H439.674V212.198ZM433.156 212.198V203.198H426.206L424.448 209.922L433.156 212.198ZM421.73 255.923V264.923H428.681L430.438 258.199L421.73 255.923ZM402.836 258.157L430.888 148.66L413.451 144.193L385.399 253.69L402.836 258.157ZM422.17 155.426H449.049V137.426H422.17V155.426ZM440.323 144.223L429.264 188.022L446.716 192.429L457.776 148.63L440.323 144.223ZM437.99 199.225H445.461V181.225H437.99V199.225ZM454.2 192.374L464.967 148.575L447.487 144.278L436.721 188.077L454.2 192.374ZM456.227 155.426H483.107V137.426H456.227V155.426ZM474.375 144.248L447.055 253.745L464.52 258.102L491.839 148.605L474.375 144.248ZM455.788 246.923H429.128V264.923H455.788V246.923ZM437.877 258.034L448.424 214.308L430.925 210.087L420.379 253.813L437.877 258.034ZM439.674 203.198H433.156V221.198H439.674V203.198ZM424.448 209.922L413.023 253.648L430.438 258.199L441.864 214.473L424.448 209.922ZM421.73 246.923H394.118V264.923H421.73V246.923ZM510.207 190.005L501.412 188.094L499.04 199.005H510.207V190.005ZM516.872 190.005V199.005H523.916L525.608 192.168L516.872 190.005ZM522.292 168.106L531.028 170.268L533.791 159.106H522.292V168.106ZM514.967 168.106V159.106H507.714L506.173 166.194L514.967 168.106ZM465.602 255.777L456.886 253.534L454.017 264.684L465.53 264.777L465.602 255.777ZM489.992 161.001L481.394 158.342L481.33 158.549L481.276 158.758L489.992 161.001ZM495.265 149.942L488.264 144.287L488.212 144.351L488.161 144.416L495.265 149.942ZM545.656 146.939L543.376 155.645L543.403 155.652L543.43 155.659L545.656 146.939ZM550.636 149.942L558.451 145.477L558.21 145.056L557.926 144.663L550.636 149.942ZM551.882 157.12L560.83 158.078L560.859 157.814L560.871 157.548L551.882 157.12ZM549.465 168.106L540.814 165.621L540.77 165.775L540.732 165.93L549.465 168.106ZM527.565 255.997V264.997H534.598L536.298 258.173L527.565 255.997ZM499.88 255.997L491.175 253.711L488.212 264.997H499.88V255.997ZM511.379 212.198L520.084 214.483L523.046 203.198H511.379V212.198ZM503.835 212.198V203.198H496.791L495.098 210.036L503.835 212.198ZM492.995 255.997L492.923 264.996L500.025 265.053L501.731 258.159L492.995 255.997ZM510.207 199.005H516.872V181.005H510.207V199.005ZM525.608 192.168L531.028 170.268L513.555 165.944L508.135 187.843L525.608 192.168ZM522.292 159.106H514.967V177.106H522.292V159.106ZM506.173 166.194L501.412 188.094L519.001 191.917L523.762 170.018L506.173 166.194ZM474.318 258.02L498.708 163.244L481.276 158.758L456.886 253.534L474.318 258.02ZM498.59 163.661C499.875 159.507 501.226 156.938 502.369 155.467L488.161 144.416C485.203 148.22 483.039 153.023 481.394 158.342L498.59 163.661ZM502.267 155.597C501.846 156.118 501.635 155.971 502.549 155.692C503.486 155.405 505.127 155.133 507.716 155.133V137.133C501.027 137.133 493.069 138.338 488.264 144.287L502.267 155.597ZM507.716 155.133H536.94V137.133H507.716V155.133ZM536.94 155.133C540.425 155.133 542.431 155.398 543.376 155.645L547.936 138.233C544.779 137.406 540.975 137.133 536.94 137.133V155.133ZM543.43 155.659C543.906 155.781 544.043 155.878 543.975 155.837C543.936 155.813 543.846 155.754 543.728 155.647C543.608 155.539 543.475 155.397 543.347 155.22L557.926 144.663C555.29 141.024 551.492 139.14 547.882 138.219L543.43 155.659ZM542.822 154.407C542.687 154.171 542.743 154.158 542.813 154.556C542.882 154.958 542.942 155.645 542.892 156.692L560.871 157.548C561.057 153.648 560.629 149.29 558.451 145.477L542.822 154.407ZM542.933 156.161C542.721 158.137 542.077 161.224 540.814 165.621L558.115 170.591C559.488 165.808 560.456 161.571 560.83 158.078L542.933 156.161ZM540.732 165.93L518.832 253.821L536.298 258.173L558.198 170.282L540.732 165.93ZM527.565 246.997H499.88V264.997H527.565V246.997ZM508.585 258.282L520.084 214.483L502.674 209.912L491.175 253.711L508.585 258.282ZM511.379 203.198H503.835V221.198H511.379V203.198ZM495.098 210.036L484.258 253.834L501.731 258.159L512.571 214.36L495.098 210.036ZM493.067 246.997L465.674 246.777L465.53 264.777L492.923 264.996L493.067 246.997ZM541.335 242.52L532.6 240.352L532.569 240.474L532.543 240.597L541.335 242.52ZM561.989 159.317L553.383 156.682L553.312 156.914L553.254 157.149L561.989 159.317ZM564.259 153.311L572.358 157.237L572.647 156.641L572.845 156.009L564.259 153.311ZM566.823 149.283L572.585 156.197L572.972 155.874L573.321 155.51L566.823 149.283ZM571.73 147.085L572.946 156.003L573.329 155.951L573.706 155.866L571.73 147.085ZM579.86 146.207V137.207H579.67L579.48 137.215L579.86 146.207ZM622.048 150.748L629.029 145.068L628.987 145.016L628.943 144.964L622.048 150.748ZM623.146 164.737L614.415 162.554L614.41 162.572L614.406 162.59L623.146 164.737ZM616.921 190.079V199.079H623.977L625.661 192.226L616.921 190.079ZM589.894 190.079L581.125 188.055L578.581 199.079H589.894V190.079ZM594.948 168.179L603.717 170.203L606.261 159.179H594.948V168.179ZM587.697 168.179V159.179H580.702L578.975 165.958L587.697 168.179ZM570.851 234.317L562.13 232.095L559.272 243.317H570.851V234.317ZM578.102 234.317V243.317H585.006L586.795 236.648L578.102 234.317ZM584.035 212.198V203.198H577.131L575.342 209.866L584.035 212.198ZM611.208 212.198L619.91 214.493L622.89 203.198H611.208V212.198ZM603.151 242.74L594.449 240.444L594.429 240.521L594.41 240.597L603.151 242.74ZM598.317 253.213L604.287 259.949L604.49 259.769L604.681 259.577L598.317 253.213ZM587.697 255.85L587.964 246.854L587.831 246.85H587.697V255.85ZM555.617 255.85V246.85H555.437L555.257 246.857L555.617 255.85ZM547.194 255.85L546.142 264.788L546.331 264.811L546.521 264.825L547.194 255.85ZM541.994 254.092L535.787 260.61L535.879 260.697L535.973 260.782L541.994 254.092ZM540.456 249.991H549.456V249.754L549.443 249.518L540.456 249.991ZM550.07 244.688L570.724 161.485L553.254 157.149L532.6 240.352L550.07 244.688ZM570.595 161.951C571.24 159.842 571.84 158.305 572.358 157.237L556.161 149.385C555.116 151.54 554.202 154.007 553.383 156.682L570.595 161.951ZM572.845 156.009C572.907 155.814 572.941 155.784 572.896 155.854C572.874 155.889 572.837 155.942 572.781 156.005C572.725 156.069 572.659 156.134 572.585 156.197L561.061 142.369C558.346 144.632 556.636 147.549 555.674 150.613L572.845 156.009ZM573.321 155.51C573 155.845 572.701 156.01 572.57 156.069C572.461 156.117 572.55 156.057 572.946 156.003L570.514 138.168C567.028 138.643 563.263 139.99 560.325 143.056L573.321 155.51ZM573.706 155.866C574.889 155.6 576.982 155.336 580.24 155.199L579.48 137.215C575.805 137.37 572.477 137.692 569.755 138.305L573.706 155.866ZM579.86 155.207H607.912V137.207H579.86V155.207ZM607.912 155.207C610.756 155.207 612.662 155.527 613.857 155.911C615.003 156.279 615.218 156.61 615.152 156.531L628.943 144.964C623.772 138.798 615.575 137.207 607.912 137.207V155.207ZM615.066 156.427C614.817 156.121 615.03 156.126 615.108 157.11C615.19 158.159 615.076 159.911 614.415 162.554L631.877 166.92C633.656 159.805 634.182 151.401 629.029 145.068L615.066 156.427ZM614.406 162.59L608.18 187.931L625.661 192.226L631.886 166.884L614.406 162.59ZM616.921 181.079H589.894V199.079H616.921V181.079ZM598.664 192.102L603.717 170.203L586.178 166.155L581.125 188.055L598.664 192.102ZM594.948 159.179H587.697V177.179H594.948V159.179ZM578.975 165.958L562.13 232.095L579.573 236.538L596.419 170.401L578.975 165.958ZM570.851 243.317H578.102V225.317H570.851V243.317ZM586.795 236.648L592.728 214.529L575.342 209.866L569.409 231.985L586.795 236.648ZM584.035 221.198H611.208V203.198H584.035V221.198ZM602.505 209.902L594.449 240.444L611.853 245.035L619.91 214.493L602.505 209.902ZM594.41 240.597C593.308 245.093 592.185 246.617 591.953 246.849L604.681 259.577C608.453 255.806 610.553 250.348 611.892 244.882L594.41 240.597ZM592.347 246.478C592.615 246.241 592.614 246.384 591.882 246.566C591.132 246.752 589.878 246.911 587.964 246.854L587.43 264.846C593.13 265.015 599.549 264.148 604.287 259.949L592.347 246.478ZM587.697 246.85H555.617V264.85H587.697V246.85ZM555.257 246.857C551.698 247 549.299 246.983 547.867 246.875L546.521 264.825C548.995 265.01 552.211 264.994 555.977 264.843L555.257 246.857ZM548.246 246.912C547.844 246.865 547.534 246.812 547.302 246.764C547.068 246.716 546.944 246.677 546.908 246.665C546.87 246.652 546.965 246.68 547.148 246.779C547.331 246.878 547.647 247.072 548.015 247.403L535.973 260.782C539.115 263.609 543.232 264.446 546.142 264.788L548.246 246.912ZM548.201 247.575C548.703 248.054 549.062 248.627 549.267 249.174C549.458 249.684 549.456 250.004 549.456 249.991H531.456C531.456 253.577 532.566 257.542 535.787 260.61L548.201 247.575ZM549.443 249.518C549.408 248.841 549.511 247.26 550.127 244.443L532.543 240.597C531.792 244.03 531.309 247.43 531.468 250.464L549.443 249.518ZM609.816 255.777L601.074 253.637L598.347 264.777H609.816V255.777ZM636.549 146.573V137.573H629.487L627.808 144.433L636.549 146.573ZM663.796 146.573L672.499 148.864L675.472 137.573H663.796V146.573ZM656.178 175.503L647.475 173.212L663.965 180.017L656.178 175.503ZM672.951 146.573V137.573H667.766L665.165 142.059L672.951 146.573ZM699.758 146.573L707.552 151.072L715.344 137.573H699.758V146.573ZM668.263 201.138L660.469 196.639L659.068 199.066L659.292 201.86L668.263 201.138ZM672.658 255.777V264.777H682.411L681.629 255.055L672.658 255.777ZM645.485 255.777L636.491 256.095L636.798 264.777H645.485V255.777ZM644.386 224.722L653.381 224.404L635.646 222.578L644.386 224.722ZM636.769 255.777V264.777H643.828L645.51 257.921L636.769 255.777ZM618.558 257.917L645.291 148.713L627.808 144.433L601.074 253.637L618.558 257.917ZM636.549 155.573H663.796V137.573H636.549V155.573ZM655.092 144.281L647.475 173.212L664.882 177.795L672.499 148.864L655.092 144.281ZM663.965 180.017L680.737 151.087L665.165 142.059L648.392 170.989L663.965 180.017ZM672.951 155.573H699.758V137.573H672.951V155.573ZM691.963 142.074L660.469 196.639L676.058 205.637L707.552 151.072L691.963 142.074ZM659.292 201.86L663.687 256.498L681.629 255.055L677.234 200.417L659.292 201.86ZM672.658 246.777H645.485V264.777H672.658V246.777ZM654.479 255.459L653.381 224.404L635.392 225.04L636.491 256.095L654.479 255.459ZM635.646 222.578L628.028 253.633L645.51 257.921L653.127 226.866L635.646 222.578ZM636.769 246.777H609.816V264.777H636.769V246.777ZM704.445 162.613L713.188 164.75L713.22 164.619L713.248 164.487L704.445 162.613ZM709.865 150.235L716.77 156.008L716.8 155.971L716.831 155.934L709.865 150.235ZM722.17 146.353L722.023 155.352L722.096 155.353H722.17V146.353ZM753.883 146.353V155.353H753.996L754.108 155.35L753.883 146.353ZM762.966 147.452L767.157 139.487L766.696 139.244L766.209 139.056L762.966 147.452ZM766.774 151.333L775.09 147.892L775.075 147.855L775.059 147.819L766.774 151.333ZM767.36 156.021L776.193 157.745L776.261 157.396L776.302 157.043L767.36 156.021ZM766.188 161.368L757.457 159.185L757.439 159.258L757.422 159.331L766.188 161.368ZM762.087 179.019V188.019H769.235L770.853 181.056L762.087 179.019ZM735.719 179.019L726.968 176.919L724.304 188.019H735.719V179.019ZM738.356 168.033L747.108 170.133L749.772 159.033H738.356V168.033ZM728.981 168.033V159.033H721.839L720.217 165.988L728.981 168.033ZM723.854 190.005L715.09 187.96L712.512 199.005H723.854V190.005ZM759.377 190.005L768.132 192.09L770.771 181.005H759.377V190.005ZM747.292 240.762L756.042 242.869L756.044 242.858L756.047 242.847L747.292 240.762ZM742.165 252.334L748.2 259.011L748.581 258.666L748.921 258.28L742.165 252.334ZM687.819 251.016L694.847 245.394L694.829 245.372L694.811 245.35L687.819 251.016ZM685.549 239.664L676.836 237.409L676.734 237.8L676.669 238.199L685.549 239.664ZM689.87 222.964V213.964H682.902L681.157 220.71L689.87 222.964ZM715.944 222.964L724.665 225.188L727.527 213.964H715.944V222.964ZM713.161 233.877L704.44 231.653L701.577 242.877H713.161V233.877ZM722.756 233.877V242.877H729.886L731.517 235.936L722.756 233.877ZM727.883 212.051L736.644 214.109L739.242 203.051H727.883V212.051ZM692.36 212.051L683.617 209.914L680.895 221.051H692.36V212.051ZM713.248 164.487C714.177 160.121 715.514 157.509 716.77 156.008L702.96 144.462C699.235 148.918 696.959 154.558 695.642 160.738L713.248 164.487ZM716.831 155.934C716.581 156.238 716.515 156.08 717.297 155.833C718.139 155.568 719.634 155.313 722.023 155.352L722.316 137.354C715.5 137.243 707.778 138.573 702.899 144.536L716.831 155.934ZM722.17 155.353H753.883V137.353H722.17V155.353ZM754.108 155.35C757.541 155.264 759.19 155.641 759.722 155.847L766.209 139.056C762.444 137.602 758.039 137.246 753.659 137.356L754.108 155.35ZM758.774 155.416C759.002 155.536 758.997 155.572 758.885 155.458C758.829 155.401 758.757 155.317 758.682 155.206C758.607 155.094 758.542 154.973 758.489 154.848L775.059 147.819C773.413 143.937 770.471 141.232 767.157 139.487L758.774 155.416ZM758.458 154.775C758.448 154.75 758.44 154.727 758.435 154.706C758.43 154.686 758.429 154.678 758.43 154.684C758.431 154.693 758.442 154.79 758.418 154.999L776.302 157.043C776.649 154.006 776.329 150.885 775.09 147.892L758.458 154.775ZM758.527 154.297C758.159 156.184 757.801 157.808 757.457 159.185L774.919 163.55C775.357 161.802 775.78 159.862 776.193 157.745L758.527 154.297ZM757.422 159.331L753.32 176.982L770.853 181.056L774.955 163.405L757.422 159.331ZM762.087 170.019H735.719V188.019H762.087V170.019ZM744.471 181.119L747.108 170.133L729.605 165.932L726.968 176.919L744.471 181.119ZM738.356 159.033H728.981V177.033H738.356V159.033ZM720.217 165.988L715.09 187.96L732.619 192.05L737.746 170.078L720.217 165.988ZM723.854 199.005H759.377V181.005H723.854V199.005ZM750.621 187.921L738.536 238.678L756.047 242.847L768.132 192.09L750.621 187.921ZM738.542 238.656C737.413 243.343 736.148 245.548 735.408 246.389L748.921 258.28C752.478 254.238 754.631 248.728 756.042 242.869L738.542 238.656ZM736.13 245.658C736.047 245.733 734.659 246.777 729.787 246.777V264.777C736.34 264.777 743.204 263.526 748.2 259.011L736.13 245.658ZM729.787 246.777H698.586V264.777H729.787V246.777ZM698.586 246.777C696.245 246.777 695.423 246.114 694.847 245.394L680.791 256.638C685.293 262.266 691.649 264.777 698.586 264.777V246.777ZM694.811 245.35C694.609 245.1 693.926 244.178 694.429 241.128L676.669 238.199C675.609 244.622 676.439 251.268 680.827 256.682L694.811 245.35ZM694.262 241.918L698.583 225.219L681.157 220.71L676.836 237.409L694.262 241.918ZM689.87 231.964H715.944V213.964H689.87V231.964ZM707.223 220.74L704.44 231.653L721.882 236.102L724.665 225.188L707.223 220.74ZM713.161 242.877H722.756V224.877H713.161V242.877ZM731.517 235.936L736.644 214.109L719.121 209.993L713.994 231.819L731.517 235.936ZM727.883 203.051H692.36V221.051H727.883V203.051ZM701.103 214.188L713.188 164.75L695.702 160.476L683.617 209.914L701.103 214.188Z"
    fill="#05034A" mask="url(#path-8-outside-2_1374_2351)" />
  <path
    d="M37.6453 262.848C32.6742 251.687 23.7054 242.729 12.504 237.78C23.7011 232.872 32.6843 223.931 37.6464 212.764C42.4936 223.948 51.4351 232.912 62.6213 237.783C51.4281 242.69 42.4995 251.669 37.6453 262.848Z"
    fill="white" stroke="#05034A" stroke-width="7" stroke-linejoin="round" />
  <path
    d="M805.213 119.265C800.248 108.164 791.303 99.2633 780.141 94.3638C791.259 89.4801 800.239 80.6109 805.205 69.5379C810.035 80.6555 818.936 89.5595 830.065 94.3904C818.936 99.2526 810.052 108.164 805.213 119.265Z"
    fill="white" stroke="#05034A" stroke-width="7" stroke-linejoin="round" />
  <defs>
    <linearGradient id="paint0_linear_1374_2351" x1="421.5" y1="4.47656" x2="421.5" y2="189.381"
      gradientUnits="userSpaceOnUse">
      <stop stop-color="#E64C3C" />
      <stop offset="1" stop-color="#B70000" />
    </linearGradient>
    <linearGradient id="paint1_linear_1374_2351" x1="421.5" y1="31.8677" x2="421.5" y2="189.382"
      gradientUnits="userSpaceOnUse">
      <stop stop-color="#F0C419" />
      <stop offset="1" stop-color="#AF8B00" />
    </linearGradient>
    <linearGradient id="paint2_linear_1374_2351" x1="421.503" y1="59.2642" x2="421.503" y2="189.381"
      gradientUnits="userSpaceOnUse">
      <stop stop-color="#71C285" />
      <stop offset="1" stop-color="#21943D" />
    </linearGradient>
    <linearGradient id="paint3_linear_1374_2351" x1="421.494" y1="86.6548" x2="421.494" y2="189.381"
      gradientUnits="userSpaceOnUse">
      <stop stop-color="#0096E6" />
      <stop offset="1" stop-color="#E1F5FF" />
    </linearGradient>
    <linearGradient id="paint4_linear_1374_2351" x1="421.5" y1="114.052" x2="421.5" y2="189.381"
      gradientUnits="userSpaceOnUse">
      <stop stop-color="#715EBB" />
      <stop offset="1" stop-color="#3C2598" />
    </linearGradient>
  </defs>
</svg>
  