<svg width="76" height="79" viewBox="0 0 76 79" fill="none" xmlns="http://www.w3.org/2000/svg">
<path d="M13.0784 74C13.0784 74.9288 13.1072 75.8504 13.148 76.7696H2.0696L2.06312 76.5925C2.03154 75.7302 2 74.8693 2 74C2 34.2344 34.2344 2 74 2L74.0024 13.076C40.4072 13.076 13.0784 40.4072 13.0784 74Z" fill="#D83045" stroke="#200B3A" stroke-width="4"/>
<path d="M24.1546 74.0002C24.1546 74.9362 24.2434 75.8482 24.2938 76.7698H13.1458C13.105 75.8506 13.0762 74.929 13.0762 74.0002C13.0762 40.4074 40.405 13.0762 74.0002 13.0762V24.1546C46.5154 24.1546 24.1546 46.5154 24.1546 74.0002Z" fill="#FFCD4D" stroke="#200B3A" stroke-width="4"/>
<path d="M35.2327 73.9999C35.2327 74.9359 35.3071 75.8503 35.3719 76.7695H24.2935C24.2431 75.8479 24.1543 74.9335 24.1543 73.9999C24.1543 46.5151 46.5175 24.1543 74.0023 24.1543V35.2303C52.6231 35.2303 35.2327 52.6231 35.2327 73.9999Z" fill="#24AE79" stroke="#200B3A" stroke-width="4"/>
<path d="M46.3093 74.0001C46.3093 74.9361 46.3573 75.8577 46.4485 76.7697H35.3677C35.3029 75.8505 35.2285 74.9337 35.2285 74.0001C35.2285 52.6209 52.6189 35.2305 73.9981 35.2305L74.0005 46.3089C58.7317 46.3089 46.3093 58.7313 46.3093 74.0001Z" fill="#92DEFF" stroke="#200B3A" stroke-width="4"/>
<path d="M57.3846 74C57.3846 74.9456 57.4806 75.8672 57.6342 76.7696H46.4478C46.359 75.8576 46.3086 74.9336 46.3086 74C46.3086 58.7336 58.731 46.3088 73.9998 46.3088V57.3848C64.8366 57.3848 57.3846 64.8368 57.3846 74Z" fill="#6956B6" stroke="#200B3A" stroke-width="4"/>
</svg>
