<svg width="21" height="25" viewBox="0 0 21 25" fill="none" xmlns="http://www.w3.org/2000/svg">
<mask id="path-1-inside-1_1861_305" fill="white">
<path d="M6 24.8286V21.8286H15V24.8286H6ZM3 21.8286V18.8286H6V21.8286H3ZM15 21.8286V18.8286H18V21.8286H15ZM0 18.8286V6.82861H3V18.8286H0ZM18 18.8286V6.82861H21V18.8286H18ZM3 6.82861V3.82861H6V6.82861H3ZM15 6.82861V3.82861H18V6.82861H15ZM6 3.82861V0.828613H15V3.82861H6Z"/>
</mask>
<path d="M6 24.8286V21.8286H15V24.8286H6ZM3 21.8286V18.8286H6V21.8286H3ZM15 21.8286V18.8286H18V21.8286H15ZM0 18.8286V6.82861H3V18.8286H0ZM18 18.8286V6.82861H21V18.8286H18ZM3 6.82861V3.82861H6V6.82861H3ZM15 6.82861V3.82861H18V6.82861H15ZM6 3.82861V0.828613H15V3.82861H6Z" fill="#200B3A"/>
<path d="M6 24.8286H4C4 25.9332 4.89543 26.8286 6 26.8286V24.8286ZM6 21.8286V19.8286C4.89543 19.8286 4 20.724 4 21.8286H6ZM15 21.8286H17C17 20.724 16.1046 19.8286 15 19.8286V21.8286ZM15 24.8286V26.8286C16.1046 26.8286 17 25.9332 17 24.8286H15ZM3 21.8286H1C1 22.9332 1.89543 23.8286 3 23.8286L3 21.8286ZM3 18.8286V16.8286C1.89543 16.8286 1 17.724 1 18.8286H3ZM6 18.8286H8C8 17.724 7.10457 16.8286 6 16.8286V18.8286ZM6 21.8286V23.8286C7.10457 23.8286 8 22.9332 8 21.8286H6ZM15 21.8286H13C13 22.9332 13.8954 23.8286 15 23.8286V21.8286ZM15 18.8286V16.8286C13.8954 16.8286 13 17.724 13 18.8286H15ZM18 18.8286H20C20 17.724 19.1046 16.8286 18 16.8286V18.8286ZM18 21.8286V23.8286C19.1046 23.8286 20 22.9332 20 21.8286H18ZM0 18.8286H-2C-2 19.9332 -1.10457 20.8286 0 20.8286L0 18.8286ZM0 6.82861V4.82861C-1.10457 4.82861 -2 5.72404 -2 6.82861H0ZM3 6.82861H5C5 5.72404 4.10457 4.82861 3 4.82861L3 6.82861ZM3 18.8286V20.8286C4.10457 20.8286 5 19.9332 5 18.8286H3ZM18 18.8286H16C16 19.9332 16.8954 20.8286 18 20.8286V18.8286ZM18 6.82861V4.82861C16.8954 4.82861 16 5.72404 16 6.82861H18ZM21 6.82861H23C23 5.72404 22.1046 4.82861 21 4.82861V6.82861ZM21 18.8286V20.8286C22.1046 20.8286 23 19.9332 23 18.8286H21ZM3 6.82861H1C1 7.93318 1.89543 8.82861 3 8.82861L3 6.82861ZM3 3.82861V1.82861C1.89543 1.82861 1 2.72404 1 3.82861H3ZM6 3.82861H8C8 2.72404 7.10457 1.82861 6 1.82861V3.82861ZM6 6.82861V8.82861C7.10457 8.82861 8 7.93318 8 6.82861H6ZM15 6.82861H13C13 7.93318 13.8954 8.82861 15 8.82861V6.82861ZM15 3.82861V1.82861C13.8954 1.82861 13 2.72404 13 3.82861H15ZM18 3.82861H20C20 2.72404 19.1046 1.82861 18 1.82861V3.82861ZM18 6.82861V8.82861C19.1046 8.82861 20 7.93318 20 6.82861H18ZM6 3.82861H4C4 4.93318 4.89543 5.82861 6 5.82861V3.82861ZM6 0.828613V-1.17139C4.89543 -1.17139 4 -0.275956 4 0.828613H6ZM15 0.828613H17C17 -0.275956 16.1046 -1.17139 15 -1.17139V0.828613ZM15 3.82861V5.82861C16.1046 5.82861 17 4.93318 17 3.82861H15ZM8 24.8286V21.8286H4V24.8286H8ZM6 23.8286H15V19.8286H6V23.8286ZM13 21.8286V24.8286H17V21.8286H13ZM15 22.8286H6V26.8286H15V22.8286ZM5 21.8286V18.8286H1V21.8286H5ZM3 20.8286H6V16.8286H3V20.8286ZM4 18.8286V21.8286H8V18.8286H4ZM6 19.8286H3V23.8286H6V19.8286ZM17 21.8286V18.8286H13V21.8286H17ZM15 20.8286H18V16.8286H15V20.8286ZM16 18.8286V21.8286H20V18.8286H16ZM18 19.8286H15V23.8286H18V19.8286ZM2 18.8286V6.82861H-2V18.8286H2ZM0 8.82861H3V4.82861H0V8.82861ZM1 6.82861V18.8286H5V6.82861H1ZM3 16.8286H0V20.8286H3V16.8286ZM20 18.8286V6.82861H16V18.8286H20ZM18 8.82861H21V4.82861H18V8.82861ZM19 6.82861V18.8286H23V6.82861H19ZM21 16.8286H18V20.8286H21V16.8286ZM5 6.82861V3.82861H1V6.82861H5ZM3 5.82861H6V1.82861H3V5.82861ZM4 3.82861V6.82861H8V3.82861H4ZM6 4.82861H3V8.82861H6V4.82861ZM17 6.82861V3.82861H13V6.82861H17ZM15 5.82861H18V1.82861H15V5.82861ZM16 3.82861V6.82861H20V3.82861H16ZM18 4.82861H15V8.82861H18V4.82861ZM8 3.82861V0.828613H4V3.82861H8ZM6 2.82861H15V-1.17139H6V2.82861ZM13 0.828613V3.82861H17V0.828613H13ZM15 1.82861H6V5.82861H15V1.82861Z" fill="#200B3A" mask="url(#path-1-inside-1_1861_305)"/>
</svg>
