<svg width="15" height="19" viewBox="0 0 15 19" fill="none" xmlns="http://www.w3.org/2000/svg">
<mask id="path-1-inside-1_1861_307" fill="white">
<path d="M0 18.688V15.688H3V18.688H0ZM12 18.688V15.688H15V18.688H12ZM3 15.688V12.688H6V15.688H3ZM9 15.688V12.688H12V15.688H9ZM6 12.688V6.68799H9V12.688H6ZM3 6.68799V3.68799H6V6.68799H3ZM9 6.68799V3.68799H12V6.68799H9ZM0 3.68799V0.687988H3V3.68799H0ZM12 3.68799V0.687988H15V3.68799H12Z"/>
</mask>
<path d="M0 18.688V15.688H3V18.688H0ZM12 18.688V15.688H15V18.688H12ZM3 15.688V12.688H6V15.688H3ZM9 15.688V12.688H12V15.688H9ZM6 12.688V6.68799H9V12.688H6ZM3 6.68799V3.68799H6V6.68799H3ZM9 6.68799V3.68799H12V6.68799H9ZM0 3.68799V0.687988H3V3.68799H0ZM12 3.68799V0.687988H15V3.68799H12Z" fill="#200B3A"/>
<path d="M0 18.688H-2C-2 19.7926 -1.10457 20.688 0 20.688L0 18.688ZM0 15.688V13.688C-1.10457 13.688 -2 14.5834 -2 15.688H0ZM3 15.688H5C5 14.5834 4.10457 13.688 3 13.688L3 15.688ZM3 18.688V20.688C4.10457 20.688 5 19.7926 5 18.688H3ZM12 18.688H10C10 19.7926 10.8954 20.688 12 20.688V18.688ZM12 15.688V13.688C10.8954 13.688 10 14.5834 10 15.688H12ZM15 15.688H17C17 14.5834 16.1046 13.688 15 13.688V15.688ZM15 18.688V20.688C16.1046 20.688 17 19.7926 17 18.688H15ZM3 15.688H1C1 16.7926 1.89543 17.688 3 17.688V15.688ZM3 12.688V10.688C1.89543 10.688 1 11.5834 1 12.688H3ZM6 12.688H8C8 11.5834 7.10457 10.688 6 10.688V12.688ZM6 15.688V17.688C7.10457 17.688 8 16.7926 8 15.688H6ZM9 15.688H7C7 16.7926 7.89543 17.688 9 17.688V15.688ZM9 12.688V10.688C7.89543 10.688 7 11.5834 7 12.688H9ZM12 12.688H14C14 11.5834 13.1046 10.688 12 10.688V12.688ZM12 15.688V17.688C13.1046 17.688 14 16.7926 14 15.688H12ZM6 12.688H4C4 13.7926 4.89543 14.688 6 14.688V12.688ZM6 6.68799V4.68799C4.89543 4.68799 4 5.58342 4 6.68799H6ZM9 6.68799H11C11 5.58342 10.1046 4.68799 9 4.68799V6.68799ZM9 12.688V14.688C10.1046 14.688 11 13.7926 11 12.688H9ZM3 6.68799H1C1 7.79256 1.89543 8.68799 3 8.68799V6.68799ZM3 3.68799V1.68799C1.89543 1.68799 1 2.58342 1 3.68799H3ZM6 3.68799H8C8 2.58342 7.10457 1.68799 6 1.68799V3.68799ZM6 6.68799V8.68799C7.10457 8.68799 8 7.79256 8 6.68799H6ZM9 6.68799H7C7 7.79256 7.89543 8.68799 9 8.68799V6.68799ZM9 3.68799V1.68799C7.89543 1.68799 7 2.58342 7 3.68799H9ZM12 3.68799H14C14 2.58342 13.1046 1.68799 12 1.68799V3.68799ZM12 6.68799V8.68799C13.1046 8.68799 14 7.79256 14 6.68799H12ZM0 3.68799H-2C-2 4.79256 -1.10457 5.68799 0 5.68799L0 3.68799ZM0 0.687988V-1.31201C-1.10457 -1.31201 -2 -0.416581 -2 0.687988H0ZM3 0.687988H5C5 -0.416581 4.10457 -1.31201 3 -1.31201L3 0.687988ZM3 3.68799V5.68799C4.10457 5.68799 5 4.79256 5 3.68799H3ZM12 3.68799H10C10 4.79256 10.8954 5.68799 12 5.68799V3.68799ZM12 0.687988V-1.31201C10.8954 -1.31201 10 -0.416581 10 0.687988H12ZM15 0.687988H17C17 -0.416581 16.1046 -1.31201 15 -1.31201V0.687988ZM15 3.68799V5.68799C16.1046 5.68799 17 4.79256 17 3.68799H15ZM2 18.688V15.688H-2V18.688H2ZM0 17.688H3V13.688H0V17.688ZM1 15.688V18.688H5V15.688H1ZM3 16.688H0V20.688H3V16.688ZM14 18.688V15.688H10V18.688H14ZM12 17.688H15V13.688H12V17.688ZM13 15.688V18.688H17V15.688H13ZM15 16.688H12V20.688H15V16.688ZM5 15.688V12.688H1V15.688H5ZM3 14.688H6V10.688H3V14.688ZM4 12.688V15.688H8V12.688H4ZM6 13.688H3V17.688H6V13.688ZM11 15.688V12.688H7V15.688H11ZM9 14.688H12V10.688H9V14.688ZM10 12.688V15.688H14V12.688H10ZM12 13.688H9V17.688H12V13.688ZM8 12.688V6.68799H4V12.688H8ZM6 8.68799H9V4.68799H6V8.68799ZM7 6.68799V12.688H11V6.68799H7ZM9 10.688H6V14.688H9V10.688ZM5 6.68799V3.68799H1V6.68799H5ZM3 5.68799H6V1.68799H3V5.68799ZM4 3.68799V6.68799H8V3.68799H4ZM6 4.68799H3V8.68799H6V4.68799ZM11 6.68799V3.68799H7V6.68799H11ZM9 5.68799H12V1.68799H9V5.68799ZM10 3.68799V6.68799H14V3.68799H10ZM12 4.68799H9V8.68799H12V4.68799ZM2 3.68799V0.687988H-2V3.68799H2ZM0 2.68799H3V-1.31201H0V2.68799ZM1 0.687988V3.68799H5V0.687988H1ZM3 1.68799H0V5.68799H3V1.68799ZM14 3.68799V0.687988H10V3.68799H14ZM12 2.68799H15V-1.31201H12V2.68799ZM13 0.687988V3.68799H17V0.687988H13ZM15 1.68799H12V5.68799H15V1.68799Z" fill="#200B3A" mask="url(#path-1-inside-1_1861_307)"/>
</svg>
