<svg width="370" height="370" viewBox="0 0 370 370" fill="none" xmlns="http://www.w3.org/2000/svg">
<path fill-rule="evenodd" clip-rule="evenodd" d="M225.741 1.7047C217.023 4.8497 215.052 9.3767 215.022 26.3277C215.003 37.3747 215.268 39.3937 217.25 43.3047C221.396 51.4847 222.478 51.7447 253.931 52.0997L281.361 52.4097L209.747 124.1C146.981 186.933 138.051 196.244 137.47 199.462C136.216 206.405 137.642 209.168 147.875 219.628C153.169 225.039 158.715 230.102 160.2 230.878C163.644 232.678 169.162 232.683 173.282 230.889C175.138 230.081 206.133 199.812 246.497 159.389C284.996 120.835 316.833 89.2897 317.247 89.2897C317.661 89.2897 318 101.598 318 116.642C318 143.364 318.052 144.07 320.25 147.291C324.504 153.523 327.634 154.411 344.181 154.082C360.159 153.764 361.683 153.273 366.438 146.905C368.464 144.192 368.505 143.022 368.77 78.9667L369.04 13.7897L366.77 9.3127C365.419 6.6487 363.082 4.0157 361 2.8127C357.598 0.846697 355.71 0.783697 293.5 0.568697C241.711 0.389697 228.783 0.606699 225.741 1.7047ZM34.1861 42.4077C22.8791 44.2887 12.1811 51.5827 6.2921 61.4277C-0.297904 72.4447 9.67893e-05 65.6467 9.67893e-05 204.951C9.67893e-05 294.612 0.326097 332.727 1.1241 336.491C4.3261 351.582 16.0081 363.973 30.6201 367.779C39.3641 370.057 288.636 370.057 297.38 367.779C311.992 363.973 323.674 351.582 326.876 336.491C327.657 332.809 328 305.72 328 247.741V164.29H302.5H277V241.29V318.29H164H51.0001V205.79V93.2897H128H205V67.2897V41.2897L122.25 41.4067C76.7371 41.4707 37.1091 41.9217 34.1861 42.4077Z" fill="black"/>
</svg>
