<svg width="333" height="272" viewBox="0 0 333 272" fill="none" xmlns="http://www.w3.org/2000/svg">
<path d="M408.026 326.917C397.736 316.017 391.376 298.187 384.196 285.627C388.186 292.597 388.546 308.387 390.276 316.587C392.296 326.157 391.626 335.007 387.616 344.307C378.326 365.827 355.806 380.947 332.376 381.397C329.686 381.447 326.826 381.267 324.626 379.707C320.286 376.627 320.856 369.747 323.786 365.317C326.716 360.887 331.326 357.807 334.636 353.647C337.946 349.487 339.716 343.107 336.316 339.007C331.226 337.637 325.946 340.867 322.586 344.927C319.226 348.987 317.066 353.937 313.676 357.967C307.626 365.137 297.656 368.757 288.416 367.137C279.176 365.517 271.026 358.727 267.776 349.937C293.186 345.427 316.046 328.317 327.536 305.207C329.826 300.607 331.256 294.107 327.096 291.107C322.866 288.057 317.136 291.577 313.186 294.977C302.596 304.067 291.996 313.157 281.406 322.247C272.046 330.277 261.086 338.827 248.856 337.267C240.776 336.237 233.966 330.907 227.876 325.507C211.866 311.297 197.596 295.127 185.506 277.457C220.446 301.687 271.646 299.037 303.896 271.317C308.176 267.637 312.476 262.357 310.846 256.957C309.086 251.097 301.176 249.327 295.436 251.457C289.696 253.577 285.356 258.257 280.406 261.847C267.106 271.507 249.036 273.197 233.276 268.547C217.506 263.897 203.906 253.517 193.056 241.167C175.896 221.627 164.776 194.257 172.496 169.427C193.556 201.857 235.426 219.287 273.286 211.387C280.536 209.877 289.116 205.477 288.606 198.087C288.116 191.117 279.996 187.787 273.236 186.017C250.726 180.107 227.436 173.827 209.446 159.067C191.456 144.297 180.286 118.497 189.576 97.1472C202.206 117.497 220.126 134.537 241.076 146.127C250.676 151.437 261.866 155.697 272.436 152.767C283.006 149.837 290.986 136.727 285.146 127.447C282.396 123.067 277.426 120.617 272.546 118.917C262.276 115.337 251.296 114.117 241.016 110.547C230.736 106.977 220.656 100.317 217.056 90.0472C211.726 74.8372 222.226 59.0572 232.076 46.2972C241.916 33.5372 252.236 17.5272 246.526 2.45717C268.666 -4.46283 294.696 3.61717 309.016 21.8672C323.336 40.1172 325.016 67.3172 313.026 87.1772C308.866 94.0772 303.146 100.367 301.546 108.267C299.946 116.167 305.246 126.207 313.256 125.427C316.946 125.067 320.036 122.547 322.706 119.977C350.566 93.1372 357.206 46.8772 338.016 13.2872C359.526 24.9672 371.306 49.8672 373.226 74.2672C375.146 98.6672 368.666 122.897 361.426 146.277C360.206 150.227 358.946 154.347 359.656 158.417C360.366 162.487 363.766 166.407 367.886 166.207C370.946 166.057 373.446 163.797 375.586 161.597C404.806 131.577 419.966 88.4072 415.936 46.7072C426.356 58.2972 436.746 70.1572 443.946 83.9772C451.146 97.7972 454.976 113.947 451.456 129.127C447.366 146.817 434.206 160.707 422.556 174.637C410.906 188.567 399.796 205.097 401.166 223.197C438.336 190.177 471.016 152.127 498.056 110.417C511.936 135.367 509.756 167.067 497.516 192.857C485.276 218.647 464.106 239.217 441.136 256.157C463.826 256.157 486.096 243.467 497.666 223.947C502.676 235.687 504.786 249.087 501.106 261.307C497.426 273.527 487.196 284.157 474.576 286.067C468.306 287.017 460.566 286.497 457.176 291.857C453.506 297.657 459.096 305.707 465.816 307.097C472.536 308.487 479.306 305.497 485.516 302.577C489.196 320.207 474.906 338.287 457.386 342.477C441.526 346.277 424.296 340.527 411.836 330.507C410.496 329.437 409.226 328.237 408.006 326.947L408.026 326.917Z" fill="#7DCBC8"/>
<g opacity="0.4">
<path d="M218.281 173.32C224.404 163.663 230.15 153.762 236.895 144.503C243.639 135.244 251.293 126.627 261.432 121.488L256.884 120.292C258.947 124.678 264.449 130.415 263.162 135.598C262.053 140.117 256.24 142.775 253.378 146.12C248.986 151.236 245.236 156.929 241.354 162.422C237.471 167.916 233.722 173.476 230.305 179.279C216.395 202.958 207.099 229.317 202.241 256.296C197.227 284.118 196.894 312.603 200.444 340.624C203.927 368.245 211.226 394.76 220.344 421.008C222.762 427.963 225.003 434.963 227.599 441.852C229.041 445.706 230.549 449.582 232.391 453.259C233.411 455.253 234.964 458.509 237.494 458.885L238.381 452.351L206.389 450.845C198.758 450.49 191.104 449.87 183.472 450.025C177.726 450.136 171.98 450.313 166.212 450.18C161.02 450.07 155.163 450.114 150.26 448.187C149.883 448.032 149.972 448.076 149.617 447.899C149.484 447.832 148.463 447.212 148.863 447.5C148.308 447.101 148.352 447.057 148.086 445.95C147.376 442.871 147.886 439.349 148.219 436.248C148.574 432.925 149.129 429.625 149.373 426.302C149.728 421.628 149.683 416.866 149.794 412.192C150.327 391.193 150.327 370.195 150.704 349.218C150.881 339.162 151.503 329.105 150.881 319.049C150.571 314.087 149.728 309.281 148.973 304.385C148.153 299.114 148.153 293.709 148.197 288.393C148.352 271.381 147.864 253.727 139.123 238.532C135.352 231.975 129.96 226.327 123.349 222.605C119.334 220.346 115.052 218.552 110.992 216.381C106.732 214.1 102.539 211.707 98.4349 209.16C82.5279 199.303 67.9077 187.453 54.9514 173.963C41.995 160.473 31.8341 146.917 22.9155 131.545C18.3675 123.703 14.1079 115.574 10.7801 107.135C9.04958 102.749 7.47441 98.1637 6.85322 93.4677C6.20984 88.506 7.71846 84.1866 8.87211 79.4464C10.0701 74.4626 11.1572 69.4344 12.2887 64.4505L9.07177 66.8871C15.6609 67.5516 22.25 68.2382 28.839 68.9028L25.5112 65.5802C25.0231 72.0703 23.6255 78.6047 24.1135 85.1391C24.6016 91.6735 26.6649 97.4548 29.3049 103.103C34.097 113.337 41.9729 122.064 51.7567 127.757C54.9292 129.617 58.7229 125.077 55.7944 122.529C56.3047 122.972 55.9941 123.415 56.1494 122.906C56.1272 122.994 56.0162 121.931 56.0384 122.086C55.9275 121.178 55.9275 120.248 55.9275 119.34C55.8831 117.28 55.9275 115.242 55.9941 113.182C56.1494 106.692 55.9275 100.179 56.105 93.6892C56.3269 86.003 56.704 78.3389 57.059 70.6748C57.3474 64.1404 58.0573 57.3845 57.3696 50.8501C57.1477 48.7014 56.8815 46.5528 56.948 44.3821C57.0146 42.2113 57.0146 41.6133 58.9004 41.7462C61.2742 41.9234 63.5815 42.7873 65.8666 43.4075C68.1517 44.0277 70.9027 44.4707 73.0547 45.7554C76.6044 47.8597 75.2511 55.3245 74.8517 58.7578C74.4524 62.1911 74.3415 65.846 74.5189 69.4344C74.6964 73.0228 75.2733 76.6555 74.9848 80.2438C74.7408 83.4335 74.8074 86.291 75.2733 89.4806C75.8723 93.4899 75.4286 97.6985 75.1623 101.73C74.6521 109.527 73.7425 117.302 72.8772 125.054C72.0785 132.32 70.9915 139.873 72.8329 147.072C74.4302 153.296 78.3127 158.635 82.7941 163.153C87.4975 167.916 92.8442 172.08 98.0577 176.289C103.959 181.073 109.971 185.747 116.072 190.31C128.163 199.37 140.632 207.964 153.366 216.115C157.138 218.53 160.931 220.9 164.792 223.181C167.765 224.953 171.159 227.523 174.775 227.634C177.637 227.722 179.944 226.127 181.919 224.2C184.803 221.365 187.377 218.198 189.906 215.052C200.488 201.917 209.296 187.519 218.303 173.298C220.61 169.666 214.842 166.343 212.557 169.954C204.215 183.089 196.14 196.49 186.489 208.739C184.337 211.464 182.119 214.122 179.811 216.713C178.214 218.485 176.461 221.631 173.799 220.678C170.56 219.527 167.387 217.001 164.481 215.207C160.976 213.059 157.493 210.844 154.032 208.606C141.075 200.211 128.407 191.373 116.117 182.026C109.683 177.13 103.36 172.102 97.126 166.919C92.112 162.755 86.7431 158.546 82.9938 153.141C78.8229 147.094 78.1574 140.516 78.712 133.361C79.311 125.52 80.4203 117.7 81.1524 109.881C81.8845 102.062 82.5945 94.4424 81.5074 86.734C81.0415 83.3228 81.818 79.9559 81.6183 76.5447C81.3965 72.6462 80.9971 68.7477 81.0415 64.8271C81.108 58.8464 82.4835 53.043 81.3299 47.0623C80.2428 41.4361 75.7835 39.221 70.6587 37.7812C66.0885 36.4965 60.2093 33.9935 55.4616 35.4333C50.7139 36.8731 50.0927 42.3664 50.3146 46.5528C50.4255 48.9894 50.8914 51.4038 50.9358 53.8404C51.0467 57.9825 50.7139 62.169 50.5586 66.289C50.1815 75.415 49.6712 84.5632 49.4272 93.6892C49.2275 100.689 49.4272 107.666 49.2941 114.666C49.2275 117.966 48.207 124.766 51.0689 127.247L55.1066 122.02C46.2325 116.837 39.3771 109.017 35.051 99.7363C32.6549 94.5974 30.7692 88.9047 30.6804 83.212C30.5917 77.5193 31.7232 71.4501 32.1669 65.558C32.3 63.6309 30.5251 62.4126 28.839 62.2354C22.25 61.5709 15.6609 60.8843 9.07177 60.2197C7.69627 60.0868 6.16547 61.3494 5.85488 62.6563C4.67905 67.8174 3.59196 73.0006 2.32739 78.1174C1.12937 82.9019 -0.379248 87.5092 0.0866468 92.5153C0.974066 102.018 4.94527 110.945 9.00521 119.472C16.8367 135.886 26.7758 151.236 38.3344 165.28C49.8931 179.323 63.4484 192.237 78.1574 203.312C86.1441 209.315 94.5303 214.809 103.249 219.704C107.598 222.162 112.057 224.444 116.56 226.593C120.177 228.32 123.549 230.314 126.5 233.083C138.48 244.357 141.519 262.609 141.63 278.292C141.697 288.924 141.386 299.224 143.205 309.746C145.024 320.267 144.581 330.589 144.27 340.956C143.649 362.198 143.804 383.463 143.316 404.705C143.116 413.743 143.227 422.824 142.096 431.795C141.364 437.488 139.5 445.75 142.983 450.889C145.646 454.832 151.525 455.585 155.851 456.139C162.019 456.914 168.275 456.936 174.465 456.848C190.283 456.648 206.012 457.49 221.808 458.221L238.359 458.996C242.042 459.173 242.996 453.016 239.246 452.462C239.468 452.484 239.756 452.794 239.801 452.75C239.845 452.683 239.801 452.816 239.801 452.75C239.668 452.55 239.512 452.351 239.402 452.152C238.736 451.044 238.137 449.915 237.582 448.741C236.074 445.573 234.831 442.273 233.611 438.972C231.282 432.681 229.174 426.302 227.022 419.967C223.051 408.316 219.057 396.731 215.885 384.836C212.224 371.059 209.318 357.059 207.41 342.949C200.067 288.548 207.743 231.466 235.563 183.532C239.379 176.975 243.617 170.729 247.987 164.549C252.003 158.856 255.819 152.455 261.143 147.869C265.358 144.259 269.84 140.604 269.995 134.579C270.173 127.956 265.314 122.618 262.652 116.947C261.853 115.264 259.59 114.998 258.104 115.751C247.41 121.156 239.224 130.348 232.169 139.807C225.114 149.265 218.991 159.831 212.579 169.954C210.294 173.586 216.04 176.909 218.325 173.298L218.281 173.32Z" fill="#ABD7A2"/>
<path d="M215.397 171.659C226.512 154.16 240.445 128.2 259.746 118.653C262.076 123.814 267.711 130.127 266.446 136.196C265.315 141.579 258.992 144.547 255.708 148.534C251.382 153.806 247.1 160.119 243.04 165.789C234.055 178.371 226.557 191.993 220.522 206.236C208.387 234.877 202.175 265.932 201.443 296.987C200.777 324.786 204.371 352.563 211.027 379.542C214.377 393.076 218.503 406.411 223.273 419.502C224.76 423.555 234.832 455.563 238.337 455.74L188.708 453.414C180.433 453.038 148.796 455.762 145.38 448.563C142.984 443.469 145.912 430.799 146.068 425.062C146.312 416.866 146.511 408.67 146.689 400.474C147.022 384.592 147.221 368.711 147.288 352.806C147.354 337.966 148.93 321.973 146.068 307.398C143.494 294.152 145.912 280.618 144.271 267.128C142.096 249.275 135.729 231.997 119.09 224.178C102.451 216.359 87.4757 206.856 73.4767 195.537C46.122 173.409 23.8478 144.946 9.51593 112.827C6.52089 106.138 3.50367 98.0972 3.23745 90.6767C3.08215 86.5567 4.79043 82.0823 5.70004 78.1174C6.80931 73.2664 7.91858 68.4154 9.00567 63.5645C15.5948 64.229 22.1838 64.9156 28.7729 65.5802C28.3736 71.6494 27.0868 78.1838 27.3087 84.1866C27.5084 89.6135 29.4163 95.3505 31.5683 100.268C36.0498 110.457 43.6372 119.362 53.3545 124.899C52.0455 124.146 52.6445 113.005 52.6002 111.255C52.4892 106.492 52.5114 101.73 52.6002 96.9675C52.7998 87.4649 53.3101 77.9623 53.7316 68.4597C53.9313 63.7195 54.1088 58.9571 54.1975 54.1948C54.2641 50.407 51.6462 40.2178 56.2829 38.6229C58.8786 37.7369 64.0922 39.4868 66.6657 40.1735C69.7717 40.993 75.4734 42.1892 77.0929 45.0244C78.9343 48.2584 78.5128 55.701 78.0247 59.2673C77.2039 65.2479 77.936 71.5387 78.2909 77.5415C78.4241 79.7344 78.0025 81.595 77.9138 83.7436C77.7807 86.6896 78.8456 89.5249 78.8012 92.4709C78.6459 104.809 76.9598 117.125 75.6952 129.374C75.074 135.31 74.5416 141.424 76.2721 147.139C78.779 155.467 85.6122 161.669 92.29 167.251C108.574 180.918 125.613 193.699 143.294 205.55C152.213 211.53 161.265 217.356 170.56 222.738C175.33 225.507 177.083 224.488 180.699 220.568C184.315 216.647 187.532 212.704 190.683 208.584C199.69 196.8 207.41 184.108 215.353 171.593L215.397 171.659Z" fill="#ABD7A2"/>
</g>
</svg>
