<svg width="292" height="684" viewBox="0 0 292 684" fill="none" xmlns="http://www.w3.org/2000/svg">
<g opacity="0.4">
<path d="M39.9055 214.013C26.897 186.609 10.5908 145.954 -11.999 131.004C-14.7253 139.086 -21.3205 148.972 -19.8404 158.477C-18.5162 166.906 -11.1161 171.555 -7.27328 177.798C-2.21005 186.054 2.80121 195.941 7.55286 204.821C18.0688 224.524 26.845 245.858 33.9076 268.162C48.1106 313.015 55.3808 361.648 56.2377 410.282C57.0166 453.816 52.8103 497.315 45.0207 539.566C41.1 560.761 36.2704 581.643 30.6879 602.144C28.9482 608.492 17.16 658.617 13.0575 658.895L71.1417 655.253C80.8268 654.663 117.853 658.93 121.852 647.656C124.656 639.677 121.229 619.835 121.047 610.851C120.761 598.016 120.528 585.181 120.32 572.347C119.93 547.475 119.697 522.603 119.619 497.697C119.541 474.456 117.697 449.41 121.047 426.585C124.059 405.841 121.229 384.647 123.15 363.521C125.695 335.562 133.147 308.505 152.621 296.26C172.095 284.015 189.621 269.134 206.005 251.408C238.02 216.754 264.089 172.179 280.863 121.88C284.368 111.404 287.899 98.8125 288.211 87.1918C288.393 80.7398 286.393 73.7327 285.329 67.5234C284.031 59.9266 282.732 52.3298 281.46 44.733C273.748 45.7736 266.037 46.849 258.325 47.8896C258.792 57.3943 260.298 67.6275 260.039 77.0281C259.805 85.5268 257.572 94.5111 255.053 102.212C249.808 118.169 240.928 132.114 229.556 140.786C231.088 139.606 230.386 122.158 230.438 119.418C230.568 111.96 230.542 104.501 230.438 97.0434C230.205 82.162 229.608 67.2806 229.114 52.3992C228.881 44.9758 228.673 37.5177 228.569 30.0597C228.491 24.1279 231.555 8.17118 226.128 5.6736C223.09 4.28605 216.988 7.02645 213.976 8.1018C210.341 9.38528 203.668 11.2585 201.773 15.6986C199.618 20.7631 200.111 32.4185 200.682 38.0034C201.643 47.3693 200.786 57.2209 200.371 66.6215C200.215 70.0557 200.708 72.9695 200.812 76.3343C200.968 80.9479 199.722 85.388 199.773 90.0016C199.955 109.323 201.929 128.61 203.409 147.793C204.136 157.089 204.759 166.663 202.734 175.613C199.799 188.656 191.802 198.369 183.987 207.11C164.928 228.513 144.987 248.529 124.293 267.087C113.855 276.453 103.261 285.576 92.3813 294.005C86.7988 298.341 84.7475 296.746 80.5152 290.606C76.2828 284.466 72.5179 278.291 68.8308 271.839C58.2889 253.385 49.2531 233.508 39.9575 213.909L39.9055 214.013Z" fill="#59C6D7"/>
<path d="M36.5305 216.615C29.3641 201.491 22.6391 185.985 14.7457 171.485C6.85223 156.985 -2.10577 143.492 -13.9719 135.444L-8.64902 133.571C-11.0638 140.439 -17.5031 149.423 -15.9972 157.54C-14.6989 164.617 -7.896 168.78 -4.54648 174.018C0.594635 182.031 4.98276 190.946 9.52667 199.548C14.0706 208.151 18.4587 216.858 22.4573 225.946C38.7375 263.029 49.617 304.308 55.3033 346.559C61.1715 390.128 61.561 434.737 57.4066 478.618C53.33 521.875 44.7875 563.397 34.1158 604.503C31.2855 615.395 28.663 626.357 25.6251 637.145C23.9373 643.181 22.1717 649.251 20.0166 655.01C18.8222 658.132 17.0046 663.231 14.0446 663.821L13.006 653.588L50.4479 651.229C59.3799 650.674 68.3379 649.702 77.2699 649.945C83.9949 650.119 90.7199 650.396 97.4709 650.188C103.547 650.015 110.402 650.084 116.14 647.066C116.581 646.823 116.477 646.893 116.893 646.615C117.049 646.511 118.243 645.54 117.776 645.991C118.425 645.366 118.373 645.297 118.684 643.563C119.515 638.741 118.918 633.225 118.529 628.369C118.113 623.166 117.464 617.997 117.178 612.794C116.763 605.474 116.815 598.016 116.685 590.697C116.062 557.812 116.062 524.927 115.621 492.077C115.413 476.329 114.686 460.58 115.413 444.832C115.776 437.061 116.763 429.534 117.646 421.868C118.607 413.612 118.607 405.148 118.555 396.822C118.373 370.182 118.944 342.535 129.174 318.738C133.589 308.471 139.898 299.625 147.636 293.797C152.335 290.259 157.347 287.449 162.098 284.05C167.084 280.477 171.991 276.73 176.795 272.741C195.412 257.305 212.523 238.746 227.687 217.621C242.85 196.496 254.742 175.266 265.18 151.192C270.503 138.913 275.489 126.182 279.383 112.966C281.409 106.097 283.252 98.9167 283.979 91.5627C284.732 83.7924 282.967 77.0281 281.616 69.6048C280.214 61.7998 278.942 53.9255 277.618 46.1206L281.383 49.9363C273.671 50.977 265.959 52.0523 258.248 53.093L262.142 47.8897C262.714 58.0535 264.349 68.2866 263.778 78.5198C263.207 88.7529 260.792 97.8066 257.702 106.652C252.094 122.678 242.876 136.346 231.426 145.261C227.713 148.174 223.272 141.063 226.7 137.074C226.103 137.768 226.466 138.462 226.284 137.664C226.31 137.803 226.44 136.138 226.414 136.38C226.544 134.958 226.544 133.501 226.544 132.079C226.596 128.853 226.544 125.662 226.466 122.436C226.284 112.272 226.544 102.073 226.336 91.9096C226.077 79.8726 225.635 67.8704 225.22 55.8681C224.882 45.635 224.051 35.0549 224.856 24.8218C225.116 21.457 225.428 18.0922 225.35 14.6927C225.272 11.2932 225.272 10.3566 223.065 10.5648C220.286 10.8423 217.586 12.1951 214.912 13.1664C212.237 14.1377 209.018 14.8315 206.499 16.8434C202.344 20.1388 203.928 31.8289 204.396 37.2056C204.863 42.5823 204.993 48.306 204.785 53.9255C204.578 59.5451 203.902 65.234 204.24 70.8536C204.526 75.8487 204.448 80.3236 203.902 85.3187C203.201 91.5974 203.721 98.1882 204.032 104.502C204.629 116.712 205.694 128.888 206.707 141.029C207.641 152.406 208.914 164.235 206.759 175.509C204.889 185.257 200.345 193.617 195.1 200.693C189.596 208.151 183.338 214.673 177.236 221.263C170.329 228.756 163.293 236.075 156.152 243.221C142.001 257.409 127.409 270.868 112.505 283.634C108.091 287.415 103.651 291.126 99.1327 294.699C95.6533 297.474 91.6806 301.498 87.4483 301.672C84.0988 301.81 81.3984 299.313 79.0875 296.295C75.712 291.855 72.7001 286.894 69.7401 281.968C57.3546 261.398 47.0464 238.851 36.5045 216.58C33.8041 210.891 40.5551 205.688 43.2295 211.342C52.9924 231.913 62.4438 252.899 73.7387 272.082C76.2573 276.349 78.8538 280.512 81.5542 284.57C83.4237 287.345 85.475 292.271 88.5908 290.779C92.3817 288.976 96.0947 285.021 99.4962 282.211C103.599 278.846 107.675 275.378 111.726 271.874C126.89 258.727 141.716 244.886 156.1 230.248C163.63 222.582 171.03 214.707 178.327 206.59C184.195 200.069 190.478 193.478 194.867 185.014C199.748 175.544 200.527 165.241 199.878 154.037C199.177 141.757 197.878 129.512 197.022 117.267C196.165 105.022 195.334 93.089 196.606 81.0173C197.151 75.6753 196.243 70.4026 196.476 65.0606C196.736 58.9554 197.203 52.8502 197.151 46.7103C197.074 37.3444 195.464 28.256 196.814 18.89C198.086 10.0791 203.305 6.61026 209.303 4.3555C214.652 2.34356 221.533 -1.57625 227.089 0.678508C232.646 2.93327 233.373 11.536 233.113 18.0922C232.983 21.9079 232.438 25.689 232.386 29.5047C232.256 35.9915 232.646 42.5477 232.828 48.9997C233.269 63.2915 233.866 77.6179 234.152 91.9096C234.386 102.871 234.152 113.798 234.308 124.76C234.386 129.928 235.58 140.578 232.23 144.463L227.505 136.276C237.891 128.159 245.914 115.914 250.977 101.38C253.782 93.3318 255.989 84.4168 256.093 75.5018C256.196 66.5869 254.872 57.0822 254.353 47.855C254.197 44.8371 256.274 42.9292 258.248 42.6517C265.959 41.6111 273.671 40.5357 281.383 39.4951C282.993 39.2869 284.784 41.2642 285.148 43.3108C286.524 51.3933 287.796 59.5104 289.276 67.5235C290.678 75.0162 292.444 82.2314 291.899 90.0711C290.86 104.952 286.212 118.932 281.461 132.287C272.295 157.991 260.662 182.031 247.135 204.023C233.607 226.016 217.742 246.239 200.527 263.584C191.179 272.984 181.365 281.587 171.16 289.253C166.071 293.104 160.852 296.676 155.581 300.041C151.349 302.747 147.402 305.869 143.949 310.205C129.927 327.862 126.37 356.445 126.24 381.004C126.163 397.655 126.526 413.785 124.397 430.262C122.268 446.739 122.787 462.904 123.151 479.139C123.878 512.405 123.696 545.706 124.267 578.972C124.501 593.125 124.371 607.348 125.695 621.397C126.552 630.312 128.733 643.25 124.657 651.298C121.541 657.473 114.66 658.652 109.597 659.519C102.378 660.733 95.0561 660.768 87.8118 660.629C69.2986 660.317 50.8893 661.635 32.402 662.78L13.032 663.994C8.72171 664.272 7.60522 654.628 11.9933 653.761C11.7337 653.796 11.3961 654.281 11.3442 654.212C11.2923 654.108 11.3442 654.316 11.3442 654.212C11.5 653.9 11.6818 653.588 11.8116 653.275C12.5905 651.541 13.2916 649.772 13.9407 647.933C15.7064 642.973 17.1604 637.804 18.5885 632.636C21.3148 622.784 23.7816 612.794 26.3002 602.873C30.948 584.627 35.6217 566.484 39.3347 547.857C43.619 526.28 47.0204 504.357 49.2534 482.26C57.8479 397.065 48.864 307.673 16.3036 232.607C11.8376 222.339 6.8782 212.557 1.76303 202.878C-2.93668 193.963 -7.40268 183.938 -13.6343 176.758C-18.5677 171.104 -23.8127 165.38 -23.9945 155.945C-24.2022 145.573 -18.5158 137.213 -15.4 128.333C-14.4652 125.696 -11.8168 125.28 -10.0771 126.459C2.43814 134.923 12.0193 149.319 20.2763 164.131C28.5332 178.943 35.6996 195.49 43.2036 211.342C45.878 217.031 39.153 222.235 36.4785 216.58L36.5305 216.615Z" fill="#59C6D7"/>
<path d="M182.026 773.917C171.736 763.017 165.376 745.187 158.196 732.627C162.186 739.597 162.546 755.387 164.276 763.587C166.296 773.157 165.626 782.007 161.616 791.307C152.326 812.827 129.806 827.947 106.376 828.397C103.686 828.447 100.826 828.267 98.6259 826.707C94.2859 823.627 94.856 816.747 97.786 812.317C100.716 807.887 105.326 804.807 108.636 800.647C111.946 796.487 113.716 790.107 110.316 786.007C105.226 784.637 99.946 787.867 96.586 791.927C93.226 795.987 91.066 800.937 87.676 804.967C81.626 812.137 71.656 815.757 62.416 814.137C53.176 812.517 45.026 805.727 41.776 796.937C67.186 792.427 90.046 775.317 101.536 752.207C103.826 747.607 105.256 741.107 101.096 738.107C96.866 735.057 91.136 738.577 87.186 741.977C76.596 751.067 65.996 760.157 55.406 769.247C46.046 777.277 35.086 785.827 22.856 784.267C14.776 783.237 7.96593 777.907 1.87593 772.507C-14.1341 758.297 -28.4041 742.127 -40.4941 724.457C-5.55406 748.687 45.646 746.037 77.896 718.317C82.1759 714.637 86.476 709.357 84.846 703.957C83.086 698.097 75.176 696.327 69.436 698.457C63.696 700.577 59.356 705.257 54.406 708.847C41.106 718.507 23.036 720.197 7.27596 715.547C-8.49404 710.897 -22.094 700.517 -32.944 688.167C-50.104 668.627 -61.2239 641.257 -53.5039 616.427C-32.444 648.857 9.42596 666.287 47.286 658.387C54.536 656.877 63.116 652.477 62.606 645.087C62.116 638.117 53.996 634.787 47.236 633.017C24.726 627.107 1.436 620.827 -16.554 606.067C-34.544 591.297 -45.714 565.497 -36.424 544.147C-23.794 564.497 -5.874 581.537 15.076 593.127C24.676 598.437 35.866 602.697 46.436 599.767C57.006 596.837 64.9859 583.727 59.146 574.447C56.396 570.067 51.426 567.617 46.546 565.917C36.276 562.337 25.2959 561.117 15.0159 557.547C4.73595 553.977 -5.34401 547.317 -8.94401 537.047C-14.274 521.837 -3.77399 506.057 6.07601 493.297C15.916 480.537 26.236 464.527 20.526 449.457C42.666 442.537 68.6959 450.617 83.0159 468.867C97.3359 487.117 99.016 514.317 87.026 534.177C82.866 541.077 77.146 547.367 75.546 555.267C73.946 563.167 79.2459 573.207 87.2559 572.427C90.9459 572.067 94.036 569.547 96.706 566.977C124.566 540.137 131.206 493.877 112.016 460.287C133.526 471.967 145.306 496.867 147.226 521.267C149.146 545.667 142.666 569.897 135.426 593.277C134.206 597.227 132.946 601.347 133.656 605.417C134.366 609.487 137.766 613.407 141.886 613.207C144.946 613.057 147.446 610.797 149.586 608.597C178.806 578.577 193.966 535.407 189.936 493.707C200.356 505.297 210.746 517.157 217.946 530.977C225.146 544.797 228.976 560.947 225.456 576.127C221.366 593.817 208.206 607.707 196.556 621.637C184.906 635.567 173.796 652.097 175.166 670.197C212.336 637.177 245.016 599.127 272.056 557.417C285.936 582.367 283.756 614.067 271.516 639.857C259.276 665.647 238.106 686.217 215.136 703.157C237.826 703.157 260.096 690.467 271.666 670.947C276.676 682.687 278.786 696.087 275.106 708.307C271.426 720.527 261.196 731.157 248.576 733.067C242.306 734.017 234.566 733.497 231.176 738.857C227.506 744.657 233.096 752.707 239.816 754.097C246.536 755.487 253.306 752.497 259.516 749.577C263.196 767.207 248.906 785.287 231.386 789.477C215.526 793.277 198.296 787.527 185.836 777.507C184.496 776.437 183.226 775.237 182.006 773.947L182.026 773.917Z" fill="#59C6D7"/>
</g>
</svg>
