<svg width="347" height="450" viewBox="0 0 347 450" fill="none" xmlns="http://www.w3.org/2000/svg">
<path d="M290.921 14.7767C277.171 42.1317 270.982 71.9136 259.41 100.157C257.015 106.007 254.442 111.952 249.945 116.732C245.448 121.512 238.613 124.92 232.05 123.984C225.038 122.988 220.192 117.514 214.231 114.162C208.27 110.81 198.242 110.765 195.675 117.007C192.636 124.389 203.042 129.195 208.23 135.079C215.673 143.506 212.18 156.499 206.598 166.629C201.015 176.758 193.443 186.865 193.521 197.974C181.905 191.92 170.289 185.865 158.656 179.838C154.543 192.43 173.56 200.336 176.182 212.92C178.154 222.426 170.316 231.574 163.04 239.074C147.754 254.829 131.519 271.191 110.189 278.613C88.8834 286.029 61.1255 280.797 52.9202 262.093C59.5962 272.063 55.873 286.52 46.1529 295.019C36.4328 303.517 22.0851 306.412 9.27152 304.568C-3.54204 302.724 -14.9748 296.596 -24.8319 289.182C-33.1779 282.911 -46.1396 272.731 -57.8194 279.11C-63.6268 282.279 -67.5217 287.672 -71.2161 292.873C-83.0013 309.517 -94.816 326.146 -106.601 342.79C-105.362 340.656 -110.621 337.913 -110.857 336.143C-111.211 333.67 -110.226 333.191 -109.648 330.782C-108.308 325.155 -102.46 318.28 -99.3262 313.166C-92.5455 302.039 -85.3222 291.134 -77.7093 280.442C-72.6222 273.296 -65.4281 266.139 -62.4894 258.119C-59.7396 250.61 -61.8177 243.383 -62.3199 235.88C-62.834 228.426 -62.2915 220.289 -57.1336 214.224C-51.9756 208.16 -40.7028 206.093 -35.9689 211.988C-32.2389 209.762 -32.6466 204.527 -35.0312 201.332C-37.4159 198.137 -41.158 195.915 -43.3479 192.597C-47.9166 185.646 -44.5059 176.394 -40.5285 168.728C-29.7056 147.876 -15.2469 128.495 2.10396 111.571C6.98555 119.284 11.8612 126.976 16.7428 134.689C18.189 136.974 19.9539 139.492 22.8342 139.979C29.1908 141.087 32.2179 132.285 30.6535 126.545C29.089 120.805 26.4384 113.713 31.3841 109.543C39.8299 109.476 44.8532 117.333 49.351 123.661C53.8725 129.982 62.667 136.13 69.8968 131.763C73.6857 129.475 75.2731 125.019 75.2197 120.971C75.1129 113.152 70.131 106.454 66.3119 99.6395C62.4927 92.8255 59.8479 84.2863 64.2091 77.3639C67.5965 71.9734 74.2302 69.1262 80.4272 66.6295C103.964 57.1728 127.501 47.7161 151.038 38.2594C162.11 33.8157 176.469 29.8614 184.29 37.6326C188.144 41.4533 189.018 47.0864 191.763 51.6735C194.508 56.2606 201.278 59.7787 205.987 56.4088C212.414 51.8058 206.258 42.4262 209.12 35.5059C211.374 30.062 218.403 27.8168 224.53 26.4413C246.526 21.5192 269.609 17.6732 291.996 18.5642" fill="#DFC2F8"/>
<path d="M-11.7044 358.891C-3.55757 352.292 9.08715 348.936 18.1687 344.642C13.1362 347.023 2.2716 346.284 -3.4511 346.99C-10.1415 347.82 -16.1661 346.788 -22.2871 343.345C-36.4407 335.413 -45.338 318.526 -44.1088 301.915C-43.9645 300.004 -43.6516 297.994 -42.45 296.542C-40.0497 293.672 -35.3766 294.498 -32.5192 296.866C-29.6618 299.235 -27.8593 302.673 -25.2314 305.284C-22.6035 307.894 -18.3405 309.537 -15.3066 307.4C-14.0419 303.882 -15.9098 299.944 -18.4715 297.307C-21.0332 294.67 -24.291 292.84 -26.8338 290.171C-31.3544 285.446 -33.1843 278.157 -31.4751 271.72C-29.7659 265.283 -24.5733 259.957 -18.3231 258.198C-16.8845 276.47 -6.65083 293.727 8.45024 303.309C11.4619 305.214 15.825 306.636 18.15 303.891C20.5111 301.099 18.4678 296.816 16.4034 293.797C10.869 285.722 5.31723 277.662 -0.21723 269.587C-5.10597 262.46 -10.2529 254.157 -8.3956 245.597C-7.15664 239.939 -3.06263 235.465 1.04948 231.486C11.829 221.052 23.8532 211.981 36.7633 204.538C17.8592 227.725 16.3509 264.126 33.2417 288.69C35.4746 291.955 38.8295 295.323 42.6326 294.522C46.7622 293.637 48.4948 288.156 47.4154 283.962C46.336 279.768 43.4108 276.406 41.269 272.673C35.5154 262.654 35.5408 249.764 39.7457 238.903C43.9506 228.043 51.9663 219.063 61.1433 212.181C75.6642 201.269 95.1467 195.139 111.678 202.173C88.0694 215.026 73.3744 243.55 76.3254 270.825C76.8947 276.057 79.3378 282.4 84.4435 282.509C89.2474 282.607 92.0697 277.062 93.7271 272.397C99.2418 256.839 105.075 240.768 116.379 228.967C127.683 217.166 146.109 210.906 160.136 218.827C145.359 226.476 132.512 238.069 123.195 252.174C118.935 258.622 115.28 266.277 116.597 273.947C117.914 281.616 126.385 288.087 133.134 284.549C136.317 282.87 138.315 279.518 139.804 276.169C142.924 269.123 144.477 261.438 147.597 254.392C150.717 247.345 155.941 240.641 163.21 238.729C173.987 235.924 184.126 244.358 192.238 252.128C200.351 259.898 210.644 268.215 221.352 265.124C224.647 281.231 217.419 299.131 203.968 308.119C190.517 317.107 171.761 316.561 158.921 306.826C154.469 303.439 150.528 298.997 145.211 297.372C139.895 295.747 132.66 298.845 132.69 304.571C132.702 307.203 134.223 309.547 135.819 311.602C152.411 333.014 183.693 340.635 207.986 329.177C198.571 343.651 180.734 350.426 163.875 350.236C147.015 350.046 130.829 343.932 115.262 337.333C112.639 336.22 109.893 335.062 107.049 335.309C104.206 335.557 101.298 337.706 101.171 340.638C101.082 342.817 102.468 344.721 103.829 346.376C122.513 368.951 151.122 382.41 179.972 382.193C171.344 388.83 162.543 395.435 152.592 399.648C142.64 403.877 131.314 405.546 121.145 402.108C109.275 398.103 100.622 387.899 91.8205 378.782C83.0351 369.668 72.4152 360.745 59.92 360.58C80.1394 388.97 104.097 414.498 130.936 436.263C112.916 444.5 91.3291 440.964 74.446 430.658C57.563 420.353 44.8318 404.082 34.7162 386.754C33.235 402.815 40.4895 419.37 53.1193 428.79C44.748 431.603 35.4141 432.239 27.2793 428.857C19.1446 425.476 12.5115 417.563 12.0225 408.522C11.7836 404.027 12.6365 398.581 9.19139 395.845C5.44825 392.886 -0.430754 396.323 -1.81802 400.997C-3.20529 405.671 -1.59156 410.638 -0.00646165 415.224C-12.336 416.718 -23.7914 405.45 -25.5419 392.807C-27.1147 381.348 -22.0392 369.515 -14.3673 361.326C-13.5374 360.449 -12.6487 359.626 -11.6841 358.844L-11.7044 358.891Z" fill="#98B6DF"/>
</svg>
