<svg width="252" height="426" viewBox="0 0 252 426" fill="none" xmlns="http://www.w3.org/2000/svg">
<path d="M179.517 9.93856C171.651 27.9548 168.425 47.7272 161.9 66.3758C160.549 70.2386 159.092 74.1617 156.444 77.2721C153.797 80.3825 149.705 82.5348 145.699 81.7919C141.42 81.0013 138.376 77.2597 134.693 74.9147C131.01 72.5697 124.915 72.3592 123.467 76.4805C121.752 81.3547 128.163 84.7503 131.422 88.7719C136.097 94.5315 134.207 103.144 130.996 109.806C127.786 116.469 123.365 123.08 123.612 130.499C116.444 126.248 109.276 121.997 102.097 117.764C99.8236 126.097 111.523 131.717 113.343 140.166C114.712 146.548 110.113 152.514 105.825 157.391C96.8187 167.635 87.2455 178.267 74.4157 182.84C61.6001 187.408 44.6361 183.416 39.3133 170.781C43.5498 177.558 41.5468 187.143 35.792 192.642C30.0373 198.141 21.3693 199.817 13.5487 198.355C5.72808 196.894 -1.33035 192.597 -7.45419 187.47C-12.6392 183.133 -20.6996 176.104 -27.6834 180.153C-31.156 182.164 -33.4263 185.695 -35.5781 189.101C-42.4416 200.001 -49.3233 210.891 -56.1869 221.792C-55.472 220.39 -58.7174 218.464 -58.8928 217.277C-59.1526 215.62 -58.5622 215.318 -58.254 213.72C-57.5411 209.988 -54.1102 205.502 -52.2976 202.145C-48.3765 194.838 -44.1824 187.687 -39.7477 180.685C-36.7844 176.005 -32.5407 171.357 -30.8988 166.055C-29.3625 161.091 -30.7553 156.228 -31.1953 151.21C-31.6416 146.224 -31.4582 140.801 -28.4323 136.845C-25.4065 132.889 -18.5925 131.712 -15.6096 135.732C-13.3827 134.313 -13.7244 130.811 -15.2311 128.635C-16.7378 126.459 -19.052 124.908 -20.4426 122.653C-23.3441 117.931 -21.4374 111.815 -19.1578 106.768C-12.9548 93.0408 -4.51565 80.3609 5.7254 69.3739C8.83078 74.6112 11.9322 79.8342 15.0376 85.0714C15.9575 86.6227 17.0754 88.3353 18.8346 88.7124C22.7178 89.5665 24.3994 83.7442 23.3455 79.8837C22.2916 76.0233 20.5533 71.2409 23.4841 68.5459C28.6159 68.6527 31.81 73.9889 34.6572 78.2943C37.5187 82.5958 42.9741 86.858 47.2896 84.0728C49.5512 82.6128 50.4359 79.6664 50.3307 76.9633C50.1253 71.7409 46.9772 67.1792 44.5337 62.5613C42.0902 57.9434 40.3294 52.1947 42.8555 47.6514C44.8174 44.1133 48.7979 42.3316 52.5194 40.776C66.6541 34.8852 80.7888 28.9943 94.9235 23.1035C101.573 20.3356 110.229 17.9536 115.121 23.2824C117.533 25.9025 118.165 29.6791 119.916 32.791C121.666 35.9028 125.844 38.3732 128.646 36.208C132.469 33.2503 128.559 26.8775 130.174 22.3086C131.446 18.7146 135.678 17.3418 139.376 16.5336C152.656 13.6425 166.616 11.4895 180.238 12.4865" fill="#E27BB8"/>
<path d="M-65.4421 264.497C-75.7259 266.557 -86.0276 268.623 -96.3114 270.683C-99.13 271.24 -108.322 271.486 -110.103 273.809C-111.069 275.073 -110.07 282.499 -108.833 282.235C-84.061 276.695 -61.2081 269.721 -35.4072 269.158C-53.2206 281.226 -55.9369 307.931 -46.5429 327.287C-37.1489 346.643 -18.7467 359.944 -0.16071 370.787C17.7031 381.203 38.1384 390.391 58.434 386.472C72.5078 383.751 84.5882 375.033 96.1576 366.571C141.826 333.109 187.507 299.623 233.176 266.161C208.191 250.409 184.319 232.915 161.772 213.85C132.959 189.48 103.728 161.283 66.3673 156.093C37.1282 152.031 6.16112 164.133 -12.5559 186.952C-27.6274 205.336 -28.8361 228.583 -34.4088 250.701C-36.0536 257.213 -36.6941 258.514 -43.2083 260.037C-50.5708 261.745 -58.0488 263.016 -65.4601 264.502L-65.4421 264.497Z" fill="#FDDE97"/>
</svg>
