<svg width="280" height="513" viewBox="0 0 280 513" fill="none" xmlns="http://www.w3.org/2000/svg">
<path d="M320.19 250.032C309.985 243.721 302.321 231.829 294.581 223.861C298.872 228.276 301.157 239.596 303.66 245.225C306.593 251.804 307.12 258.271 304.815 265.569C299.518 282.435 282.06 296.658 261.984 300.457C259.673 300.891 257.196 301.183 255.123 300.397C251.017 298.819 250.638 293.796 252.618 290.158C254.597 286.519 258.155 283.632 260.489 280.155C262.823 276.677 263.533 271.824 260.112 269.376C255.568 269.155 251.437 272.26 249.052 275.678C246.667 279.097 245.443 282.98 243.015 286.389C238.721 292.443 230.601 296.529 222.462 296.742C214.324 296.954 206.49 293.272 202.583 287.425C223.854 280.397 241.362 264.697 248.342 246.361C249.728 242.705 250.146 237.817 246.21 236.278C242.209 234.717 237.719 238.106 234.736 241.133C226.761 249.241 218.808 257.363 210.833 265.471C203.795 272.631 195.437 280.413 184.734 281.121C177.657 281.577 171.155 278.757 165.235 275.769C149.71 267.936 135.444 258.416 122.851 247.497C155.878 259.747 199.529 250.213 223.773 225.492C226.998 222.218 230.02 217.768 227.963 214.128C225.71 210.18 218.7 210.078 214.035 212.456C209.37 214.835 206.231 218.844 202.423 222.167C192.203 231.091 176.894 234.987 162.778 233.997C148.662 233.007 135.669 227.553 124.828 220.276C107.648 208.767 94.7013 190.737 98.2397 171.716C120.369 191.914 158.507 198.242 190.026 186.931C196.072 184.758 202.891 180.333 201.534 175.086C200.252 170.151 192.848 168.956 186.828 168.682C166.754 167.784 145.978 166.717 128.679 158.764C111.381 150.811 98.587 133.898 103.907 117.165C117.288 129.928 134.789 139.52 154.245 144.743C163.14 147.132 173.29 148.534 182.012 144.857C190.733 141.179 195.95 130.559 189.785 124.744C186.865 122.005 182.305 120.983 177.896 120.483C168.623 119.44 159.049 120.192 149.776 119.149C140.503 118.107 131.023 114.812 126.639 107.972C120.173 97.8196 127.234 84.9 134.097 74.2518C140.96 63.6037 147.837 50.5623 141.051 40.5681C159.213 32.3023 182.565 34.2386 197.15 45.2399C211.734 56.2413 216.545 75.5597 208.725 91.6333C206 97.2108 201.874 102.587 201.492 108.51C201.11 114.434 206.894 120.878 213.682 119.106C216.804 118.293 219.143 116.027 221.118 113.772C241.708 90.3149 241.65 56.0513 220.978 34.73C240.901 39.9407 254.135 56.094 258.816 73.3685C263.497 90.643 260.95 109.032 257.647 126.936C257.088 129.953 256.513 133.11 257.635 135.938C258.756 138.767 262.154 141.082 265.671 140.32C268.284 139.748 270.14 137.753 271.709 135.859C293.07 109.912 300.721 76.6028 292.067 47.208C302.457 53.9998 312.859 60.9775 320.757 69.8572C328.674 78.7335 333.951 89.7913 332.83 101.222C331.53 114.562 321.934 126.503 313.674 138.264C305.41 150.008 297.91 163.567 301.349 176.377C329.167 147.093 352.499 114.861 370.525 80.8329C385.549 96.7277 387.633 119.848 380.312 140.224C372.992 160.6 357.383 178.55 339.756 194.152C359.254 190.778 376.795 178.334 384.302 162.57C390.077 170.263 393.548 179.601 391.902 188.937C390.255 198.273 382.792 207.454 372.202 210.704C366.936 212.315 360.222 213.101 357.977 217.451C355.553 222.174 361.345 227.132 367.297 227.127C373.249 227.121 378.676 223.962 383.659 220.948C389.021 233.084 378.978 248.211 364.478 253.844C351.333 258.937 335.809 257.354 323.855 252.011C322.573 251.43 321.338 250.773 320.128 250.026L320.19 250.032Z" fill="#F2C04C"/>
<path d="M14.5032 112.858C40.3985 123.466 68.3963 127.256 95.0744 135.889C100.6 137.676 106.219 139.615 110.79 143.319C115.362 147.024 118.701 152.871 117.971 158.724C117.195 164.976 112.182 169.567 109.179 175.024C106.175 180.481 106.355 189.345 112.252 191.261C119.225 193.531 123.49 184.064 128.879 179.148C136.597 172.095 148.83 174.449 158.43 178.811C168.029 183.173 177.652 189.294 188.043 188.599C182.637 199.206 177.231 209.812 171.851 220.432C183.721 223.357 190.695 206.105 202.41 203.079C211.259 200.801 219.99 207.211 227.168 213.218C242.245 225.837 257.912 239.262 265.329 257.692C272.739 276.102 268.46 300.926 251.145 309.232C260.324 302.77 273.931 305.245 282.097 313.355C290.263 321.466 293.289 333.981 291.849 345.409C290.408 356.836 284.929 367.284 278.212 376.413C272.53 384.142 263.295 396.17 269.521 406.132C272.615 411.085 277.747 414.223 282.693 417.194C298.525 426.67 314.344 436.173 330.175 445.649C328.152 444.674 325.703 449.476 324.052 449.785C321.747 450.237 321.276 449.394 319.01 449.018C313.716 448.152 307.155 443.372 302.301 440.891C291.742 435.526 281.38 429.758 271.209 423.633C264.411 419.541 257.556 413.587 249.988 411.442C242.903 409.436 236.188 411.68 229.18 412.547C222.218 413.421 214.594 413.401 208.807 409.185C203.019 404.968 200.836 395.123 206.245 390.608C204.08 387.437 199.192 388.092 196.256 390.38C193.32 392.667 191.324 396.099 188.269 398.222C181.868 402.651 173.137 400.159 165.878 397.076C146.13 388.688 127.678 377.004 111.462 362.625C118.569 357.876 125.656 353.134 132.764 348.385C134.869 346.979 137.185 345.277 137.577 342.704C138.472 337.024 130.171 334.846 124.836 336.552C119.501 338.258 112.925 341 108.915 336.865C108.665 329.405 115.904 324.523 121.723 320.192C127.536 315.84 133.092 307.721 128.847 301.579C126.622 298.359 122.418 297.208 118.633 297.483C111.321 298.019 105.165 302.799 98.8751 306.558C92.5855 310.317 84.6559 313.136 78.0832 309.672C72.9653 306.983 70.1547 301.281 67.6815 295.946C58.3126 275.68 48.9437 255.414 39.5749 235.147C35.1722 225.614 31.1544 213.147 38.2506 205.798C41.7394 202.177 46.9897 201.087 51.2199 198.402C55.4501 195.718 58.5911 189.537 55.334 185.565C50.8854 180.145 42.2476 186.115 35.7102 183.976C30.5675 182.291 28.3112 176.206 26.8884 170.87C21.7958 151.709 17.6858 131.528 18.0225 111.695" fill="#92D4B7"/>
</svg>