<svg width="163" height="382" viewBox="0 0 163 382" fill="none" xmlns="http://www.w3.org/2000/svg">
<path d="M238.026 326.917C227.736 316.017 221.376 298.187 214.196 285.627C218.186 292.597 218.546 308.387 220.276 316.587C222.296 326.157 221.626 335.007 217.616 344.307C208.326 365.827 185.806 380.947 162.376 381.397C159.686 381.447 156.826 381.267 154.626 379.707C150.286 376.627 150.856 369.747 153.786 365.317C156.716 360.887 161.326 357.807 164.636 353.647C167.946 349.487 169.716 343.107 166.316 339.007C161.226 337.637 155.946 340.867 152.586 344.927C149.226 348.987 147.066 353.937 143.676 357.967C137.626 365.137 127.656 368.757 118.416 367.137C109.176 365.517 101.026 358.727 97.776 349.937C123.186 345.427 146.046 328.317 157.536 305.207C159.826 300.607 161.256 294.107 157.096 291.107C152.866 288.057 147.136 291.577 143.186 294.977C132.596 304.067 121.996 313.157 111.406 322.247C102.046 330.277 91.086 338.827 78.856 337.267C70.776 336.237 63.9659 330.907 57.8759 325.507C41.8659 311.297 27.5959 295.127 15.5059 277.457C50.4459 301.687 101.646 299.037 133.896 271.317C138.176 267.637 142.476 262.357 140.846 256.957C139.086 251.097 131.176 249.327 125.436 251.457C119.696 253.577 115.356 258.257 110.406 261.847C97.106 271.507 79.036 273.197 63.276 268.547C47.506 263.897 33.906 253.517 23.056 241.167C5.89599 221.627 -5.22395 194.257 2.49605 169.427C23.5561 201.857 65.426 219.287 103.286 211.387C110.536 209.877 119.116 205.477 118.606 198.087C118.116 191.117 109.996 187.787 103.236 186.017C80.726 180.107 57.436 173.827 39.446 159.067C21.456 144.297 10.286 118.497 19.576 97.1472C32.206 117.497 50.126 134.537 71.076 146.127C80.676 151.437 91.866 155.697 102.436 152.767C113.006 149.837 120.986 136.727 115.146 127.447C112.396 123.067 107.426 120.617 102.546 118.917C92.276 115.337 81.2959 114.117 71.0159 110.547C60.7359 106.977 50.656 100.317 47.056 90.0472C41.726 74.8372 52.226 59.0572 62.076 46.2972C71.916 33.5372 82.236 17.5272 76.526 2.45717C98.666 -4.46283 124.696 3.61717 139.016 21.8672C153.336 40.1172 155.016 67.3172 143.026 87.1772C138.866 94.0772 133.146 100.367 131.546 108.267C129.946 116.167 135.246 126.207 143.256 125.427C146.946 125.067 150.036 122.547 152.706 119.977C180.566 93.1372 187.206 46.8772 168.016 13.2872C189.526 24.9672 201.306 49.8672 203.226 74.2672C205.146 98.6672 198.666 122.897 191.426 146.277C190.206 150.227 188.946 154.347 189.656 158.417C190.366 162.487 193.766 166.407 197.886 166.207C200.946 166.057 203.446 163.797 205.586 161.597C234.806 131.577 249.966 88.4072 245.936 46.7072C256.356 58.2972 266.746 70.1572 273.946 83.9772C281.146 97.7972 284.976 113.947 281.456 129.127C277.366 146.817 264.206 160.707 252.556 174.637C240.906 188.567 229.796 205.097 231.166 223.197C268.336 190.177 301.016 152.127 328.056 110.417C341.936 135.367 339.756 167.067 327.516 192.857C315.276 218.647 294.106 239.217 271.136 256.157C293.826 256.157 316.096 243.467 327.666 223.947C332.676 235.687 334.786 249.087 331.106 261.307C327.426 273.527 317.196 284.157 304.576 286.067C298.306 287.017 290.566 286.497 287.176 291.857C283.506 297.657 289.096 305.707 295.816 307.097C302.536 308.487 309.306 305.497 315.516 302.577C319.196 320.207 304.906 338.287 287.386 342.477C271.526 346.277 254.296 340.527 241.836 330.507C240.496 329.437 239.226 328.237 238.006 326.947L238.026 326.917Z" fill="#A9D1B7"/>
</svg>
