<svg width="587" height="420" viewBox="0 0 587 420" fill="none" xmlns="http://www.w3.org/2000/svg">
<path d="M-259.771 -1.56597C-266.652 5.5494 -117.537 116.214 92.6338 126.26C367.756 139.43 588.701 -27.4324 585.975 -29.9716C583.638 -32.1481 418.86 91.6872 171.908 97.8539C-72.7941 103.965 -252.502 -9.12779 -259.771 -1.56597Z" fill="#AAD6A1" stroke="#AAD6A1" stroke-miterlimit="10"/>
<path d="M-36.866 -62.566C-40.8998 -55.4506 46.5243 55.2144 169.745 65.2596C331.046 78.43 460.584 -88.4324 458.985 -90.9716C457.615 -93.1481 361.008 30.6872 216.222 36.8539C72.7566 42.9647 -32.6038 -70.1278 -36.866 -62.566Z" fill="#AAD6A1" stroke="#AAD6A1" stroke-miterlimit="10"/>
<path d="M-78.7312 24.0456C-79.0393 41.0733 -70.3663 60.8955 -66.6222 76.9463C-68.6956 68.0405 -80.9943 54.5228 -86.018 46.31C-91.8948 36.734 -99.537 29.8275 -110.485 25.0906C-135.793 14.1516 -167.582 18.7067 -188.447 36.2569C-190.841 38.2675 -193.211 40.6189 -193.874 43.6065C-195.201 49.5133 -189.229 54.8523 -183.116 56.329C-177.002 57.8057 -170.521 56.8515 -164.3 57.8171C-158.08 58.7826 -151.433 62.7698 -151.137 68.813C-154.502 73.8565 -161.694 75.1969 -167.879 74.3563C-174.063 73.5157 -179.905 71.0167 -186.09 70.2442C-197.109 68.8584 -208.732 73.4589 -215.521 81.8876C-222.31 90.3163 -224.028 102.255 -219.846 112.126C-194.004 96.4504 -160.331 93.3038 -131.824 103.902C-126.149 106.015 -119.703 110.366 -120.947 116.079C-122.215 121.873 -130.035 123.304 -136.22 123.486C-152.748 123.974 -169.289 124.451 -185.817 124.94C-200.414 125.371 -216.848 126.587 -226.303 137.265C-232.559 144.319 -234.253 153.997 -235.272 163.198C-237.95 187.371 -237.512 211.873 -233.981 235.955C-222.749 188.87 -175.817 151.896 -125.461 150.464C-118.779 150.271 -110.793 151.407 -107.902 157.189C-104.762 163.459 -110.272 170.991 -116.99 173.603C-123.708 176.216 -131.243 175.614 -138.447 176.386C-157.807 178.454 -174.964 190.881 -185.047 206.852C-195.142 222.824 -198.756 241.953 -198.388 260.628C-197.808 290.162 -185.687 321.639 -159.099 336.565C-166.563 293.218 -143.838 246.542 -104.395 224.187C-96.8356 219.904 -85.8166 217.019 -80.3663 223.619C-75.2241 229.832 -79.6791 238.863 -84.1815 245.52C-99.1697 267.716 -114.537 290.81 -118.494 316.982C-122.452 343.154 -111.611 373.358 -86.4445 384.15C-91.646 357.398 -89.5607 329.386 -80.4848 303.612C-76.326 291.809 -69.9279 279.655 -58.3401 274.032C-46.7524 268.409 -29.2878 273.282 -26.9892 285.55C-25.8992 291.332 -28.2926 297.194 -31.2073 302.351C-37.3448 313.222 -45.9704 322.65 -52.1197 333.51C-58.269 344.369 -61.7643 357.682 -56.7169 369.053C-49.2287 385.899 -27.4395 391.102 -8.62421 394.271C10.1792 397.44 31.9921 402.984 39.0301 420C63.9354 408.856 80.2625 382.151 78.2246 355.876C76.1866 329.602 55.9259 305.486 29.575 298C20.4281 295.399 10.3925 294.501 2.67915 289.094C-5.02231 283.687 -8.41095 271.215 -0.768738 265.728C2.75024 263.206 7.46591 262.956 11.8617 263.07C57.6794 264.263 100.44 298 110.464 340.882C119.955 314.608 110.393 284.698 92.5848 262.752C74.7767 240.806 49.7647 225.436 24.7527 211.362C20.5347 208.988 16.1271 206.489 13.5086 202.524C10.8783 198.56 10.7124 192.676 14.492 189.688C17.3001 187.473 21.293 187.45 24.9186 187.666C74.4687 190.483 122.218 215.099 151.993 253.176C151.862 235.478 151.483 217.564 146.744 200.457C142.016 183.35 132.455 166.867 117.265 156.814C99.5636 145.103 76.9449 143.524 55.6297 140.752C34.3144 137.98 11.3759 132.619 -1.87062 116.375C57.0278 115.625 116.021 122.532 173 136.833C165.227 105.277 138 80.3314 106.684 68.0632C75.3691 55.7951 40.4282 54.7387 6.77872 58.1124C26.6366 40.7439 56.2695 34.3372 81.9805 41.8571C76.9924 28.169 68.1416 15.3102 55.1557 7.8698C42.1699 0.429401 24.729 -0.6611 12.1579 7.40407C5.90193 11.4139 -0.448807 17.7752 -7.70004 15.8668C-15.5437 13.8108 -17.084 2.78079 -12.3091 -3.53503C-7.53416 -9.85085 0.783417 -12.5203 8.54411 -14.8263C-2.30902 -32.4333 -29.2641 -36.659 -47.9372 -26.7764C-64.8568 -17.8251 -75.3426 0.202213 -78.2455 18.1501C-78.5535 20.0812 -78.7194 22.0463 -78.7549 24.0683L-78.7312 24.0456Z" fill="#D6E4CC"/>
</svg>
