<svg width="1149" height="586" viewBox="0 0 1149 586" fill="none" xmlns="http://www.w3.org/2000/svg">
<path d="M1.22862 -52.566C-5.65159 -45.4506 143.463 65.2144 353.634 75.2596C628.756 88.43 849.701 -78.4324 846.975 -80.9716C844.638 -83.1481 679.86 40.6872 432.908 46.8539C188.206 52.9647 8.49827 -60.1278 1.22862 -52.566Z" fill="#AAD6A1" stroke="#AAD6A1" stroke-miterlimit="10"/>
<path d="M726.229 17.5802C719.348 24.6955 868.463 153.214 1078.63 163.26C1353.76 176.43 1574.7 9.56757 1571.98 7.02836C1569.64 4.8519 1404.86 110.833 1157.91 117C913.206 123.111 733.498 10.0183 726.229 17.5802Z" fill="#AAD6A1" stroke="#AAD6A1" stroke-miterlimit="10"/>
<path d="M341.233 -91.2272C334.207 -82.5256 486.494 52.8099 701.137 65.0945C982.112 81.201 1207.76 -122.86 1204.97 -125.965C1202.59 -128.627 1034.3 22.815 782.097 30.3563C532.189 37.8295 348.658 -100.475 341.233 -91.2272Z" fill="#AAD6A1" stroke="#AAD6A1" stroke-miterlimit="10"/>
<path d="M726.229 17.5802C719.348 24.6955 868.463 153.214 1078.63 163.26C1353.76 176.43 1574.7 9.56757 1571.98 7.02836C1569.64 4.8519 1404.86 110.833 1157.91 117C913.206 123.111 733.498 10.0183 726.229 17.5802Z" fill="#AAD6A1" stroke="#AAD6A1" stroke-miterlimit="10"/>
<path d="M1224.03 530.917C1213.74 520.017 1207.38 502.187 1200.2 489.627C1204.19 496.597 1204.55 512.387 1206.28 520.587C1208.3 530.157 1207.63 539.007 1203.62 548.307C1194.33 569.827 1171.81 584.947 1148.38 585.397C1145.69 585.447 1142.83 585.267 1140.63 583.707C1136.29 580.627 1136.86 573.747 1139.79 569.317C1142.72 564.887 1147.33 561.807 1150.64 557.647C1153.95 553.487 1155.72 547.107 1152.32 543.007C1147.23 541.637 1141.95 544.867 1138.59 548.927C1135.23 552.987 1133.07 557.937 1129.68 561.967C1123.63 569.137 1113.66 572.757 1104.42 571.137C1095.18 569.517 1087.03 562.727 1083.78 553.937C1109.19 549.427 1132.05 532.317 1143.54 509.207C1145.83 504.607 1147.26 498.107 1143.1 495.107C1138.87 492.057 1133.14 495.577 1129.19 498.977C1118.6 508.067 1108 517.157 1097.41 526.247C1088.05 534.277 1077.09 542.827 1064.86 541.267C1056.78 540.237 1049.97 534.907 1043.88 529.507C1027.87 515.297 1013.6 499.127 1001.51 481.457C1036.45 505.687 1087.65 503.037 1119.9 475.317C1124.18 471.637 1128.48 466.357 1126.85 460.957C1125.09 455.097 1117.18 453.327 1111.44 455.457C1105.7 457.577 1101.36 462.257 1096.41 465.847C1083.11 475.507 1065.04 477.197 1049.28 472.547C1033.51 467.897 1019.91 457.517 1009.06 445.167C991.896 425.627 980.776 398.257 988.496 373.427C1009.56 405.857 1051.43 423.287 1089.29 415.387C1096.54 413.877 1105.12 409.477 1104.61 402.087C1104.12 395.117 1096 391.787 1089.24 390.017C1066.73 384.107 1043.44 377.827 1025.45 363.067C1007.46 348.297 996.286 322.497 1005.58 301.147C1018.21 321.497 1036.13 338.537 1057.08 350.127C1066.68 355.437 1077.87 359.697 1088.44 356.767C1099.01 353.837 1106.99 340.727 1101.15 331.447C1098.4 327.067 1093.43 324.617 1088.55 322.917C1078.28 319.337 1067.3 318.117 1057.02 314.547C1046.74 310.977 1036.66 304.317 1033.06 294.047C1027.73 278.837 1038.23 263.057 1048.08 250.297C1057.92 237.537 1068.24 221.527 1062.53 206.457C1084.67 199.537 1110.7 207.617 1125.02 225.867C1139.34 244.117 1141.02 271.317 1129.03 291.177C1124.87 298.077 1119.15 304.367 1117.55 312.267C1115.95 320.167 1121.25 330.207 1129.26 329.427C1132.95 329.067 1136.04 326.547 1138.71 323.977C1166.57 297.137 1173.21 250.877 1154.02 217.287C1175.53 228.967 1187.31 253.867 1189.23 278.267C1191.15 302.667 1184.67 326.897 1177.43 350.277C1176.21 354.227 1174.95 358.347 1175.66 362.417C1176.37 366.487 1179.77 370.407 1183.89 370.207C1186.95 370.057 1189.45 367.797 1191.59 365.597C1220.81 335.577 1235.97 292.407 1231.94 250.707C1242.36 262.297 1252.75 274.157 1259.95 287.977C1267.15 301.797 1270.98 317.947 1267.46 333.127C1263.37 350.817 1250.21 364.707 1238.56 378.637C1226.91 392.567 1215.8 409.097 1217.17 427.197C1254.34 394.177 1287.02 356.127 1314.06 314.417C1327.94 339.367 1325.76 371.067 1313.52 396.857C1301.28 422.647 1280.11 443.217 1257.14 460.157C1279.83 460.157 1302.1 447.467 1313.67 427.947C1318.68 439.687 1320.79 453.087 1317.11 465.307C1313.43 477.527 1303.2 488.157 1290.58 490.067C1284.31 491.017 1276.57 490.497 1273.18 495.857C1269.51 501.657 1275.1 509.707 1281.82 511.097C1288.54 512.487 1295.31 509.497 1301.52 506.577C1305.2 524.207 1290.91 542.287 1273.39 546.477C1257.53 550.277 1240.3 544.527 1227.84 534.507C1226.5 533.437 1225.23 532.237 1224.01 530.947L1224.03 530.917Z" fill="#A9D1B7"/>
</svg>
