<svg width="86" height="87" viewBox="0 0 86 87" fill="none" xmlns="http://www.w3.org/2000/svg">
<path d="M86 43.5C86 67.2482 66.7482 86.5 43 86.5C19.2518 86.5 0 67.2482 0 43.5C0 19.7518 19.2518 0.5 43 0.5C66.7482 0.5 86 19.7518 86 43.5Z" fill="#D6E4CC"/>
<path d="M27.8107 29.3202C26.6986 29.169 25.9809 27.0338 26.1826 25.3642C26.3902 23.6383 27.6624 21.7492 28.7418 21.8738C29.8806 22.0072 30.7732 24.3796 30.3699 26.2954C30.0585 27.7811 28.8693 29.4625 27.8107 29.3202Z" fill="#6F1E5F"/>
<path d="M57.362 22.5737C56.3478 22.461 55.0756 24.3174 55.034 26.0641C54.9896 27.9205 56.33 29.8955 57.362 29.7858C58.3643 29.679 59.0197 27.6121 58.99 26.0641C58.9633 24.6584 58.3524 22.6834 57.362 22.5737Z" fill="#6F1E5F"/>
<path d="M44.0972 20.9426C42.4721 21.0346 40.6928 21.1384 38.7445 20.2458C36.6982 19.3057 36.2949 18.1047 34.0916 17.4522C32.2796 16.9155 30.1326 17.0133 29.9042 17.6835C29.7056 18.2648 31.0786 18.8549 32.4635 20.4771C32.766 20.8329 35.2096 23.748 35.0227 26.5267C34.8893 28.5018 33.5044 29.3054 28.7388 33.7389C28.7388 33.7389 25.7674 29.2713 18.7865 36.2002C16.9064 38.6349 18.0244 45.764 18.0333 50.2597C18.0362 51.7514 18.0422 54.9186 20.1269 57.0063C20.9988 57.8811 21.6008 57.9286 21.755 58.6344C22.2176 60.731 21.7758 53.8717 21.755 57.0063C21.7491 58.1035 21.6364 56.7394 22.4549 57.0063C23.6707 57.4066 21.8143 62.3087 22.6891 60.7251C23.2556 59.702 23.2882 63.3229 24.3142 61.8875C24.937 61.0216 25.3136 60.7666 25.711 60.7251C26.6155 60.6242 27.3865 61.6414 27.5734 61.8875C28.6172 63.2665 27.947 64.1858 28.7358 65.8436C28.9375 66.2647 30.011 68.3672 31.7607 68.4028C32.9854 68.4265 34.3762 67.5932 34.5542 66.5404C34.7707 65.2475 33.1129 63.8626 31.9949 63.2813C31.0845 62.8098 30.4647 62.8365 29.9013 62.1189C29.8509 62.0566 20.4236 58.3734 20.7557 57.5519C20.9633 57.0389 29.6729 56.7542 31.2417 56.3657C34.3644 55.5917 33.6438 55.8438 34.0589 55.1795C34.6283 54.2662 35.9628 55.0876 34.7885 54.6724C34.0708 54.4174 33.5281 54.8474 31.7636 55.6036C29.5602 56.5466 28.3681 57.0597 27.342 57.0004C25.2247 56.8788 19.4122 53.8717 18.7865 51.9175C17.1347 46.7664 19.5279 25.9692 28.7388 33.7389C35.1443 30.0913 48.0621 32.3362 53.403 33.4987C53.6907 33.5609 56.7155 34.2252 56.8934 33.73C57.0358 33.3296 55.1082 32.7484 53.6343 30.9364C51.852 28.7449 51.7898 26.0463 51.772 25.3524C51.6771 21.2955 54.1711 19.1604 53.4 18.3715C52.5134 17.4671 49.5478 20.6194 44.0913 20.9308L44.0972 20.9426Z" fill="#F05E71"/>
<path d="M37.0689 60.6094C29.4772 62.4362 25.7673 60.2684 22.6861 58.67C23.8279 58.8983 24.9696 59.011 26.224 59.011C35.2421 59.011 42.6025 52.4483 42.6025 44.3435C42.6025 36.2388 35.2421 29.6761 26.224 29.6761C17.2059 29.6761 9.78613 36.2388 9.78613 44.3435C9.78613 50.0522 13.4397 55.0164 18.7479 57.4126C17.7782 57.4126 16.7492 57.6409 15.6104 58.2696C13.6116 59.2986 14.6407 62.1515 16.6958 61.1224C21.5474 58.6106 25.0289 69.9122 34.047 69.9122C42.5521 69.9122 41.4104 59.5833 37.0719 60.6094H37.0689ZM26.224 32.5882C29.3615 32.5882 31.9326 37.8402 31.9326 44.3435C31.9326 50.8469 29.3645 56.1581 26.224 56.1581C23.0835 56.1581 20.459 50.9062 20.459 44.3435C20.459 37.7809 23.0272 32.5882 26.224 32.5882Z" fill="url(#paint0_linear_204_2)"/>
<path d="M74.7073 43.2048V48.7414C74.7073 52.6233 76.4214 54.106 76.4214 57.2465C76.4214 59.7583 74.1379 60.6124 70.4874 60.6124C66.8368 60.6124 64.5534 59.7553 64.5534 57.2465C64.5534 54.106 66.3238 52.6233 66.3238 48.7414V47.4277H56.4516V48.7414C56.4516 52.6233 58.222 54.106 58.222 57.2465C58.222 59.7583 55.9386 60.6124 52.288 60.6124C48.6375 60.6124 46.354 59.7553 46.354 57.2465C46.354 54.106 48.0651 52.6233 48.0651 48.7414V43.2048C48.0651 39.3229 46.354 37.8402 46.354 34.7027C46.354 32.1909 48.6375 31.2775 52.288 31.2775C55.9386 31.2775 58.222 32.1909 58.222 34.7027C58.222 37.8431 56.4516 39.3259 56.4516 43.2048V44.5185H66.3238V43.2048C66.3238 39.3229 64.5534 37.8402 64.5534 34.7027C64.5534 32.1909 66.8368 31.2775 70.4874 31.2775C74.1379 31.2775 76.4214 32.1909 76.4214 34.7027C76.4214 37.8431 74.7073 39.3259 74.7073 43.2048Z" fill="url(#paint1_linear_204_2)"/>
<path d="M25.2128 32.0604C24.6049 32.5734 22.5646 34.4002 22.87 36.5027C22.9827 37.2856 23.3801 37.8046 24.1689 38.8099C26.3219 41.5589 27.9737 41.7072 28.1783 43.2107C28.3325 44.3436 27.6119 45.8382 26.4138 46.108C25.1802 46.3838 23.8042 45.2747 23.6885 44.2961C23.6203 43.7089 24.0385 43.4836 24.1571 42.6888C24.2757 41.8911 23.9584 41.2742 23.4809 40.2956C22.8671 39.0353 22.2473 37.769 21.6838 37.852C20.9958 37.9529 20.6518 40.0287 20.5777 41.1171C20.4739 42.5969 20.8001 43.1336 20.3375 43.8602C19.863 44.6045 18.8251 45.1413 18.2142 44.8299C17.5143 44.4711 17.5232 43.0773 17.8316 42.1698C18.0807 41.4462 18.3892 41.4196 18.9229 40.4795C19.3915 39.6521 20.0558 38.0774 19.6139 37.7008C19.2254 37.3716 17.9473 37.9202 17.2563 38.8277C16.7107 39.5424 16.936 39.9516 16.3251 40.7523C16.0434 41.12 15.4236 41.9296 14.528 41.9059C13.6087 41.8792 12.7102 40.9777 12.7517 40.1948C12.7991 39.3022 14.0565 38.7565 14.9165 38.3858C15.8477 37.9825 16.0434 38.1516 16.6869 37.7927C17.8643 37.1373 18.7747 35.6991 18.4396 35.1771C18.2053 34.8094 17.458 35.0526 13.9883 35.4203C12.2772 35.6012 11.7464 35.619 11.3549 35.2424C10.6847 34.5959 10.7322 33.0746 11.4231 32.5467C12.1853 31.9655 13.0987 33.0776 14.9314 33.2169C18.5196 33.4838 21.8262 30.118 22.1346 29.7769C22.1465 29.7651 22.182 29.7236 22.2354 29.6791C22.7514 29.2402 23.7419 29.3143 24.3706 29.7235C25.0734 30.1802 25.4145 31.1173 25.2158 32.0663L25.2128 32.0604Z" fill="#F05E71"/>
<path d="M60.9116 32.523C61.0362 34.1748 61.1044 35.1238 60.8404 35.9867C60.019 38.6587 56.6086 38.3354 55.805 40.8947C55.3483 42.3478 55.8613 44.3198 56.8904 44.6164C57.8097 44.8833 59.1026 43.875 59.6335 42.7392C59.9745 42.0067 59.7877 41.6093 59.8885 40.696C60.1376 38.4629 61.7153 36.2625 62.5308 36.4227C63.2247 36.5561 63.6102 38.4451 63.5242 39.8805C63.4234 41.5619 62.6969 42.158 63.0972 43.1663C63.4442 44.0411 64.4643 44.7973 65.2353 44.5749C66.1191 44.3198 66.4838 42.8341 66.1991 41.8169C66.042 41.2535 65.8314 41.3632 65.3925 40.4884C64.7638 39.2399 64.7549 38.1486 64.7549 37.5614C64.7549 36.9001 64.7549 36.5709 64.9269 36.4938C65.3718 36.2951 66.7863 37.7305 67.4269 39.4979C67.9429 40.9125 67.6196 41.5975 68.2394 42.069C68.9838 42.6354 70.4724 42.4278 70.9884 41.6123C71.6053 40.6367 70.5911 39.1747 69.82 38.5104C69.3752 38.1278 69.1647 38.1456 68.5745 37.8076C66.9939 36.8971 65.6357 35.1178 65.9826 34.5366C66.3444 33.9287 68.6961 34.418 70.1581 34.9577C71.2642 35.3669 71.7862 35.7821 72.5572 35.5656C73.26 35.3699 74.0162 34.6997 73.9688 33.9613C73.9213 33.2436 73.1325 32.7365 72.5424 32.5497C71.1723 32.1138 70.594 33.3148 68.9956 33.2792C66.9198 33.2318 65.1523 31.147 64.7223 30.6369C63.6933 29.424 63.4501 28.4128 62.5812 28.3387C61.9703 28.2882 61.3831 28.7242 61.0777 29.1453C60.4935 29.946 60.793 30.8564 60.9175 32.5201L60.9116 32.523Z" fill="#F05E71"/>
<defs>
<linearGradient id="paint0_linear_204_2" x1="9.78613" y1="49.7942" x2="42.6025" y2="49.7942" gradientUnits="userSpaceOnUse">
<stop stop-color="#FFC600"/>
<stop offset="0.543911" stop-color="#24AE79"/>
<stop offset="1" stop-color="#4B73B8"/>
</linearGradient>
<linearGradient id="paint1_linear_204_2" x1="46.3451" y1="45.942" x2="76.4214" y2="45.942" gradientUnits="userSpaceOnUse">
<stop stop-color="#3F79BC"/>
<stop offset="0.390625" stop-color="#6F1E5F"/>
<stop offset="0.776042" stop-color="#D04787"/>
<stop offset="1" stop-color="#FFC600"/>
</linearGradient>
</defs>
</svg>
