<svg width="86" height="86" viewBox="0 0 86 86" fill="none" xmlns="http://www.w3.org/2000/svg">
<path d="M86 43C86 66.7482 66.7482 86 43 86C19.2518 86 0 66.7482 0 43C0 19.2518 19.2518 0 43 0C66.7482 0 86 19.2518 86 43Z" fill="#D6E4CC"/>
<path d="M27.8107 28.8202C26.6986 28.669 25.9809 26.5338 26.1826 24.8642C26.3902 23.1383 27.6624 21.2492 28.7418 21.3738C29.8806 21.5072 30.7732 23.8796 30.3699 25.7954C30.0585 27.2811 28.8693 28.9625 27.8107 28.8202Z" fill="#6F1E5F"/>
<path d="M57.362 22.0737C56.3478 21.961 55.0756 23.8174 55.0341 25.5641C54.9896 27.4205 56.33 29.3955 57.362 29.2858C58.3644 29.179 59.0198 27.1121 58.9901 25.5641C58.9634 24.1584 58.3525 22.1834 57.362 22.0737Z" fill="#6F1E5F"/>
<path d="M44.0972 20.4426C42.4721 20.5346 40.6928 20.6384 38.7445 19.7458C36.6982 18.8057 36.2949 17.6047 34.0916 16.9522C32.2796 16.4155 30.1326 16.5133 29.9042 17.1835C29.7056 17.7648 31.0786 18.3549 32.4635 19.9771C32.766 20.3329 35.2096 23.248 35.0227 26.0267C34.8893 28.0018 33.5044 28.8054 28.7388 33.2389C28.7388 33.2389 25.7674 28.7713 18.7865 35.7002C16.9064 38.1349 18.0244 45.264 18.0333 49.7597C18.0362 51.2514 18.0422 54.4186 20.1269 56.5063C20.9988 57.3811 21.6008 57.4286 21.755 58.1344C22.2176 60.231 21.7758 53.3717 21.755 56.5063C21.7491 57.6035 21.6364 56.2394 22.4549 56.5063C23.6707 56.9066 21.8143 61.8087 22.6891 60.2251C23.2556 59.202 23.2882 62.8229 24.3142 61.3875C24.937 60.5216 25.3136 60.2666 25.711 60.2251C26.6155 60.1242 27.3865 61.1414 27.5734 61.3875C28.6172 62.7665 27.947 63.6858 28.7358 65.3436C28.9375 65.7647 30.011 67.8672 31.7607 67.9028C32.9854 67.9265 34.3762 67.0932 34.5542 66.0404C34.7707 64.7475 33.1129 63.3626 31.9949 62.7813C31.0845 62.3098 30.4647 62.3365 29.9013 61.6189C29.8509 61.5566 20.4236 57.8734 20.7557 57.0519C20.9633 56.5389 29.6729 56.2542 31.2417 55.8657C34.3644 55.0917 33.6438 55.3438 34.0589 54.6795C34.6283 53.7662 35.9628 54.5876 34.7885 54.1724C34.0708 53.9174 33.5281 54.3474 31.7636 55.1036C29.5602 56.0466 28.3681 56.5597 27.342 56.5004C25.2247 56.3788 19.4122 53.3717 18.7865 51.4175C17.1347 46.2664 19.5279 25.4692 28.7388 33.2389C35.1443 29.5913 48.0621 31.8362 53.403 32.9987C53.6907 33.0609 56.7155 33.7252 56.8934 33.23C57.0358 32.8296 55.1082 32.2484 53.6343 30.4364C51.852 28.2449 51.7898 25.5463 51.772 24.8524C51.6771 20.7955 54.1711 18.6604 53.4 17.8715C52.5134 16.9671 49.5478 20.1194 44.0913 20.4308L44.0972 20.4426Z" fill="#F05E71"/>
<path d="M37.069 60.1094C29.4772 61.9362 25.7674 59.7684 22.6862 58.17C23.8279 58.3983 24.9696 58.511 26.2241 58.511C35.2422 58.511 42.6026 51.9483 42.6026 43.8435C42.6026 35.7388 35.2422 29.1761 26.2241 29.1761C17.2059 29.1761 9.78619 35.7388 9.78619 43.8435C9.78619 49.5522 13.4397 54.5164 18.748 56.9126C17.7783 56.9126 16.7492 57.1409 15.6105 57.7696C13.6117 58.7986 14.6407 61.6515 16.6958 60.6224C21.5474 58.1106 25.029 69.4122 34.0471 69.4122C42.5522 69.4122 41.4105 59.0833 37.0719 60.1094H37.069ZM26.2241 32.0882C29.3616 32.0882 31.9327 37.3402 31.9327 43.8435C31.9327 50.3469 29.3645 55.6581 26.2241 55.6581C23.0836 55.6581 20.4591 50.4062 20.4591 43.8435C20.4591 37.2809 23.0272 32.0882 26.2241 32.0882Z" fill="url(#paint0_linear_120_2202)"/>
<path d="M74.7073 42.7048V48.2414C74.7073 52.1233 76.4214 53.606 76.4214 56.7465C76.4214 59.2583 74.1379 60.1124 70.4874 60.1124C66.8368 60.1124 64.5534 59.2553 64.5534 56.7465C64.5534 53.606 66.3238 52.1233 66.3238 48.2414V46.9277H56.4516V48.2414C56.4516 52.1233 58.222 53.606 58.222 56.7465C58.222 59.2583 55.9386 60.1124 52.288 60.1124C48.6375 60.1124 46.354 59.2553 46.354 56.7465C46.354 53.606 48.0651 52.1233 48.0651 48.2414V42.7048C48.0651 38.8229 46.354 37.3402 46.354 34.2027C46.354 31.6909 48.6375 30.7775 52.288 30.7775C55.9386 30.7775 58.222 31.6909 58.222 34.2027C58.222 37.3431 56.4516 38.8259 56.4516 42.7048V44.0185H66.3238V42.7048C66.3238 38.8229 64.5534 37.3402 64.5534 34.2027C64.5534 31.6909 66.8368 30.7775 70.4874 30.7775C74.1379 30.7775 76.4214 31.6909 76.4214 34.2027C76.4214 37.3431 74.7073 38.8259 74.7073 42.7048Z" fill="url(#paint1_linear_120_2202)"/>
<path d="M25.2129 31.5604C24.6049 32.0734 22.5647 33.9002 22.8701 36.0027C22.9828 36.7856 23.3802 37.3046 24.169 38.3099C26.322 41.0589 27.9738 41.2072 28.1784 42.7107C28.3326 43.8436 27.612 45.3382 26.4139 45.608C25.1802 45.8838 23.8042 44.7747 23.6886 43.7961C23.6204 43.2089 24.0385 42.9836 24.1571 42.1888C24.2758 41.3911 23.9585 40.7742 23.481 39.7956C22.8671 38.5353 22.2473 37.269 21.6839 37.352C20.9959 37.4529 20.6519 39.5287 20.5778 40.6171C20.474 42.0969 20.8002 42.6336 20.3376 43.3602C19.8631 44.1045 18.8251 44.6413 18.2142 44.3299C17.5144 43.9711 17.5233 42.5773 17.8317 41.6698C18.0808 40.9462 18.3892 40.9196 18.923 39.9795C19.3916 39.1521 20.0558 37.5774 19.614 37.2008C19.2255 36.8716 17.9473 37.4202 17.2564 38.3277C16.7107 39.0424 16.9361 39.4516 16.3252 40.2523C16.0435 40.62 15.4237 41.4296 14.5281 41.4059C13.6088 41.3792 12.7102 40.4777 12.7518 39.6948C12.7992 38.8022 14.0566 38.2565 14.9166 37.8858C15.8478 37.4825 16.0435 37.6516 16.687 37.2927C17.8643 36.6373 18.7747 35.1991 18.4396 34.6771C18.2053 34.3094 17.458 34.5526 13.9884 34.9203C12.2773 35.1012 11.7465 35.119 11.355 34.7424C10.6848 34.0959 10.7322 32.5746 11.4232 32.0467C12.1853 31.4655 13.0987 32.5776 14.9314 32.7169C18.5197 32.9838 21.8262 29.618 22.1347 29.2769C22.1465 29.2651 22.1821 29.2236 22.2355 29.1791C22.7515 28.7402 23.742 28.8143 24.3707 29.2235C25.0735 29.6802 25.4145 30.6173 25.2158 31.5663L25.2129 31.5604Z" fill="#F05E71"/>
<path d="M60.9117 32.023C61.0363 33.6748 61.1045 34.6238 60.8406 35.4867C60.0191 38.1587 56.6088 37.8354 55.8051 40.3947C55.3484 41.8478 55.8615 43.8198 56.8905 44.1164C57.8098 44.3833 59.1028 43.375 59.6336 42.2392C59.9746 41.5067 59.7878 41.1093 59.8886 40.196C60.1377 37.9629 61.7154 35.7625 62.5309 35.9227C63.2248 36.0561 63.6104 37.9451 63.5244 39.3805C63.4235 41.0619 62.697 41.658 63.0973 42.6663C63.4443 43.5411 64.4644 44.2973 65.2355 44.0749C66.1192 43.8198 66.4839 42.3341 66.1993 41.3169C66.0421 40.7535 65.8315 40.8632 65.3926 39.9884C64.7639 38.7399 64.7551 37.6486 64.7551 37.0614C64.7551 36.4001 64.755 36.0709 64.927 35.9938C65.3719 35.7951 66.7864 37.2305 67.427 38.9979C67.943 40.4125 67.6197 41.0975 68.2395 41.569C68.9839 42.1354 70.4726 41.9278 70.9886 41.1123C71.6054 40.1367 70.5912 38.6747 69.8202 38.0104C69.3753 37.6278 69.1648 37.6456 68.5746 37.3076C66.994 36.3971 65.6358 34.6178 65.9828 34.0366C66.3446 33.4287 68.6962 33.918 70.1582 34.4577C71.2644 34.8669 71.7863 35.2821 72.5573 35.0656C73.2602 34.8699 74.0164 34.1997 73.9689 33.4613C73.9215 32.7436 73.1326 32.2365 72.5425 32.0497C71.1724 31.6138 70.5942 32.8148 68.9957 32.7792C66.9199 32.7318 65.1524 30.647 64.7224 30.1369C63.6934 28.924 63.4502 27.9128 62.5813 27.8387C61.9704 27.7882 61.3833 28.2242 61.0778 28.6453C60.4936 29.446 60.7931 30.3564 60.9177 32.0201L60.9117 32.023Z" fill="#F05E71"/>
<defs>
<linearGradient id="paint0_linear_120_2202" x1="9.78619" y1="49.2942" x2="42.6026" y2="49.2942" gradientUnits="userSpaceOnUse">
<stop stop-color="#FFC600"/>
<stop offset="0.543911" stop-color="#24AE79"/>
<stop offset="1" stop-color="#4B73B8"/>
</linearGradient>
<linearGradient id="paint1_linear_120_2202" x1="46.3451" y1="45.442" x2="76.4214" y2="45.442" gradientUnits="userSpaceOnUse">
<stop stop-color="#3F79BC"/>
<stop offset="0.390625" stop-color="#6F1E5F"/>
<stop offset="0.776042" stop-color="#D04787"/>
<stop offset="1" stop-color="#FFC600"/>
</linearGradient>
</defs>
</svg>
